<svg xmlns="http://www.w3.org/2000/svg" width="17.684mm" height="17.684mm" viewBox="0 0 50.127 50.127">
  <title>Cart_Button</title>
  <g id="36cf302e-d50b-4015-a472-9e5140a090b0" data-name="Capa 2">
    <g id="73de436a-1d38-4b68-8f4f-71159d16f057" data-name="Capa 3">
      <circle cx="25.064" cy="25.064" r="23.064" fill="#fdfbfc" stroke="#d7a6b4" stroke-miterlimit="10" stroke-width="4"/>
      <g>
        <path d="M28.3,32.05c-2.58,0-5.161.038-7.741-.013a3.046,3.046,0,0,1-2.956-3.23,3.241,3.241,0,0,1,1.435-2.444c.341-.261.679-.528,1.037-.763.245-.161.268-.307.146-.57-1.027-2.216-2.038-4.438-3.054-6.659-.481-1.051-.969-2.1-1.437-3.157a.422.422,0,0,0-.463-.3c-.691.017-1.382.013-2.073,0a1.3,1.3,0,0,1-1.309-1.393,1.283,1.283,0,0,1,1.342-1.356c.952,0,1.9,0,2.855-.005a1.884,1.884,0,0,1,1.868,1.153c.339.715.7,1.419,1.043,2.135a.454.454,0,0,0,.476.3q7.587-.009,15.174,0c.639,0,1.278-.008,1.916,0a1.515,1.515,0,0,1,1.689,1.728V24.4a1.541,1.541,0,0,1-1.45,1.629q-3.837.432-7.675.856-3.333.375-6.666.759c-.464.053-.933.085-1.389.179a.96.96,0,0,0-.812.957c.021.429.344.745.918.774.871.044,1.745.036,2.618.036q6.061,0,12.123,0c.885,0,1.327.345,1.438,1.1a1.175,1.175,0,0,1-1,1.352c-.66.059-1.327.043-1.991.044q-3.03.006-6.061,0Z" fill="#6bafaf"/>
        <path d="M34.369,33.137a2.4,2.4,0,0,1,2.388,2.381,2.428,2.428,0,0,1-2.421,2.445,2.454,2.454,0,0,1-2.415-2.419A2.421,2.421,0,0,1,34.369,33.137Z" fill="#6bafaf"/>
        <path d="M20.876,33.135a2.38,2.38,0,0,1,2.391,2.488,2.409,2.409,0,1,1-2.391-2.488Z" fill="#6bafaf"/>
      </g>
    </g>
  </g>
</svg>
