<svg xmlns="http://www.w3.org/2000/svg" width="17.684mm" height="17.684mm" viewBox="0 0 50.127 50.127">
  <title>Reset_Button_Click</title>
  <g id="516912b6-668c-45c8-89c1-1c3993a3cad2" data-name="Capa 2">
    <g id="54d29d5b-5246-431c-84e4-94b1d7729c3e" data-name="Capa 3">
      <circle cx="25.064" cy="25.064" r="23.064" fill="#d7a6b4" stroke="#fdfbfc" stroke-miterlimit="10" stroke-width="4"/>
      <g>
        <path d="M14.762,26.257c.512,9.513,11.894,15.047,19.054,7.887S35.441,15.6,25.929,15.09c-1.608-.086-1.6,2.414,0,2.5,7.38.4,11.7,9.205,6.119,14.786C26.5,37.928,17.66,33.649,17.262,26.257c-.086-1.6-2.587-1.61-2.5,0Z" fill="#fdfbfc"/>
        <path d="M23.123,12.729a10.668,10.668,0,0,1-2.581,3.33l1.514-.2q-.314-.186.259.3l.126.963,0-.022-.873.873c-.6.244-.711-.211-.22.188.316.256.687.451,1.008.706a3.386,3.386,0,0,1,1.086,1.449c.575,1.485,2.993.84,2.411-.664a6.964,6.964,0,0,0-3.879-3.975A1.312,1.312,0,1,0,20.8,18.023a1.3,1.3,0,0,0,1.514-.2,12.468,12.468,0,0,0,2.973-3.836c.773-1.412-1.385-2.675-2.159-1.262Z" fill="#fdfbfc"/>
      </g>
    </g>
  </g>
</svg>
