<svg xmlns="http://www.w3.org/2000/svg" width="17.684mm" height="17.684mm" viewBox="0 0 50.127 50.127">
  <title>Send_Button</title>
  <g id="9c19f168-9caa-4e8d-a56f-2633555aa35b" data-name="Capa 2">
    <g id="6ef6b5c4-cc3e-48b8-afe5-9cf2fe80938c" data-name="Capa 4">
      <g>
        <circle cx="25.064" cy="25.064" r="23.064" fill="#fdfbfc" stroke="#d7a6b4" stroke-miterlimit="10" stroke-width="4"/>
        <g>
          <path d="M36.87,11.971a2.589,2.589,0,0,0,.775-.19c.918-.191,1.48.341,1.3,1.247-1.273,6.566-2.709,13.1-4.115,19.635-.3,1.409-.588,2.822-.886,4.232a4.812,4.812,0,0,1-.2.722c-.329.87-.818,1.088-1.6.6-1.354-.841-2.67-1.743-3.992-2.633-1.02-.687-2.018-1.406-3.039-2.092-.774-.521-1.016-.492-1.713.15-1.019.938-2.032,1.882-3.05,2.822-.141.13-.285.259-.438.374-.6.452-1,.341-1.263-.4-.375-1.05-.713-2.114-1.065-3.172-.193-.582-.383-1.165-.575-1.748q-.439-1.429-.879-2.859A2.431,2.431,0,0,0,14.4,27.115c-1.8-.651-3.6-1.331-5.4-2a4.578,4.578,0,0,1-.678-.314c-.923-.534-.941-1.3,0-1.777a22.974,22.974,0,0,1,2.277-.953q12.036-4.6,24.075-9.185c.662-.253,1.313-.535,1.97-.8a.2.2,0,0,0,.211-.1Zm-7.048,6.708q-6.075,3.938-12.151,7.872a.713.713,0,0,0-.293.9c.3.974.6,1.944.905,2.916a20.722,20.722,0,0,0,1.1,3.333,26.189,26.189,0,0,0,.461-2.965,3.563,3.563,0,0,1,1.142-2.318q5.5-5.317,10.967-10.665a.928.928,0,0,0,.411-.646A25.369,25.369,0,0,0,29.822,18.679Z" fill="#6bafaf"/>
          <path d="M36.861,11.973a.2.2,0,0,1-.211.1Z" fill="#6bafaf"/>
        </g>
      </g>
    </g>
  </g>
</svg>
