<svg xmlns="http://www.w3.org/2000/svg" width="17.07mm" height="17.07mm" viewBox="0 0 48.387 48.387">
  <title>Recurso 56</title>
  <g id="ff423a0a-ca8c-4988-b365-1f18d2fea590" data-name="Capa 2">
    <g id="2e80aeb0-3950-47c9-bb82-afd0e1426ec3" data-name="Capa 2">
      <g>
        <g>
          <path d="M43.288,15.306c0,1.432-.02,2.863,0,4.3.071,6.377-5.038,9.9-11.246,7.741.589-1.776-.811-3.27-.718-5.007a1.347,1.347,0,0,0-1.376-1.257,3.378,3.378,0,0,1-1.431-2.551l1.006.118-.006-.013a4.422,4.422,0,0,0,2.1,1.627c1.935.964,4,.589,6,.852.017.194.033.387.05.58-1.529,1.059-3.19.181-4.966.266.648,2.073,2.264,1.743,3.669,1.708,1.24-.032,2.381-.325,2.278-1.974a8.072,8.072,0,0,0,3.219-3.02c.452-.858-.1-1-.735-1.111l.14-.961.468-.428a1.307,1.307,0,0,0,.586-1.093l.5-.43Z" fill="#6e221e"/>
          <path d="M42.82,14.648l-.5.43c-.53.185-.6.615-.584,1.093l-.469.428a1.972,1.972,0,0,0-1.724.9c-1.753,2.3-4.182,2.3-6.73,2.157-1.224-.069-2-1.36-3.3-1.024l.006.013c.171-.859-.256-1.784.571-2.578,1.836-1.763,3.769-3.271,6.419-3.52a14.247,14.247,0,0,0,4.1-1A5.462,5.462,0,0,1,42.82,14.648Z" fill="#98391e"/>
          <path d="M40.606,11.543a14.247,14.247,0,0,1-4.1,1c-2.65.249-4.583,1.757-6.419,3.52-.827.794-.4,1.719-.571,2.578l-1.006-.117-.014-.009a2.63,2.63,0,0,0,.021-.416,3.222,3.222,0,0,1-.01-.405c-1.339-2.647.368-4.576,1.56-6.627l.052-.029a.848.848,0,0,0,.954-.51c2.053-1.37,4.45-.659,6.657-1.1A7.484,7.484,0,0,1,40.606,11.543Z" fill="#a54828"/>
          <path d="M18.385,40.412l-1.276.1a12.841,12.841,0,0,1-5.819-5.269c0-.986-.049-1.973-.006-2.957.06-1.347-.168-2.843,1.5-3.518l.514.51c-.177,1.611,1.183,2.269,2.015,3.255.974,1.153,2.982,1.973,1.175,4a.783.783,0,0,0,.476,1.207C18.733,37.994,18.306,39.317,18.385,40.412Z" fill="#651e1b"/>
          <path d="M12.781,28.772c-1.665.674-1.437,2.17-1.5,3.517-.043.984,0,1.971.006,2.957-.926-.7-1.062-1.851-1.586-2.779q0-1.837.007-3.677.024-1.278.047-2.556l2.513,1.023,0,0Z" fill="#7d2d20"/>
          <path d="M28.512,35.378c-.521,1.835-1.737.053-2.528.485-1.513-.32-2.543,1.108-3.971,1.1a10.232,10.232,0,0,0,.211-1.718c-.092-2.208.5-4.521-.925-6.54.1-1.468,1.369-.633,2.014-1.027a1.045,1.045,0,0,1,.657,1c-.49.151-1.225.488-.881.936.959,1.253.845,2.636.884,4.034.014.51.08,1.1.756,1.059.847-.057.843-.8.653-1.326a2.524,2.524,0,0,1,.154-2.6l1.407,0c-1.175,2.09-.775,3.21,1.448,4.058Z" fill="#d2cac9"/>
          <path d="M18.385,40.412c-.079-1.095.348-2.418-1.424-2.671a.783.783,0,0,1-.476-1.207c1.807-2.025-.2-2.845-1.175-4-.832-.986-2.192-1.644-2.015-3.255,1.725.675,3.706.849,4.917,2.524.1,2.361,1.28,4.613.706,7.041.219.649.809.557,1.3.652C19.745,40.074,19.311,40.737,18.385,40.412Z" fill="#7d2d20"/>
          <path d="M28.512,35.378l-.12-.542q.055-2.019.112-4.036c.6-.054,1.813,1.339,1.558-.711a3.641,3.641,0,0,1,.6-2.884.74.74,0,0,1,.326.047,10.178,10.178,0,0,0-.1,4.893C31.192,33.523,30.956,35.527,28.512,35.378Z" fill="#6e221e"/>
          <path d="M30.991,27.252a.742.742,0,0,0-.327-.047c-.054-.31-.107-.621-.161-.931l-.12-1.729.059-.765-.335-.621-.163-2.081a1.347,1.347,0,0,1,1.376,1.257c-.093,1.737,1.307,3.231.718,5.007Z" fill="#460f15"/>
          <path d="M20.223,39.5c-.5-.095-1.086,0-1.3-.652,1.474.1,2.309-.842,3.082-1.887h.013c1.428.012,2.458-1.416,3.971-1.1C24.386,37.586,22.158,38.31,20.223,39.5Z" fill="#a0634c"/>
          <path d="M29.944,21.078l.162,2.081.336.621q-.03.383-.057.766c-2.124-.55-.914,2.11-2.24,2.328l-4.167-.046c-.032-1.25-.36-2.124-1.757-1.112a5.885,5.885,0,0,1-2.125.676c-2.2.609-2.185.583-1.091,2.339.129.206-.1.638-.168.965-2.664.464-4.318-1.79-6.568-2.442l0,0c.1-1.348-.314-2.689,1.872-3.162,2.415-.523,5.722.32,6.761-3.315.151-.528,1.124-.583,1.812-.657a15.535,15.535,0,0,0,2.939-.541c.887-.276,2.107-.484,1.443-1.97a.455.455,0,0,1-.023-.468,2.052,2.052,0,0,1,1.435.554,3.222,3.222,0,0,0,.01.405c-.058.041-.171.1-.165.121a1.709,1.709,0,0,0,.144.295l.014.009A3.378,3.378,0,0,0,29.944,21.078Z" fill="#98391e"/>
          <path d="M27.1,17.612c.664,1.486-.556,1.694-1.443,1.97a15.535,15.535,0,0,1-2.939.541c-.688.074-1.661.129-1.812.657-1.039,3.635-4.346,2.792-6.761,3.315-2.186.473-1.77,1.814-1.872,3.162L9.758,26.234c-.144,0-.289-.012-.433-.027l-.053-1.5c.369-.3,1.489.615,1.2-.394-.641-2.2.831-3.349,1.983-4.574a35.769,35.769,0,0,1,3.88-3.171.27.27,0,0,1,.32-.129l.728-.175,1.008-.024c1.509.673,3.07.334,4.619.237l.014,0c.457.852,1.244.583,1.954.576C25.874,16.507,25.986,18.983,27.1,17.612Z" fill="#a34121"/>
          <path d="M16.331,16.572a35.769,35.769,0,0,0-3.88,3.171c-1.152,1.225-2.624,2.374-1.983,4.574.293,1.009-.827.1-1.2.394C9.045,20.537,11.806,17.354,16.331,16.572Z" fill="#be6845"/>
          <path d="M28.51,17.7a2.052,2.052,0,0,0-1.435-.554c-.277-2.653.3-4.885,3-6.073C28.878,13.122,27.171,15.051,28.51,17.7Z" fill="#be6845"/>
          <path d="M23.006,16.481c-1.549.1-3.11.436-4.619-.237C19.939,16.081,21.5,15.778,23.006,16.481Z" fill="#be6845"/>
          <path d="M9.325,26.207c.144.015.289.024.433.027q-.022,1.278-.047,2.556A4.49,4.49,0,0,1,9.325,26.207Z" fill="#be6845"/>
          <path d="M24.974,17.06c-.71.007-1.5.276-1.954-.576C23.7,16.587,24.457,16.412,24.974,17.06Z" fill="#be6845"/>
          <path d="M31.076,10.532a.848.848,0,0,1-.954.51A.877.877,0,0,1,31.076,10.532Z" fill="#be6845"/>
          <path d="M17.379,16.268l-.728.175Z" fill="#be6845"/>
          <path d="M29.513,18.632c1.3-.336,2.077.955,3.3,1.024,2.548.141,4.977.139,6.73-2.157a1.972,1.972,0,0,1,1.724-.9c-.046.32-.093.641-.139.962l-1.493,1.548a.97.97,0,0,0-.944.55h0a.963.963,0,0,0-1,.519l-.07.95,0-.017c-2-.263-4.061.112-6-.852A4.422,4.422,0,0,1,29.513,18.632Z" fill="#a54828"/>
          <path d="M38.645,21.691c.1,1.649-1.038,1.942-2.278,1.974-1.4.035-3.021.365-3.669-1.708,1.776-.085,3.437.793,4.966-.266Z" fill="#7d2d20"/>
          <path d="M38.645,21.691h-.981c-.017-.193-.033-.386-.05-.58l0,.017q.271-.236.541-.473a1.014,1.014,0,0,0,.534-1h0c.545.213,1.036.332.944-.55l1.493-1.548c.636.11,1.187.252.735,1.11A8.072,8.072,0,0,1,38.645,21.691Z" fill="#651e1b"/>
          <path d="M41.737,16.171c-.018-.478.054-.908.584-1.093A1.3,1.3,0,0,1,41.737,16.171Z" fill="#a54828"/>
          <path d="M28.5,18.519a1.709,1.709,0,0,1-.144-.295c-.006-.023.107-.08.165-.121A2.63,2.63,0,0,1,28.5,18.519Z" fill="#a34121"/>
          <path d="M12.269,27.254c2.25.652,3.9,2.906,6.568,2.442l.061.1a2.522,2.522,0,0,0-.686,2.007C17,30.13,15.02,29.956,13.3,29.281l-.514-.51Q12.525,28.013,12.269,27.254Z" fill="#a54828"/>
          <path d="M18.837,29.7c.065-.327.3-.759.168-.965C17.911,26.975,17.9,27,20.1,26.392a5.885,5.885,0,0,0,2.125-.676c1.4-1.012,1.725-.138,1.757,1.112l-.665.846c-.645.394-1.917-.441-2.014,1.027-.455.095-1.14-.065-.9.807v.01l-.571.064L18.9,29.8Z" fill="#a34121"/>
          <path d="M20.4,29.508c-.238-.872.447-.712.9-.807,1.43,2.019.833,4.332.925,6.54a10.232,10.232,0,0,1-.211,1.718H22c-.516-.122-.989-.318-1.046-.929-.2-2.181-1.232-4.215-1.129-6.448l.571-.064c.027.243.055.485.082.727l.274-.107Z" fill="#eceaea"/>
          <path d="M23.313,27.674l.665-.846,4.168.045q.243,1.455.483,2.912l-.191-.018C27,29.7,28.024,28.017,27,27.572c-1.131,1.087.29,2.175-.06,3.206l-1.408,0c-.516-.078-1.079-.162-.807-.894.29-.782-.06-1.084-.758-1.206A1.045,1.045,0,0,0,23.313,27.674Z" fill="#d3c5c1"/>
          <path d="M26.943,30.778c.35-1.031-1.071-2.119.06-3.206,1.021.445,0,2.131,1.435,2.2a.753.753,0,0,1,.076.482l-.358.367.357.191L28.5,30.8q-.057,2.018-.112,4.036C26.168,33.988,25.768,32.868,26.943,30.778Z" fill="#eceaea"/>
          <path d="M23.97,28.675c.7.122,1.048.424.758,1.206-.272.732.291.816.807.894a2.526,2.526,0,0,0-.153,2.6c.19.527.194,1.269-.653,1.326-.676.046-.742-.549-.756-1.059-.039-1.4.075-2.781-.884-4.034C22.745,29.163,23.48,28.826,23.97,28.675Z" fill="#eceaea"/>
          <path d="M19.825,29.582c-.1,2.233.927,4.267,1.129,6.448.057.611.53.807,1.046.929-.773,1.045-1.608,1.987-3.082,1.887.574-2.428-.609-4.68-.706-7.041A2.522,2.522,0,0,1,18.9,29.8Z" fill="#d2cac9"/>
          <path d="M28.514,30.249a.753.753,0,0,0-.076-.482l.191.018c.7-1.13.368-2.811,1.874-3.511.054.31.107.621.161.931a3.645,3.645,0,0,0-.6,2.884c.255,2.05-.961.657-1.558.711l.01.007Z" fill="#7d2d20"/>
          <path d="M30.5,26.274c-1.506.7-1.173,2.381-1.874,3.511q-.242-1.457-.483-2.912c1.325-.217.115-2.877,2.239-2.327Q30.442,25.408,30.5,26.274Z" fill="#651e1b"/>
          <path d="M30.442,23.78l-.336-.621C30.219,23.366,30.33,23.573,30.442,23.78Z" fill="#651e1b"/>
          <path d="M38.693,19.659a1.014,1.014,0,0,1-.534,1l-.471-.477A.963.963,0,0,1,38.693,19.659Z" fill="#98391e"/>
          <path d="M39.636,19.109c.092.882-.4.763-.944.55A.97.97,0,0,1,39.636,19.109Z" fill="#98391e"/>
          <path d="M37.688,20.178l.471.477q-.27.237-.541.473C37.641,20.811,37.664,20.5,37.688,20.178Z" fill="#6e221e"/>
          <path d="M20.4,29.508l.355.63-.274.107c-.027-.242-.055-.484-.082-.727Z" fill="#d2cac9"/>
          <path d="M28.514,30.249v.558l-.358-.191Z" fill="#6e221e"/>
        </g>
        <circle cx="24.194" cy="24.194" r="22.194" fill="none" stroke="#6bafaf" stroke-miterlimit="10" stroke-width="4"/>
      </g>
    </g>
  </g>
</svg>
