<svg xmlns="http://www.w3.org/2000/svg" width="51.055mm" height="30.858mm" viewBox="0 0 144.721 87.472">
  <title>Gomitas_Logo</title>
  <g id="42bfa55e-b36a-47f0-88ea-a65533ff0fe6" data-name="Capa 2">
    <g id="caffbc72-0f6d-499d-8fad-38ff5ac8fc51" data-name="Capa 3">
      <g>
        <path d="M22.906,37.935c-2.078,2.143-3.962,3.661-6.48,4.269A7.7,7.7,0,0,1,7.18,37.829c-3.054-6.706.487-17.872,6.845-21.54a8.774,8.774,0,0,1,7.73-.77c1.148.426,1.492.237,1.487-.991a8.3,8.3,0,0,1,.43-2.69,1.978,1.978,0,0,1,2.335-1.35,2,2,0,0,1,1.879,1.931c.023.26.03.523.03.784-.022,10.4.081,20.811-.121,31.212-.11,5.607-.429,11.293-3.143,16.412C21.7,66.4,17.188,70.008,10.835,71.008A9.187,9.187,0,0,1,.043,62.3Q-.635,51.616,9.371,46.752a25.259,25.259,0,0,1,11.915-2.729c1.341.039,1.713-.421,1.637-1.662C22.845,41.06,22.906,39.75,22.906,37.935ZM4.8,61.812c.018,3.313,2.852,5.4,7.006,4.089a12.757,12.757,0,0,0,4.447-2.395c4.159-3.5,5.818-8.2,6.562-13.369.151-1.051-.291-1.355-1.3-1.377A20.067,20.067,0,0,0,9.5,52.2C6.523,54.229,4.832,57.069,4.8,61.812Zm6.213-29.648c0,.391-.02.784,0,1.174.1,1.69.479,3.309,2.158,4.09,1.617.752,3.05-.056,4.367-.952a6.682,6.682,0,0,0,2.219-2.916,42.457,42.457,0,0,0,3.019-10.673,2.349,2.349,0,0,0-1.714-2.862c-2.463-.978-5.492.07-7.289,2.719A17.1,17.1,0,0,0,11.009,32.164Z" fill="#5ba9a9"/>
        <path d="M51.5,14.257c5.7-4.826,10.417-4.647,16.7.637,2.163,1.82,2.145,1.81,3.5-.59C74.566,9.216,78.7,5.79,84.539,4.644a7.507,7.507,0,0,1,7.932,3.319,26.854,26.854,0,0,1-3.112.268c-2.007-.052-2.655,1.022-2.582,2.815a5.47,5.47,0,0,0-6.707-.23c-2.269,1.385-3.349,3.607-4.187,5.965a41.153,41.153,0,0,0-1.626,7.24,5.487,5.487,0,0,1-4,3.855c-1.965.21-2.056-1.524-2.583-2.675a16.741,16.741,0,0,0-8.4-8.667c-3.3-1.5-4.073-.936-3.966,2.626a10.513,10.513,0,0,0,.646,3.246c1.7,4.768,5.566,7.05,10,8.652,3.2,1.156,6.452,2.191,8.923,4.7.732.743,1.1.2,1.538-.327,1.638-1.949,3.319-3.863,4.931-5.833,2.482-3.031,5.029-6.03,6.2-9.887,2.158.5,3.315-.061,3.54-1.72a3.113,3.113,0,0,0-2.989-3.481l-.508-2.21a48.663,48.663,0,0,0,6.53.407A16.977,16.977,0,0,1,91.468,23c-2.6-1.282-4.118-.362-4.167,2.543-.019,1.163-.007,2.326-.01,3.489-1.865,2.183-3.762,4.34-5.588,6.556a20.9,20.9,0,0,0-3.8,6.582,5.1,5.1,0,0,1-2.858,3.053c-2,.941-2.683.5-3.161-1.636-.656-2.936-2.809-4.631-5.42-5.755-2.4-1.031-4.872-1.869-7.274-2.885a15.475,15.475,0,0,1-5.578-3.9C54.8,25.213,54.392,19.578,51.5,14.257Z" fill="#d080af"/>
        <path d="M51.5,14.257c2.894,5.321,3.3,10.956,2.115,16.79-1.66,5.962-5.147,10.056-11.527,11.066A10.105,10.105,0,0,1,30.68,34.02,15.033,15.033,0,0,1,30.548,28a7.292,7.292,0,0,0-.363-4.224c-2.191-5.481-.908-10.434,3.453-13.592a11.618,11.618,0,0,1,14.793.8A40.519,40.519,0,0,1,51.5,14.257ZM39.236,12.876c1.726,2.3,1.7,2.634-.175,4.661a12.51,12.51,0,0,0-2.492,3.956c-.89,2.276-.506,3.229,1.787,4.077a26.766,26.766,0,0,0,5.123,1.253c1.9.3,2.94,1.653,2.415,3.068-.449,1.213-1.518,1.492-2.685,1.6-2.524.234-4.7-.916-6.974-1.7-.633-.218-1.086-.458-1.144.563-.15,2.643,1.483,5.717,3.648,6.714a6.349,6.349,0,0,0,6.835-1.605c5.378-5.183,5.123-16.248-.508-21.125A6.3,6.3,0,0,0,39.236,12.876Z" fill="#5ba9a9"/>
        <path d="M140.316,25.871c5.191,2.942,5.814,7.421,1.765,11.8a14.8,14.8,0,0,1-11.371,4.814,5.3,5.3,0,0,1-2.287-.473,2.314,2.314,0,0,1-1.476-2.693,2.2,2.2,0,0,1,2.255-1.813c1.108-.069,2.226-.006,3.333-.09a9.08,9.08,0,0,0,6.535-3.51c.536-.656,1.13-1.45.684-2.313s-1.444-.817-2.269-.729q-2.723.291-5.426.761c-2.594.447-5.209.679-7.072-1.59-1.877-2.285-1.2-4.9-.067-7.225,2.622-5.376,6.358-9.614,12.631-10.678,4.273-.725,7.333,2.676,6.468,6.963C143.485,21.742,141.845,23.771,140.316,25.871Zm-10.04,1.2c1.695-.241,3.5-.5,5.314-.751.547-.074.86-.314.709-.9-.378-1.465.43-2.493,1.249-3.539A9.024,9.024,0,0,0,139.3,18.4c.373-1.576-.28-2.25-1.763-1.612a14.711,14.711,0,0,0-8.487,8.715C128.658,26.592,128.941,27.151,130.276,27.067Z" fill="#5ba9a9"/>
        <path d="M116.7,36.073c-1.078.924-2.143,1.75-3.107,2.682a13.413,13.413,0,0,1-5.4,3.43c-3.1.947-5.631-.338-6.609-3.436-1.752-5.55,2.152-16.738,10.226-18.375a8.95,8.95,0,0,1,8.513,2.469c2.5,2.266,2.435,4.456,1.929,7.153a110.337,110.337,0,0,0-1.175,13.462,9.234,9.234,0,0,1-.221,1.939,2.209,2.209,0,0,1-2.605,1.83,2.124,2.124,0,0,1-1.93-2.32,41.259,41.259,0,0,1,.218-6.266C116.644,37.768,116.649,36.881,116.7,36.073Zm-10.868-.616c.13.715-.065,1.6.581,2.007.811.513,1.486-.229,2.064-.68,3.5-2.725,5.9-6.387,8.343-10,.6-.891.066-1.319-.659-1.633a5.071,5.071,0,0,0-5.33.735C107.629,28.271,106.383,31.7,105.828,35.457Z" fill="#5ba9a9"/>
        <path d="M86.777,11.046c-.073-1.793.575-2.867,2.582-2.815a26.854,26.854,0,0,0,3.112-.268c2.681.125,2.687.125,2.7-2.518a13.192,13.192,0,0,1,.3-3.7,2.218,2.218,0,0,1,2.5-1.736A1.9,1.9,0,0,1,99.81,2.139a31.507,31.507,0,0,1-.02,4.112c-.187,1.63.554,2.074,1.988,2.056a12.724,12.724,0,0,1,3.495.323,2.246,2.246,0,0,1,1.973,2.487c-.079,1.544-1.157,1.92-2.438,1.944a26.01,26.01,0,0,1-3.522-.089c-1.276-.152-1.537.364-1.511,1.531.185,8.232-.347,16.465.022,24.7.082,1.825.265,3.645.375,5.47.092,1.531-.593,2.632-2.141,2.746s-2.338-.858-2.564-2.379a62.376,62.376,0,0,1-.573-11.126c.2-6.66.149-13.328.192-19.993,0-.634.115-1.416-.969-1.208a48.667,48.667,0,0,1-6.531-.407Q87.182,11.674,86.777,11.046Z" fill="#5ba9a9"/>
        <path d="M102.455,64.881a11.161,11.161,0,0,1-2.648,2.584c-3.687,2.3-7.587.6-8.258-3.681a13.311,13.311,0,0,1,2.458-10.017,6.536,6.536,0,0,1,7.388-2.633c.836.227,1.36.379,1.309-.783a6.648,6.648,0,0,1,.229-1.55,1.12,1.12,0,0,1,1.208-1.038,1.185,1.185,0,0,1,1.135,1.15,1.413,1.413,0,0,1,.012.2c-.2,9.343.708,18.728-.853,28.018a12.812,12.812,0,0,1-6.016,8.817c-3.125,2.023-6.849,2.042-9.142.028-2.174-1.909-2.74-5.942-1.125-9.106,1.978-3.874,5.511-5.58,9.54-6.5.382-.087.793-.067,1.159-.191,1.173-.4,3.007.432,3.469-.555C102.888,68.4,102.455,66.72,102.455,64.881ZM89.968,80.909c.022,3.272,2.055,4.722,5.171,3.646a8.622,8.622,0,0,0,2.095-1.016c3.424-2.377,4.683-5.938,5.273-9.847.128-.852-.371-.931-1.04-.963A13.153,13.153,0,0,0,93.148,75,6.548,6.548,0,0,0,89.968,80.909Zm3.96-19.023c.217,1.42.073,3.2,2.077,3.837,1.438.46,3.285-.626,4.206-2.427.147-.288.26-.594.391-.891a24.616,24.616,0,0,0,1.7-5.975c.364-2.229-.995-3.563-3.241-3.093a5.023,5.023,0,0,0-3.476,2.613A14.4,14.4,0,0,0,93.928,61.886Z" fill="#339d92"/>
        <path d="M75.054,62.932c2.4-3.336,4.06-6.978,6.522-10.126,1.331-1.7,2.7-3.373,4.859-4.127,1.853-.648,2.867-.154,3.356,1.756a12.9,12.9,0,0,1,.1,4.684,96.7,96.7,0,0,0-.7,13.109c.023,1.026-.01,2.161-1.34,2.189-1.54.033-1.438-1.251-1.379-2.292.286-5.024.608-10.047.92-15.07.031-.5.383-1.13-.119-1.461-.6-.4-1.131.168-1.543.528a23.676,23.676,0,0,0-4.8,6.405c-1.546,2.723-2.949,5.527-4.437,8.283-.5.931-1.063,1.955-2.352,1.664s-1.406-1.513-1.424-2.516c-.077-4.25-.041-8.5-.056-12.754,0-.815.268-1.523,1.143-1.516.985.008,1.239.806,1.239,1.671Q75.058,58.146,75.054,62.932Z" fill="#339d92"/>
        <path d="M112.706,68.436c-1.605-.1-2.789-1.246-3.675-2.786-2.541-4.421-1.387-12.9,2.233-16.516,2.78-2.777,5.763-2.31,7.609,1.169a20.583,20.583,0,0,1,1.556,5.637c.342,1.634-1.26,1.6-2.247,1.773-2.117.376-4.26.64-6.4.813-1.239.1-1.5.656-1.424,1.776a8.86,8.86,0,0,0,1.119,4.3c.878,1.37,1.9,1.472,3.045.336a10.009,10.009,0,0,0,1.91-2.94c.35-.748.956-1.34,1.883-.883s.758,1.188.437,2.01C117.586,66.108,115.111,68.433,112.706,68.436Zm-.69-12.59c1.58-.178,3-.327,4.416-.5.783-.1,1.177-.5.918-1.332a17.539,17.539,0,0,0-.812-2.591c-.791-1.606-1.956-1.787-3.282-.6a8.59,8.59,0,0,0-2.1,3.682C110.762,55.581,110.834,56.154,112.016,55.846Z" fill="#339d92"/>
        <path d="M67.978,63.153c-.88.943-1.493,1.589-2.094,2.245a10.358,10.358,0,0,1-3.577,2.679c-2.418,1.018-4.1.077-4.588-2.5-1.07-5.7,3.42-11.553,8.693-11.323A4.747,4.747,0,0,1,71.1,59.5a81.234,81.234,0,0,0-.845,9.935c-.01.924-.072,2.158-1.474,2.11-1.5-.052-1.2-1.322-1.174-2.228C67.657,67.4,67.829,65.478,67.978,63.153Zm-7.892.568c.092.932-.125,1.714.631,2.021.6.244,1.122-.223,1.575-.578a24.649,24.649,0,0,0,5.061-5.9c.34-.5,1.128-1.034.755-1.649a2.469,2.469,0,0,0-2.229-.979,3.806,3.806,0,0,0-2,.664C61.373,58.847,60.571,61.334,60.086,63.721Z" fill="#339d92"/>
        <path d="M122.058,56.333q.3-9.2.6-18.4c.017-.522-.017-1.05.049-1.566.089-.692.4-1.29,1.189-1.328.72-.034.951.531,1.163,1.115a7.222,7.222,0,0,1,.246,2.715c-.221,8.224-.846,16.436-.758,24.67.016,1.532-.307,3.257,2.213,1.945.715-.372,1.257.174,1.56.8.389.795,0,1.369-.673,1.807a3.648,3.648,0,0,1-5.723-2.552,11.154,11.154,0,0,1-.087-1.368c-.007-2.612,0-5.224,0-7.836Z" fill="#339d92"/>
        <path d="M87.291,29.031c0-1.163-.009-2.326.01-3.489.049-2.905,1.563-3.825,4.167-2.543a8.013,8.013,0,0,1,.67,3.823c.114,4.312.134,8.628.176,12.942.015,1.533-.2,2.983-2.136,3.146-1.458.122-2.428-1.1-2.542-3.109C87.431,36.214,87.8,32.609,87.291,29.031Z" fill="#5ba9a9"/>
        <path d="M63.658,53.882c-.83-.315-1.405-.846-.908-1.876a23.721,23.721,0,0,1,3.022-4.974c.556-.668,1.3-1.036,2.042-.469.838.641.366,1.383-.149,2.023a25.666,25.666,0,0,0-2.475,4.172C64.889,53.324,64.54,53.909,63.658,53.882Z" fill="#339d92"/>
        <path d="M87.543,19.715c-1.775-2.38-1.614-3.9.551-5.2A3.113,3.113,0,0,1,91.083,18C90.858,19.654,89.7,20.216,87.543,19.715Z" fill="#5ba9a9"/>
      </g>
    </g>
  </g>
</svg>
