<svg xmlns="http://www.w3.org/2000/svg" width="17.07mm" height="17.07mm" viewBox="0 0 48.387 48.387">
  <title>Recurso 62</title>
  <g id="3f3ee011-0121-43c6-acd9-5efc19fec70a" data-name="Capa 2">
    <g id="e143cabe-4235-4172-a47f-416d99a0f902" data-name="Capa 2">
      <g>
        <g>
          <path d="M19.638,10.832c.447-.088.7-.459,1.008-.732a15.129,15.129,0,0,1,3.727-2.346c.25-.117.49-.255.739-.376a3.5,3.5,0,0,1,3.3.2,6.993,6.993,0,0,1,.729,3.79l-.039.122c-.26.033-.2.355-.394.443a1.114,1.114,0,0,1-.683-.167c-.506-.3-.614-.238-.679.322a1.24,1.24,0,0,1-.226.776c-.259.25-.177.489-.115.755-.1.016-.143.086-.208.152-.312.315-.064.835-.29,1.061a.934.934,0,0,0-.229.933c-.2.22-.451.389-.649.6-.438.465-1.088.7-1.391,1.3a12.312,12.312,0,0,1-2.074-.576c-.431-.125-.939-.638-.851-1.031.164-.731-.221-1.222-.507-1.825a12.765,12.765,0,0,0-1.672-2.382A1.115,1.115,0,0,0,19.638,10.832Z" fill="#b0d1d2"/>
          <path d="M24.235,17.667c.3-.6.953-.839,1.391-1.3.2-.209.45-.378.648-.6.249-.032.538.024.66-.294a4.056,4.056,0,0,0,1.962-.633l.59.1.317-.014.672.136,1.365.226c.214.244.5.081.753.143a.094.094,0,0,0,.085.031c.112.184.172.433.475.378a1.3,1.3,0,0,1,.619.426,1.613,1.613,0,0,0,.947.589c.056.285.3.318.517.374.064.435.369.6.755.67a12.788,12.788,0,0,0,.84,1.413c.215.257.51.448.69.7.431.6,1.175.876,1.512,1.551-.254.094-.484.2-.376.548-.442.019-.457.544-.8.676-.27-.609-.411-.228-.562.074-.259-.038-.575-.272-.686.2a.231.231,0,0,0-.292,0c-.076-.184-.177-.36-.395-.181a.421.421,0,0,1-.5.038c.016-.34.224-.757-.363-.848-.1-.015-.118-.141-.078-.233.168-.385-.1-.45-.37-.5a1.245,1.245,0,0,1-.619-.341c-.454-.409-.779-.364-1.12.151-.078.117-.108.352-.285.248-.358-.212-.661-.335-.916.118-.008.014-.07,0-.106,0a1.551,1.551,0,0,0-1.278,1.152c-.21-.168-.221-.528-.557-.574l-.007-.011a2.8,2.8,0,0,0-1.467-1.847,1.447,1.447,0,0,1-.542-.441c-.54-.676-1.389-.9-2.046-1.4a.221.221,0,0,0-.339.057.3.3,0,0,0-.1-.022C24.979,18.063,24.564,17.922,24.235,17.667Z" fill="#ece17c"/>
          <path d="M3.021,26.123a16.847,16.847,0,0,1,2.31-9.849.827.827,0,0,0,.552.148c.208.677.479.871.687.536.32-.515.993-.777,1.04-1.486a.4.4,0,0,1,.338-.392.343.343,0,0,1,.409.279c.129.385.351.244.532.051a1.386,1.386,0,0,0,.245-.426c.06-.144.178-.338-.059-.42a.294.294,0,0,0-.38.225c-.026.074.017.2-.136.188-.3-.246-.3-.616,0-.728.434-.166.342-.451.356-.746.185-.018.329-.084.309-.3,0-.036-.077-.1-.106-.093-.223.047-.2.233-.2.4-.158-.017-.388.027-.253-.262a3.137,3.137,0,0,1,.295-.533.311.311,0,0,1,.451-.047c.18.172.522.066.6.337.047.177-.127.309-.286.367-.193.07-.309.18-.2.366s.295.1.448.031.391-.024.337-.327c-.083-.468.124-.661.623-.618.142.012.32.064.283-.194-.069-.472.319-.553.615-.7.274-.136.536-.168.7.177a.23.23,0,0,0,.33.107.186.186,0,0,1,.262.133c.041.132-.055.2-.162.252s-.248.039-.175.207a.227.227,0,0,0,.283.119c.089-.02.181-.082.264-.071.265.034.393.263.545.444.07.083.025.183-.094.2-.219.031-.337.122-.144.311.142.139-.029.586.408.426.162-.06.281-.056.375.111s.04.285-.057.449-.287.252-.37.436c.53.122.527.121.336.567a1.047,1.047,0,0,0-.035.273c-.023.782-.13.879-.782.707-.393-.083-.872.1-1.135-.4a.173.173,0,0,0-.312.054c-.118.365-.268.54-.6.182a.194.194,0,0,0-.148-.045,10.4,10.4,0,0,0-2.089.785c-.07.026-.164.156-.151.217.081.377-.147.407-.424.442a.3.3,0,0,0-.29.289c-.008.247.192.232.344.28.054.18-.081.323-.093.49a1.847,1.847,0,0,1-1.014.822,1.242,1.242,0,0,0-.889-.3c.117.242.344.306.5.448s.363.416.153.494c-.487.18-.355.818-.864.954.447.012.719.139.643.623-.011.072.106.157.111.239.023.409.472.712.393,1.078a1.426,1.426,0,0,1-.691,1.121c-.124.058-.323.135-.181.32.26.339.019.474-.225.576a.308.308,0,0,0-.2.346l-.139.225c-.365.127.016.368-.081.535-.14.03-.294.022-.337.22-.182.844-.853,1.555-.682,2.5-.174-.076-.42.222-.523-.05a.542.542,0,0,1,.087-.613.713.713,0,0,0,.154-.151c.06-.111-.059-.217-.106-.172-.244.237-.6,0-.834.214-.036-.005-.072-.009-.108-.011-.036-.1-.127-.228-.1-.3.218-.536-.114-.7-.525-.828L3.1,26.8c.315.035.613-.1.628-.388.02-.391-.365-.242-.6-.286A.8.8,0,0,0,3.021,26.123Zm2.2-.664a.29.29,0,0,1-.127.23c-.14.1-.3.236-.116.383a.368.368,0,0,0,.481-.119.325.325,0,0,0-.24-.492c-.024-.306-.3-.421-.479-.653.05.356-.043.591-.395.667a.3.3,0,0,0-.242.321c-.111.017-.221.043-.2.19.006.034.08.092.1.083.129-.051.081-.176.1-.275C4.521,25.83,4.8,25.419,5.223,25.459Zm-.345-6.416c.786.084,1.325-.452,2.026-.742-.508-.083-.772-.2-.283-.614.106-.091-.018-.324-.135-.234-.18.139-.751.06-.425.595.084.138.206.428-.162.423C5.437,18.464,5.2,18.816,4.878,19.043Zm4.749-4.834c-.151.575.267.9.422,1.31a.147.147,0,0,0,.233.056.149.149,0,0,0,.011-.24c-.108-.107-.159-.2-.02-.318.309-.271.3-.263-.114-.45A3.969,3.969,0,0,1,9.627,14.209ZM5.8,22.384c-.2-.336-.29-.24-.537-.055-.19.141-.516.2-.315.441.186.22.568.274.864.4.019-.049.068-.113.052-.142C5.75,22.816,5.147,22.686,5.8,22.384Zm.733,1.149c.221-.27.553-.421.575-.806.007-.115,0-.224-.142-.261-.094-.025-.232-.016-.24.067C6.7,22.862,6.3,23.113,6.535,23.533Zm1.476-4.876c-.027-.155-.03-.406-.274-.429-.214-.02-.2.238-.234.375a.283.283,0,0,0,.251.355C7.94,18.983,8.02,18.878,8.011,18.657Zm3.675-5.21c.2.335.513.364.757.492a.171.171,0,0,0,.249-.142c.011-.118-.062-.265-.176-.22C12.231,13.689,12.037,13.415,11.686,13.447ZM3.8,24.852c-.075-.241.171-.552-.172-.712a.185.185,0,0,0-.272.106C3.259,24.613,3.661,24.632,3.8,24.852Zm2.868-.6c.01-.217-.153-.282-.313-.329a.167.167,0,0,0-.229.167.3.3,0,0,0,.268.355C6.536,24.465,6.654,24.428,6.667,24.251ZM4.685,20.007a.236.236,0,0,0-.219.267c.023.176.179.155.307.151s.22-.062.194-.2A.248.248,0,0,0,4.685,20.007Zm-.853,7.309c.1-.077.233-.152.25-.315.011-.1-.038-.191-.155-.142a.374.374,0,0,0-.251.327C3.672,27.268,3.725,27.316,3.832,27.316ZM7.919,15.794c.016.145.12.17.236.161.1-.008.184-.053.145-.172-.033-.1-.058-.23-.2-.219S7.928,15.676,7.919,15.794Z" fill="#d99466"/>
          <path d="M37.855,22.782c.345-.132.36-.657.8-.676A13.676,13.676,0,0,0,39.811,23.2c.22.186.608.262.663.544.105.541.328.34.585.163a5.317,5.317,0,0,1,.123,2.085,13.049,13.049,0,0,1-.49,3.33c-.249-.06-.42-.42-.723-.231-.222.14.036.322.022.488-.189.031-.339.179-.3.327.074.267.341.084.516.136l.233.223a17.113,17.113,0,0,1-3.02,5.826,3.549,3.549,0,0,1-2.467,1.11c-.173-.431-.489-.152-.751-.158-.2,0-.382.311-.6.036.091-.406.417-.425.737-.435.238-.007.42-.028.5-.321a1.244,1.244,0,0,1,1.18-.911c.14,0,.3.052.416-.079-.2-.351-.193-.351-.189-.967,0-.121-.119-.27.064-.326.154-.048.26.109.272.216.038.349.406.375.582.5.369.264.292-.321.5-.455.073-.048.11-.152.183-.2.426-.307.186-.666.05-.98-.151-.347-.408-.513-.784-.226-.127.1-.3.095-.353-.105-.043-.147.019-.246.183-.28a1.6,1.6,0,0,0,.313-.105c.119-.052.2-.208.111-.262a8.275,8.275,0,0,0-.977-.516c-.085-.039-.185.044-.188.151a.392.392,0,0,0,.071.2c.091.145.215.3-.035.394-.18.066-.259-.062-.307-.226-.257-.866-1.033-1.021-1.745-1.249-.651-.21-1.44-.121-1.826-.889-.03-.059-.2-.046-.311-.067.124-.3.073-.671.331-.928.347.024.794-.082,1.02.095.6.473.958.165,1.462-.156.331-.211.548-.712,1.069-.591.287.188.495.572.92.082.237-.273.046-1.048.809-.807.061.02.1-.151.077-.237-.121-.536-.3-1.085.641-.84.174.045.344-.2.431-.384.034-.073-.043-.113-.117-.148-.782-.365-.843-.532-.53-1.408.071-.2-.048-.513.353-.5.254.009.408-.145.256-.393s-.079-.756-.552-.6C37.776,23.265,37.845,23.033,37.855,22.782Z" fill="#a9c9a3"/>
          <path d="M8.91,13.5c-.014.295.078.58-.356.746-.292.112-.3.482,0,.728.153.009.11-.114.136-.188a.294.294,0,0,1,.38-.225c.237.082.119.276.059.42a1.386,1.386,0,0,1-.245.426c-.181.193-.4.334-.532-.051a.343.343,0,0,0-.409-.279.4.4,0,0,0-.338.392c-.047.709-.72.971-1.04,1.486-.208.335-.479.141-.687-.536a.72.72,0,0,0,.449-.29c.088-.092.368-.015.268-.247-.072-.168-.164-.38-.424-.365-.128.007-.256,0-.384,0a5.7,5.7,0,0,1,.888-1.439,11.968,11.968,0,0,1,3.026-3.05c.467.07.872-.346,1.342-.186a4.831,4.831,0,0,0,1.2.084c.272.024.366-.111.336-.364l.231-.013a.85.85,0,0,0,1.033.542c.429-.217.923-.193,1.337-.432.3-.058.493.227.768.256.269.194.293,0,.313-.2l.251.005c.07.451.4.3.669.287.153.046.306.091.458.138-.053.4-.043.734.525.586a.312.312,0,0,1,.387.237c.061.246-.181.136-.287.194-.359.2-.788.3-1.1.481a1.748,1.748,0,0,0-1,1.291,5.881,5.881,0,0,0-1.238,1.58c-.343.076-.161.353-.207.543l-.116.017-.322-.016a1.047,1.047,0,0,1,.035-.273c.191-.446.194-.445-.336-.567.083-.184.272-.271.37-.436s.154-.276.057-.449-.213-.171-.375-.111c-.437.16-.266-.287-.408-.426-.193-.189-.075-.28.144-.311.119-.017.164-.117.094-.2-.152-.181-.28-.41-.545-.444-.083-.011-.175.051-.264.071a.227.227,0,0,1-.283-.119c-.073-.168.082-.164.175-.207s.2-.12.162-.252a.186.186,0,0,0-.262-.133.23.23,0,0,1-.33-.107c-.167-.345-.429-.313-.7-.177-.3.146-.684.227-.615.7.037.258-.141.206-.283.194-.5-.043-.706.15-.623.618.054.3-.188.261-.337.327s-.339.154-.448-.031.007-.3.2-.366c.159-.058.333-.19.286-.367-.073-.271-.415-.165-.6-.337a.311.311,0,0,0-.451.047,3.137,3.137,0,0,0-.295.533c-.135.289.095.245.253.262Zm6.7-.784c-.2.155.473.652-.238.612-.008,0-.044.111-.024.134a.271.271,0,0,0,.171.108.8.8,0,0,0,.709-.52c.093-.307-.31-.243-.5-.329a.355.355,0,0,0-.109-.011c.046-.425-.557-.678-.281-1.185-.223.206-.456.356-.513.645a.515.515,0,0,0-.11-.006c-.236.039-.538-.264-.668-.05-.171.283.314.265.384.488a.992.992,0,0,0,.128.3.615.615,0,0,0,.587.222c.218-.03.109-.273.15-.42Z" fill="#dea380"/>
          <path d="M16.169,13.94a1.748,1.748,0,0,1,1-1.29c.316-.178.745-.286,1.1-.481.106-.058.348.052.287-.194a.312.312,0,0,0-.387-.237c-.568.148-.578-.187-.525-.586l.41.007c.48.043.615.618,1.073.694A12.765,12.765,0,0,1,20.8,14.235c.286.6.671,1.094.507,1.825-.088.393.42.906.851,1.031a12.312,12.312,0,0,0,2.074.576c.329.255.744.4.992.757-.406.106-.745-.21-1.153-.2-.092,0-.272-.307-.526-.136-.056-.28-.267-.323-.5-.321a.133.133,0,0,0-.143.137.521.521,0,0,0,.11.3c.215.2.331-.181.535-.118a.626.626,0,0,1-.6.617c-.293,0-.382-.3-.4-.581-.015-.183.093-.444-.229-.476-.086-.009-.235.007-.255.054-.119.277.191.353.289.533-.65.291-.985.191-1.256-.367l.045-.051-.051.044c-.217.007-.232.156-.224.32h-.2a3.512,3.512,0,0,1,.034-.662c.051-.3-.04-.548-.424-.334a.228.228,0,0,1-.325-.038.7.7,0,0,0-1.031.043.369.369,0,0,1-.456.089c-.359-.113-.712-.466-1.2-.154.143-.267.438-.589-.149-.427a.117.117,0,0,1-.135-.137c.063-.429-.229-.526-.549-.607-.138-.035-.243-.123-.223-.275.024-.175.18-.162.307-.16a2.651,2.651,0,0,1,.5.033c.143.028.264.066.276-.136.01-.17-.1-.236-.246-.224a3.22,3.22,0,0,1-.379.063c-.157-.01-.451-.122-.412-.17C16.582,14.663,16.084,14.321,16.169,13.94Z" fill="#dea6a7"/>
          <path d="M28.474,36.751a.937.937,0,0,1-.684.955,1,1,0,0,0-.584.491c-.267.448-.774.551-1.151.839a7.255,7.255,0,0,1-2.463,1.377,2.82,2.82,0,0,1-1.385.017c.392.519.154.669-.285.708a3.724,3.724,0,0,1-.437.066c-.19-.006-.481.135-.546-.1-.078-.278.313-.156.531-.447a23.321,23.321,0,0,1-4.012-.379c.061.427.42.281.56.457-.029.2-.2.151-.3.133a10.937,10.937,0,0,1-4.439-1.659c-.133-.09-.245-.164-.172-.352.176-.453-.179-.651-.472-.731a4.1,4.1,0,0,1-2.408-1.967,6.564,6.564,0,0,0-.9-1.246,4.924,4.924,0,0,1-1.04-1.947c-.155-.408-.14-1.026-.706-1.24a.2.2,0,0,0-.1-.04.088.088,0,0,0-.024-.069c-.015-.232.069-.478-.1-.686h0a.558.558,0,0,0-.1-.484l.008-.169c.58.063.775.58,1.105.937-.145.065-.367.034-.411.231s.12.289.276.361c.049.023.124.031.144.068.252.461.773.705.85,1.345.051.428.385.845.485,1.323a.955.955,0,0,0,.989.76c.159,0,.32-.01.34.212l.1.117v0c.008.744.689.869,1.124,1.22.124.009.259-.021.347.106-.069.476.253.732.547,1.017.169.164.422-.128.5.073.156.4.5.381.806.527.34.164.683.068.962.191.368.161.852-.172,1.135.3.04.067.224-.075.3-.19a.876.876,0,0,0,.1-.01c.159-.007.218-.1.217-.246l.68.016.1.118-.016.207a.353.353,0,0,0,.1.572c.322.145.733.382,1.033.12.371-.323.4-.053.441.176.055.282.229.323.383.166.294-.3.6-.211.917-.112.631.2,1.247-.133,1.876-.047.056.007.13-.117.2-.181a1.535,1.535,0,0,0,.613-.183c.4-.142.733-.643,1.265-.286.115.077.231-.058.249-.21.136-.28.569.045.635-.269.12-.578.737-.777.916-1.3l.221-.006c.237-.039.64.149.609-.3-.028-.411.217-.4.436-.352A1.627,1.627,0,0,0,28.474,36.751Zm-13.009,3.2a2.748,2.748,0,0,0,1.48.539A3.467,3.467,0,0,0,15.465,39.954Z" fill="#b0d1d2"/>
          <path d="M35.236,17.225c-.222-.056-.461-.089-.517-.374.277-.2.746-.358.109-.7-.087-.046-.054-.123.018-.171.477-.322.067-.5-.147-.548-.584-.129-.616-.734-.988-1.031l.011-.011c.168-.055.487.144.482-.159,0-.229-.117-.546-.546-.413-.287.09-.092-.214-.549-.4-.089-.007.129-.262.327-.072.069.066.076.225.211.1.1-.1.062-.2-.044-.278-.164-.116-.31-.243-.117-.443.108-.112.142-.216.041-.338a.4.4,0,0,0-.41-.106c-.167.029-.2.167-.175.3.048.273-.106.489.167.84.255.08.083.056.031.185-.229.571-.39.124-.579-.024-.1-.077-.044-.347-.285-.236-.153.071-.329.291-.435,0-.09-.252.1-.406.327-.5a.6.6,0,0,0,.361-.873c-.05-.1-.166-.157-.212-.067-.207.408-.7.157-.969.442-.131.138-1.16-.268-1.108-.379.255-.539-.272-.324-.423-.448a1.377,1.377,0,0,0-.465-.153,1.054,1.054,0,0,1,.105-.537,1.469,1.469,0,0,0-.036-1.3c-.2-.553-.728-1.073-.394-1.757a16.788,16.788,0,0,1,4.249,2.253c-.121.771-.1.792.686.539l.006,0-.209.651c.345.025.687.12.613.531-.071.394-.3.788.383.8.027,0,.081.128.074.191-.03.293.267.487.282.679.032.412.881.768.083,1.214.8.48.859.582.6,1.381A11.012,11.012,0,0,1,35.236,17.225Zm-4.031-5.96c.147-.006.32-.01.328-.2.006-.149-.15-.13-.251-.127-.134,0-.324-.047-.324.178C30.958,11.263,31.1,11.255,31.205,11.265Zm-.235.374c-.13,0-.227.053-.229.18,0,.158.123.214.261.221.114.005.235-.015.232-.163C31.231,11.714,31.078,11.7,30.97,11.639Z" fill="#d28085"/>
          <path d="M28.474,36.751a1.627,1.627,0,0,1-.642.014c-.219-.053-.464-.059-.436.352.031.446-.372.258-.609.3.072-.384.436-.631.436-1.089A.644.644,0,0,1,28,35.786c.133.024.428-.376.747-.428a.374.374,0,0,0-.02-.2.5.5,0,0,1,.124-.771c.247-.136.576-.351.882.025.17.209.315.042.4-.157.242-.567.543-1.118.813-1.659a3.94,3.94,0,0,0,.428-1.882L31.9,30.7a4.818,4.818,0,0,1-.508,2.592,6.892,6.892,0,0,0-1.181,1.991c-.2.083-.121.351-.295.452-.017-.12-.059-.247-.2-.154a.77.77,0,0,1-.515.157c-.382-.038-.441.17-.371.48a.249.249,0,0,1-.022.084c-.244,0-.282.184-.318.367A.162.162,0,0,1,28.474,36.751Z" fill="#8ab4b6"/>
          <path d="M35.236,17.225a11.012,11.012,0,0,0,.556-1.206c.261-.8.2-.9-.6-1.381.8-.446-.051-.8-.083-1.214-.015-.192-.312-.386-.282-.679.007-.063-.047-.19-.074-.191-.684-.009-.454-.4-.383-.8.074-.411-.268-.506-.613-.531l.209-.651a4.45,4.45,0,0,1,2.118,2.566,6.538,6.538,0,0,1,.145,1.361,13.42,13.42,0,0,1-.068,2.991.877.877,0,0,1-.171.4C35.6,17.824,35.3,17.66,35.236,17.225Z" fill="#dea6a7"/>
          <path d="M7.671,32.38c.079.238.026.321-.249.28a2.379,2.379,0,0,1-1.041-.481,24.068,24.068,0,0,1-2.537-1.936,1.022,1.022,0,0,1-.256-.654c.257-.027.5-.112.75.107.276.24.535.149.665-.212a9.684,9.684,0,0,0,1.693.553c.045.316-.233.423-.418.59l.294.19c-.109.248.35.409.1.678l0,0c-.2-.062-.375-.277-.7-.125a2.471,2.471,0,0,0,.935.559.476.476,0,0,1,.09.03.2.2,0,0,0,.243.191h0C7.312,32.371,7.484,32.39,7.671,32.38Z" fill="#dea6a7"/>
          <path d="M33.607,37.074c.214.275.4-.04.6-.036.262.006.578-.273.751.158-.309.033-.541.336-.883.249-.417-.149-.737.233-1.132.206-.1-.019-.2-.009-.227.117a.1.1,0,0,1-.074.037l-.361-.079c-.045-.06-.091-.06-.137,0l-.639-.115c-.043-.054-.084-.153-.13-.155a5.183,5.183,0,0,0-1.921-.124l-.2,0c-.006-.1-.009-.2-.112-.25v-.329l.141-.215a1.614,1.614,0,0,1,.809.1,5.092,5.092,0,0,0,1.221.3C32.071,37.03,32.845,36.946,33.607,37.074Z" fill="#629955"/>
          <path d="M41.059,23.9c-.257.177-.48.378-.585-.163-.055-.282-.443-.358-.663-.544a13.676,13.676,0,0,1-1.155-1.089c-.107-.344.123-.454.377-.548a20.433,20.433,0,0,0,1.706,1.194C41.19,23.017,41.105,23.475,41.059,23.9Z" fill="#b0d1d2"/>
          <path d="M15.189,10.664c-.414.239-.908.215-1.337.432a.85.85,0,0,1-1.033-.542,3.8,3.8,0,0,1,1.525-.233A.907.907,0,0,1,15.189,10.664Z" fill="#dea6a7"/>
          <path d="M29.027,7.778c-.334.684.19,1.2.394,1.757a1.469,1.469,0,0,1,.036,1.3,1.054,1.054,0,0,0-.105.537l-.214,0a6.993,6.993,0,0,0-.729-3.79A.808.808,0,0,1,29.027,7.778Z" fill="#dea6a7"/>
          <path d="M12.588,10.567c.03.253-.064.388-.336.364a4.831,4.831,0,0,1-1.2-.084c-.47-.16-.875.256-1.342.186a.849.849,0,0,1,.881-.45,4.654,4.654,0,0,0,1.146-.178C12.032,10.358,12.359,10.224,12.588,10.567Z" fill="#dea6a7"/>
          <path d="M5,29.484c-.13.361-.389.452-.665.212-.252-.219-.493-.134-.75-.107l-.072-.335.257-.109c.205.132.293.07.369-.161.1-.311-.1-.274-.271-.29l.006-.2c.238-.21.59.023.834-.214.047-.045.166.061.106.172a.713.713,0,0,1-.154.151.542.542,0,0,0-.087.613c.1.272.349-.026.523.05Z" fill="#dea380"/>
          <path d="M19.131,11.853c-.458-.076-.593-.651-1.073-.694.022-.19-.3-.659.335-.309a1.531,1.531,0,0,0,1.245-.018A1.115,1.115,0,0,1,19.131,11.853Z" fill="#ece17c"/>
          <path d="M5.792,15.522c.128,0,.256,0,.384,0,.26-.015.352.2.424.365.1.232-.18.155-.268.247a.72.72,0,0,1-.449.29.827.827,0,0,1-.552-.148C5.358,15.946,5.687,15.8,5.792,15.522Z" fill="#dea6a7"/>
          <path d="M29.28,36.537l-.141.215c-.073-.2-.007-.471-.311-.531-.07-.309-.011-.517.371-.479a.77.77,0,0,0,.515-.157c.143-.093.185.034.2.154Z" fill="#b0d1d2"/>
          <path d="M18.248,40.758a12.63,12.63,0,0,1,2.08.283A1.975,1.975,0,0,1,18.248,40.758Z" fill="#b0d1d2"/>
          <path d="M39.991,29.574c.014-.166-.244-.348-.022-.488.3-.189.474.171.723.231a2.33,2.33,0,0,1-.251.943l-.233-.223C40.2,29.852,40.274,29.63,39.991,29.574Z" fill="#b0d1d2"/>
          <path d="M3.147,27.35c.411.125.743.292.525.828-.03.075.061.2.1.3-.2-.042-.316.092-.43.221A5.468,5.468,0,0,1,3.147,27.35Z" fill="#dea380"/>
          <path d="M29.252,37.331l.2,0c.127.316.407.152.62.2.251.054.554-.127.752.166a5.83,5.83,0,0,1-1.855.019c-.3,0-.365-.224-.084-.431C29,37.385,29.078,37.713,29.252,37.331Z" fill="#a9c9a3"/>
          <path d="M3.021,26.123a.8.8,0,0,1,.11,0c.23.044.615-.105.6.286-.015.289-.313.423-.628.388A1.024,1.024,0,0,1,3.021,26.123Z" fill="#dea380"/>
          <path d="M30.822,37.7c-.2-.293-.5-.112-.752-.166-.213-.045-.493.119-.62-.2a5.183,5.183,0,0,1,1.921.124c.046,0,.087.1.13.156l-.3.087Z" fill="#80b180"/>
          <path d="M33.962,10.57c-.781.253-.807.232-.686-.539A1.447,1.447,0,0,1,33.962,10.57Z" fill="#dea6a7"/>
          <path d="M3.339,28.7c.114-.129.227-.263.43-.221.036,0,.072.006.108.011l-.006.2c-.033.15-.065.3-.1.45l-.257.109A.785.785,0,0,1,3.339,28.7Z" fill="#dea6a7"/>
          <path d="M31.2,37.7l.3-.087.639.114h.137l.361.079A1.238,1.238,0,0,1,31.2,37.7Z" fill="#a9c9a3"/>
          <path d="M32.939,37.651c.4.027.715-.355,1.132-.206a1.157,1.157,0,0,1-1.141.368Z" fill="#a9c9a3"/>
          <path d="M17.19,11.014c-.27.013-.6.164-.669-.287C16.8,10.693,17.107,10.593,17.19,11.014Z" fill="#dea6a7"/>
          <path d="M7.671,32.38c-.187.01-.359-.009-.424-.227.321-.035.176-.3.23-.467a.216.216,0,0,1,.1.041c0,.1.007.2.011.3l.044.135Z" fill="#d28085"/>
          <path d="M29.252,37.331c-.174.382-.257.054-.369-.047l.257-.2C29.243,37.135,29.246,37.234,29.252,37.331Z" fill="#80b180"/>
          <path d="M16.27,10.722c-.02.2-.044.392-.313.2A.241.241,0,0,1,16.27,10.722Z" fill="#dea6a7"/>
          <path d="M28.488,36.673c.036-.183.074-.364.318-.367C28.86,36.567,28.72,36.659,28.488,36.673Z" fill="#b0d1d2"/>
          <path d="M32.939,37.651l-.009.162-.218-.045C32.743,37.642,32.834,37.632,32.939,37.651Z" fill="#80b180"/>
          <path d="M7.635,32.166l-.044-.135Z" fill="#dea6a7"/>
          <path d="M29.138,11.368l.214,0a1.377,1.377,0,0,1,.465.153c.151.124.678-.091.423.448-.052.111.977.517,1.108.379.274-.285.762-.034.969-.442.046-.09.162-.032.212.067a.6.6,0,0,1-.361.873c-.223.092-.417.246-.327.5.106.294.282.074.435,0,.241-.111.188.159.285.236.189.148.35.595.579.024.052-.129.224-.105.354-.106.072.1-.123.406.164.316.429-.133.542.184.546.413.005.3-.314.1-.482.159l-.054-.042.043.053c.372.3.4.9.988,1.031.214.047.624.226.147.548-.072.048-.1.125-.018.171.637.341.168.5-.109.7a1.613,1.613,0,0,1-.947-.589,1.3,1.3,0,0,0-.619-.426c-.2-.548-.2-.548-.475-.378a.092.092,0,0,1-.085-.032c0-.439-.126-.609-.513-.241a.74.74,0,0,1-.24.1l-1.365-.226c.15-.224.233-.435-.118-.554l.006-.225c.189.023.4-.062.56.11s.356.108.535,0a.869.869,0,0,0,1.19.127c.129-.077.4-.031.318-.257a.534.534,0,0,0-.484-.139c-.628.554-.67-.052-.829-.4-.087-.191-.12-.411-.416-.267-.1.049-.224.073-.282-.064a.237.237,0,0,1,.113-.287c.1-.079.245-.153.14-.3-.084-.121-.244-.1-.362-.062a2.233,2.233,0,0,0-.386.21c-.155-.017-.4.06-.407-.169-.018-.724-.48-.773-1.024-.731-.025-.192.168-.356.069-.558Z" fill="#cb686c"/>
          <path d="M27,13.619c-.062-.266-.144-.5.115-.755a1.24,1.24,0,0,0,.226-.776c.065-.56.173-.621.679-.322a1.114,1.114,0,0,0,.683.167l-.108.447c-.51.657-1.434.965-1.612,1.9C26.847,14.059,27.091,13.843,27,13.619Z" fill="#8ab4b6"/>
          <path d="M27,13.619c.089.224-.155.44-.017.666a4.365,4.365,0,0,0-.051,1.186c-.122.318-.411.262-.66.294a.937.937,0,0,1,.23-.933c.226-.226-.022-.746.29-1.061C26.859,13.705,26.906,13.635,27,13.619Z" fill="#a9c9a3"/>
          <path d="M28.6,12.38l.108-.447c.2-.088.134-.41.394-.443.1.2-.095.366-.07.558a.4.4,0,0,1-.215.328Z" fill="#dea380"/>
          <path d="M20.863,18.177c-.008-.164.007-.313.224-.32l.006.007c.271.558.606.658,1.256.367-.1-.18-.408-.256-.289-.533.02-.047.169-.063.255-.054.322.032.214.293.229.476.022.283.111.582.4.581a.626.626,0,0,0,.6-.617h0c.254-.171.434.137.526.136.408-.007.747.309,1.153.2a.324.324,0,0,1,.1.021.342.342,0,0,0,.209.357c.492.223.8.755,1.374.841.182.027.337.125.317.322-.048.482.248.466.59.479.3.011.683.042.731.434.122.984.153,1.038,1.173,1.2l.007.011a1.884,1.884,0,0,0,.777,1.219l.111.145c0,.328-.389.281-.541.529.561.08.777.285.376.782a1.91,1.91,0,0,0-.211.569l-.189.025c-.054-.867-.221-1.034-.88-.85.033-.337.51-.44.457-.7-.058-.292-.491-.206-.721-.415a.665.665,0,0,0-.883.027c-.546.454-.541.46-.935-.2-.031.819-.808-.272-.9.434A1.493,1.493,0,0,0,25,23.9h0c.034-.147-.022-.293.131-.441.2-.2-.087-.067-.12-.122l-.244-.431c-.041-.394-.278-.165-.45-.141-1.034.14-1.247.117-1.592-.954a.44.44,0,0,1,.148-.541.765.765,0,0,1,.687-.038c.164.092.134.317.03.478-.2.071-.151-.348-.321-.17s.006.421.048.634c.025.133.039.275.221.252a6.889,6.889,0,0,0,.872-.142c.14-.036.406-.123.288-.294-.067-.1-.137-.431-.432-.295-.076.035-.169.1-.237-.056A5.083,5.083,0,0,0,24.5,20.6c.178-.529-.249-.631-.459-.546-.336.137-.811-.017-1.027.459-.037-.51-.76-.69-.524-1.314.039-.105-.256-.428-.474-.382-.3.064-.01.3-.036.454-.031.192.26.464-.09.568-.3.09-.217-.288-.375-.395a.212.212,0,0,1-.07-.146c-.028-.41-.1-.585-.416-.129a.563.563,0,0,1-.745.188c-.109-.051-.281-.031-.289-.209-.007-.152.115-.2.226-.28A2.3,2.3,0,0,0,20.863,18.177Zm4.5,1.583c-.207-.012-.374.025-.369.285,0,.141.04.3.2.244.225-.074.58-.031.616-.33C25.838,19.8,25.549,19.767,25.367,19.76Z" fill="#d28085"/>
          <path d="M30.614,23.451l-.111-.145a1.928,1.928,0,0,0-.22-.645,1.551,1.551,0,0,1,1.278-1.152c.036,0,.1.016.106,0,.255-.453.558-.33.916-.118.177.1.207-.131.285-.248.341-.515.666-.56,1.12-.151a1.245,1.245,0,0,0,.619.341c.265.048.538.113.37.5-.04.092-.019.218.078.233.587.091.379.508.363.847a1.012,1.012,0,0,1-.54.93,3.612,3.612,0,0,0-.967,1.052c-.091.117-.1.269.02.346a4.791,4.791,0,0,1,1.111,1.264c-.208-.107-.453-.086-.586-.4a.772.772,0,0,0-.725-.405c-.084-.511-.307-.884-.889-.913a.526.526,0,0,1-.465-.256c-.263-.479-.849-.575-1.165-1-.116-.157-.341-.134-.418.124Z" fill="#826a34"/>
          <path d="M35.042,26.505a4.791,4.791,0,0,0-1.111-1.264c-.124-.077-.111-.229-.02-.346a3.612,3.612,0,0,1,.967-1.052,1.012,1.012,0,0,0,.54-.93.42.42,0,0,0,.5-.037c.218-.179.319,0,.395.18a.472.472,0,0,0-.02.16c.032.14-.1.39.143.393.2,0,.187-.228.186-.392,0-.054-.011-.107-.017-.161.111-.472.427-.238.686-.2-.19.326.058.637.04.96-.007.122.076.222-.1.306-.616.289-.611.3-.089.688.088.065.173.133.26.2l.009.009c-.067.295.309.475.205.776-.184.537-.095,1.254-.911,1.382-.112.017-.14.153-.2.25-.145.256-.28.219-.341-.053-.028-.127-.078-.2-.2-.225a1.1,1.1,0,0,0-.9-.581A.053.053,0,0,1,35.042,26.505Z" fill="#629955"/>
          <path d="M37.4,25.009c-.087-.067-.172-.135-.26-.2-.522-.39-.527-.4.089-.688.179-.084.1-.184.1-.306.018-.323-.23-.634-.04-.96.151-.3.292-.682.562-.073-.01.251-.079.483.363.339.473-.155.409.366.552.6s0,.4-.256.393c-.4-.013-.282.3-.353.5-.313.876-.252,1.043.53,1.408.074.035.151.075.117.148-.087.189-.257.429-.431.384-.94-.245-.762.3-.641.84.02.086-.016.257-.077.237-.763-.241-.572.534-.809.807-.425.49-.633.106-.92-.082l-.114-1.2.151,0c.123.025.173.1.2.225.061.272.2.309.341.053.055-.1.083-.233.2-.25.816-.128.727-.845.911-1.382.1-.3-.272-.481-.205-.776.245,0,.463-.038.419-.359-.013-.1-.056-.25-.186-.236-.3.033-.228.281-.237.475C37.4,24.935,37.4,24.972,37.4,25.009Z" fill="#80b180"/>
          <path d="M28.6,12.38l.217,0c.022.115.08.234-.032.337a1.831,1.831,0,0,0-.65.735c-.323.287-.249.5.089.732.259.175.634.253.675.658a4.056,4.056,0,0,1-1.962.633,4.365,4.365,0,0,1,.051-1.186C27.163,13.345,28.087,13.037,28.6,12.38Z" fill="#826a34"/>
          <path d="M29.719,22.076c-1.02-.16-1.051-.214-1.173-1.2-.048-.392-.428-.423-.731-.434-.342-.013-.638,0-.59-.479.02-.2-.135-.295-.317-.322-.579-.086-.882-.618-1.374-.841a.342.342,0,0,1-.209-.357.221.221,0,0,1,.339-.056c.657.5,1.506.723,2.046,1.4a1.447,1.447,0,0,0,.542.441A2.8,2.8,0,0,1,29.719,22.076Z" fill="#dea6a7"/>
          <path d="M28.9,14.838c-.041-.4-.416-.483-.675-.658-.338-.228-.412-.445-.089-.733a1.185,1.185,0,0,1,1.012.272c-.183.348-.18.614.3.672l.046.544Z" fill="#d99466"/>
          <path d="M29.144,13.719a1.185,1.185,0,0,0-1.012-.272,1.835,1.835,0,0,1,.65-.734c.254-.006.365.086.511.342a9.324,9.324,0,0,1,.476,1.374.362.362,0,0,0,.025.091l.009.4-.317.014c-.015-.182-.031-.363-.046-.545C29.5,14.1,29.565,13.8,29.144,13.719Z" fill="#722d1f"/>
          <path d="M29.8,14.922l-.009-.4c.188-.025.386.345.563-.016.351.119.268.33.118.554Z" fill="#bf4e50"/>
          <path d="M30.283,22.661a1.928,1.928,0,0,1,.22.645,1.884,1.884,0,0,1-.777-1.219C30.062,22.133,30.073,22.493,30.283,22.661Z" fill="#dea6a7"/>
          <path d="M31.84,15.284a.74.74,0,0,0,.24-.1c.387-.368.51-.2.513.241C32.345,15.365,32.054,15.528,31.84,15.284Z" fill="#d28085"/>
          <path d="M36.607,23.056c.006.054.016.107.017.161,0,.164.013.394-.186.392-.241,0-.111-.253-.143-.393a.472.472,0,0,1,.02-.16A.232.232,0,0,1,36.607,23.056Z" fill="#80b180"/>
          <path d="M32.678,15.458c.272-.17.272-.17.475.378C32.85,15.891,32.79,15.642,32.678,15.458Z" fill="#d28085"/>
          <path d="M5,29.484l.1-.22c-.171-.941.5-1.652.682-2.5.043-.2.2-.19.337-.219l.33-.1c.175,0,.392.24.512-.043.082-.2.169-.441-.08-.616a1.816,1.816,0,0,1,.687-.869,1.7,1.7,0,0,0,.792-1.255c1-.5,1.312-1.548,1.888-2.386l.2-.159c.266-.123.383-.4.607-.57.121.112.269.571.395.106.176-.651.946-.509,1.162-1.038.027-.066.126-.032.184.033.32.356.321.355.643.077-.12-.131-.448-.053-.38-.371.058-.27.266-.27.477-.27.126,0,.331.042.348-.092.075-.614.613-.6,1.045-.767-.27-.389-.513-.2-.756-.036.062-.434-.548-.384-.554-.77l.113-.014a1.451,1.451,0,0,0,.879-1.328l.116-.017c.339.847.7-.151,1.063.033-.32-.168-.787-.072-.856-.576a5.881,5.881,0,0,1,1.238-1.58c-.085.38.413.722.07,1.141-.039.048.255.16.412.17a3.22,3.22,0,0,0,.379-.063c.149-.012.256.054.246.224-.012.2-.133.164-.276.136a2.651,2.651,0,0,0-.5-.033c-.127,0-.283-.015-.307.16-.02.152.085.24.223.275.32.081.612.178.549.607a.117.117,0,0,0,.135.137c.587-.162.292.16.149.427.492-.312.845.041,1.2.154a.369.369,0,0,0,.456-.089.7.7,0,0,1,1.031-.043.228.228,0,0,0,.325.038c.384-.214.475.033.424.334a3.512,3.512,0,0,0-.034.662,1.293,1.293,0,0,0-.685.242l-.235-.015c.192-.287.139-.6-.155-.686-.265-.08-.256.276-.32.461a2.483,2.483,0,0,0-.07.477.4.4,0,0,1,0,.1c-.329.012-.389-.126-.249-.412.042-.086.135-.352.029-.292-.339.192-.27-.321-.5-.232a.568.568,0,0,1-1,.29.461.461,0,0,0-.7-.12c-.372.263-.875.465-.852,1.06,0,.106-.073.229-.139.182-.505-.368-.433.271-.661.371-.453-.446-.687-.444-.808.042a.931.931,0,0,0,.1.71c.279.347.063.554-.1.812-.092.152-.346.173-.327.437a1.082,1.082,0,0,1,.564.145.464.464,0,0,1,.253.4c-.014.274-.241.042-.34.113-.46.33-1.044-.089-1.5.251-.026.02-.14-.038-.181-.087-.086-.105-.013-.208.039-.307.081-.154.26-.126.381-.208.1-.067.2-.127.138-.261a.163.163,0,0,0-.237-.071,1.236,1.236,0,0,1-.868-.016c-.25-.068-1.029.5-1.09.765a.6.6,0,0,0,0,.112l0,0a1.362,1.362,0,0,0-.987.233c-.374.288-.223.716-.309,1.073-.048.2.253.117.4.15l-.008.443c-.073-.009-.184.009-.211-.03-.114-.168-.218-.385-.451-.219a.457.457,0,0,0-.187.538c.188.5-.086.346-.327.236-.4-.182-.355.093-.391.345s.293.2.277.41c-.38-.025-.377-.026-.458-.358a.18.18,0,0,0-.116-.1c-.106-.027-.174.045-.214.131a.632.632,0,0,0,.182.833h0c-.88.077-.931.881-1.054,1.431a5.087,5.087,0,0,0,.182,1.8c.138.867.292.987,1.192,1.026.028.159.008.316.153.456a2.888,2.888,0,0,0,1.775.748,5.991,5.991,0,0,0,3.829-.813,1.233,1.233,0,0,0,.718-1.3l.352-.023c.093,0,.125-.056.118-.142.152-.037.32-.177.43.065-.176.336-.606.492-.654.919l-.077.076-.13.1a1.461,1.461,0,0,1-.608.465,17.65,17.65,0,0,1-2.172.912l-.287.017a.469.469,0,0,0-.158-.039A5.338,5.338,0,0,1,8.9,31.316a1.9,1.9,0,0,0-.539-.1c-.33-.357-.525-.874-1.105-.937-.118-.049-.127-.163-.164-.264-.154-.428-.278-.221-.4.021A9.684,9.684,0,0,1,5,29.484ZM16.292,17.149a1.128,1.128,0,0,0-.7-.04.221.221,0,0,0-.18.294c.064.176.2.116.317.049C15.889,17.366,16.047,17.282,16.292,17.149ZM5.954,29.185c-.058-.153-.13-.292-.321-.229-.117.039-.285.074-.271.236.023.26.246.163.394.176C5.873,29.378,5.984,29.344,5.954,29.185Zm9.863-10.756c-.056-.044-.09-.092-.127-.095s-.12.023-.13.053c-.026.083.038.127.113.123C15.714,18.508,15.753,18.467,15.817,18.429Z" fill="#d28085"/>
          <path d="M7.594,19.89a2.785,2.785,0,0,1-.035,1.382,2.245,2.245,0,0,0,.338,1.6c.179.258.274.552.462.8a1.7,1.7,0,0,1-.792,1.255,1.816,1.816,0,0,0-.687.869l-.542,0a.308.308,0,0,1,.2-.346c.244-.1.485-.237.225-.576-.142-.185.057-.262.181-.32a1.426,1.426,0,0,0,.691-1.121c.079-.366-.37-.669-.393-1.078,0-.082-.122-.167-.111-.239.076-.484-.2-.611-.643-.623.509-.136.377-.774.864-.954.21-.078-.009-.361-.153-.494s-.38-.206-.5-.448A1.242,1.242,0,0,1,7.594,19.89Z" fill="#dea380"/>
          <path d="M13.729,17.409l-.113.014c-.172-.035-.383.024-.467-.214a.338.338,0,0,0-.425-.179c-.4.091-.8-.013-1.19.056-.334.059-.764.1-.955.32a3.287,3.287,0,0,1-1.064.637c-.228.122-.51.162-.641.428l-.173.107c-.152-.048-.352-.033-.344-.28a.3.3,0,0,1,.29-.289c.277-.035.5-.065.424-.442-.013-.061.081-.191.151-.217a10.4,10.4,0,0,1,2.089-.785.194.194,0,0,1,.148.045c.33.358.48.183.6-.182a.173.173,0,0,1,.312-.054c.263.5.742.315,1.135.4C13.5,17.012,13.8,17.146,13.729,17.409Z" fill="#bf4e50"/>
          <path d="M8.7,18.578l.173-.107a26.075,26.075,0,0,0,1.571,2.65l-.2.159a18.548,18.548,0,0,0-1.639-2.212C8.62,18.9,8.755,18.758,8.7,18.578Z" fill="#80b180"/>
          <path d="M4.878,19.043c.322-.227.559-.579,1.021-.572.368,0,.246-.285.162-.423-.326-.535.245-.456.425-.595.117-.09.241.143.135.234-.489.415-.225.531.283.614C6.2,18.591,5.664,19.127,4.878,19.043Z" fill="#dea380"/>
          <path d="M9.627,14.209a3.969,3.969,0,0,0,.532.358c.416.187.423.179.114.45-.139.122-.088.211.02.318a.149.149,0,0,1-.011.24.147.147,0,0,1-.233-.056C9.894,15.108,9.476,14.784,9.627,14.209Z" fill="#dea380"/>
          <path d="M5.8,22.384c-.655.3-.052.432.064.646.016.029-.033.093-.052.142-.3-.128-.678-.182-.864-.4-.2-.238.125-.3.315-.441C5.512,22.144,5.6,22.048,5.8,22.384Z" fill="#dea380"/>
          <path d="M13.729,17.409c.069-.263-.229-.4-.225-.638.652.173.759.076.782-.706l.322.016A1.451,1.451,0,0,1,13.729,17.409Z" fill="#cb686c"/>
          <path d="M6.338,25.788l.542,0c.249.175.162.419.08.616-.12.283-.337.043-.512.044.047-.22-.121-.317-.249-.437Z" fill="#dea6a7"/>
          <path d="M6.535,23.533c-.237-.42.163-.671.193-1,.008-.083.146-.092.24-.067.137.037.149.146.142.261C7.088,23.112,6.756,23.263,6.535,23.533Z" fill="#dea380"/>
          <path d="M4.105,25.8a.3.3,0,0,1,.242-.321c.352-.076.445-.311.395-.667.177.232.455.347.479.653l0,0c-.419-.04-.7.371-1.12.335Z" fill="#dea380"/>
          <path d="M8.011,18.657c.009.221-.071.326-.257.3A.283.283,0,0,1,7.5,18.6c.031-.137.02-.4.234-.375C7.981,18.251,7.984,18.5,8.011,18.657Z" fill="#dea380"/>
          <path d="M11.686,13.447c.351-.032.545.242.83.13.114-.045.187.1.176.22a.171.171,0,0,1-.249.142C12.2,13.811,11.884,13.782,11.686,13.447Z" fill="#dea380"/>
          <path d="M3.8,24.852c-.138-.22-.54-.239-.444-.606a.185.185,0,0,1,.272-.106C3.97,24.3,3.724,24.611,3.8,24.852Z" fill="#dea380"/>
          <path d="M5.221,25.461a.325.325,0,0,1,.24.492.368.368,0,0,1-.481.119c-.187-.147-.024-.286.116-.383a.29.29,0,0,0,.127-.23Z" fill="#dea380"/>
          <path d="M6.666,24.252c-.012.176-.13.213-.273.192a.3.3,0,0,1-.268-.355.167.167,0,0,1,.229-.167C6.514,23.969,6.677,24.034,6.666,24.252Z" fill="#dea380"/>
          <path d="M4.685,20.007a.248.248,0,0,1,.282.214c.026.142-.067.2-.194.2s-.284.025-.307-.151A.236.236,0,0,1,4.685,20.007Z" fill="#dea380"/>
          <path d="M3.832,27.316c-.107,0-.16-.048-.156-.13a.374.374,0,0,1,.251-.327c.117-.049.166.038.155.142C4.065,27.164,3.935,27.239,3.832,27.316Z" fill="#dea380"/>
          <path d="M6.2,26.013c.128.12.3.217.249.437l-.33.1C6.215,26.381,5.834,26.14,6.2,26.013Z" fill="#dea380"/>
          <path d="M7.918,15.794c.01-.118.056-.221.183-.23s.166.122.2.219c.039.119-.048.164-.145.172C8.039,15.964,7.935,15.939,7.918,15.794Z" fill="#dea380"/>
          <path d="M8.909,13.5c.008-.164-.019-.35.2-.4.029-.006.1.057.106.093.02.22-.124.286-.309.3Z" fill="#dea380"/>
          <path d="M4.1,25.794c-.015.1.033.224-.1.275-.02.009-.094-.049-.1-.083-.023-.147.087-.173.2-.19Z" fill="#dea380"/>
          <path d="M29.28,36.537l.636-.8c.174-.1.094-.369.295-.452.22.219.7-.084.793.4.036.188.057.49.347.354a1.305,1.305,0,0,0,.738-.632c.031-.078-.088-.232.051-.283a.326.326,0,0,1,.343.141c.27.365.492.166.73-.031A1.3,1.3,0,0,0,33.7,34.2c0-.119-.006-.227-.117-.289-.145-.08-.183.059-.255.135-.3.321-.623.514-1.044.147.15-.175.469.09.471-.182,0-.232-.231-.408-.454-.485-.294-.1-.605-.155-.909-.229A4.828,4.828,0,0,0,31.9,30.7c.254-.216.086-.513.148-.767.106.021.28.008.31.067.386.768,1.175.679,1.826.889.712.228,1.488.383,1.745,1.249.048.164.127.292.307.226.25-.093.126-.249.035-.394a.392.392,0,0,1-.071-.2c0-.107.1-.19.188-.151a8.275,8.275,0,0,1,.977.516c.085.054.008.21-.111.262a1.6,1.6,0,0,1-.313.105c-.164.034-.226.133-.183.28.058.2.226.2.353.105.376-.287.633-.121.784.226.136.314.376.673-.05.98-.073.052-.11.156-.183.2-.2.134-.128.719-.5.455-.176-.126-.544-.152-.582-.5-.012-.107-.118-.264-.272-.216-.183.056-.064.205-.064.326,0,.616-.01.616.189.967-.118.131-.276.074-.416.079a1.244,1.244,0,0,0-1.18.911c-.077.293-.259.314-.5.321-.32.01-.646.029-.737.435-.762-.128-1.536-.044-2.3-.13a5.092,5.092,0,0,1-1.221-.3A1.614,1.614,0,0,0,29.28,36.537ZM36.834,33.3c-.224.328-.238.58.121.75.109.052.271.2.342.072C37.555,33.665,37.065,33.572,36.834,33.3Z" fill="#80b180"/>
          <path d="M32.374,28.043a1.2,1.2,0,0,0,0,.966c-.258.257-.207.624-.331.928-.061.254.107.551-.147.767l-.529.011v-.339a1.582,1.582,0,0,0,.32-1.423.926.926,0,0,1,.366-1Z" fill="#b0d1d2"/>
          <path d="M39.991,29.574c.283.056.209.278.217.463-.175-.052-.442.131-.516-.136C39.652,29.753,39.8,29.605,39.991,29.574Z" fill="#80b180"/>
          <path d="M15.289,12.707c-.041.147.068.39-.15.42a.615.615,0,0,1-.587-.222.992.992,0,0,1-.128-.3c-.07-.223-.555-.205-.384-.488.13-.214.432.089.668.05a.515.515,0,0,1,.11.006C14.835,12.474,15.191,12.477,15.289,12.707Z" fill="#d99466"/>
          <path d="M15.289,12.707c-.1-.23-.454-.233-.471-.534.057-.289.29-.439.513-.645-.276.507.327.76.281,1.185l-.005.005Z" fill="#dea6a7"/>
          <path d="M14.931,15.521c.069.5.536.408.856.576-.362-.184-.724.814-1.063-.033C14.77,15.874,14.588,15.6,14.931,15.521Z" fill="#dea6a7"/>
          <path d="M15.612,12.713a.355.355,0,0,1,.109.011c.194.086.6.022.5.329a.8.8,0,0,1-.709.52.271.271,0,0,1-.171-.108c-.02-.023.016-.134.024-.134.711.04.04-.457.238-.612Z" fill="#d99466"/>
          <path d="M8.666,30.387c-.9-.039-1.054-.159-1.192-1.026a5.087,5.087,0,0,1-.182-1.8c.123-.55.174-1.354,1.054-1.431-.034.184.482.124.19.436-.048.052.064.1.138.122a1.028,1.028,0,0,0,1.4-.851c-.182.049-.417.189-.511.124-.477-.327-.829,0-1.215.169a.632.632,0,0,1-.182-.833c.04-.086.108-.158.214-.131a.18.18,0,0,1,.116.1c.081.332.078.333.458.358.016-.209-.311-.169-.277-.41s-.009-.527.391-.345c.241.11.515.262.327-.236a.457.457,0,0,1,.187-.538c.233-.166.337.051.451.219.027.039.138.021.211.03a2.146,2.146,0,0,0,.332-.019c.252-.056.427-.22.325-.476-.139-.348-.278.056-.428.037a1.106,1.106,0,0,0-.221.015c-.149-.033-.45.047-.4-.15.086-.357-.065-.785.309-1.073a1.362,1.362,0,0,1,.987-.233c-.275.465-.113.638.768.8a1.3,1.3,0,0,0-.77-.8.6.6,0,0,1,0-.112c.061-.268.84-.833,1.09-.765a1.236,1.236,0,0,0,.868.016.163.163,0,0,1,.237.071c.057.134-.041.194-.138.261-.121.082-.3.054-.381.208-.052.1-.125.2-.039.307.041.049.155.107.181.087.46-.34,1.044.079,1.5-.251.1-.071.326.161.34-.113a.464.464,0,0,0-.253-.4,1.082,1.082,0,0,0-.564-.145c-.019-.264.235-.285.327-.437.158-.258.374-.465.1-.812a.931.931,0,0,1-.1-.71c.121-.486.355-.488.808-.042.228-.1.156-.739.661-.371.066.047.143-.076.139-.182-.023-.595.48-.8.852-1.06a.461.461,0,0,1,.7.12.568.568,0,0,0,1-.29c.226-.089.157.424.5.232.106-.06.013.206-.029.292-.14.286-.08.424.249.412a.787.787,0,0,0,.531.483c-.053-.324.323-.493.251-.818a1.293,1.293,0,0,1,.685-.242h.2a2.3,2.3,0,0,1-.643.688c-.111.078-.233.128-.226.28.008.178.18.158.289.209a.563.563,0,0,0,.745-.188c.32-.456.388-.281.416.129a.212.212,0,0,0,.07.146c.158.107.076.485.375.395.35-.1.059-.376.09-.568.026-.157-.267-.39.036-.454.218-.046.513.277.474.382-.236.624.487.8.524,1.314.216-.476.691-.322,1.027-.459.21-.085.637.017.459.546a5.083,5.083,0,0,1-.469,1.037c.068.154.161.091.237.056.3-.136.365.2.432.295.118.171-.148.258-.288.294a6.889,6.889,0,0,1-.872.142c-.182.023-.2-.119-.221-.252-.042-.213-.222-.451-.048-.634s.123.241.321.17c.1-.161.134-.386-.03-.478a.765.765,0,0,0-.687.038.44.44,0,0,0-.148.541c.345,1.071.558,1.094,1.592.954.172-.024.409-.253.45.14-.2,0-.393.016-.27.3.109.248.272.357.514.135.033.055.324-.075.12.122-.153.148-.1.294-.131.441-.177.018-.466.009-.382.244.076.212.075.522.34.632a.326.326,0,0,0,.4-.1c.115-.16-.056-.223-.129-.311-.115-.138-.278-.248-.228-.466a1.493,1.493,0,0,1,1.187-.251c.09-.706.867.385.9-.434.394.664.389.658.935.2a.665.665,0,0,1,.883-.027c.23.209.663.123.721.415.053.263-.424.366-.457.7.659-.184.826-.017.88.85l-.02.009c-.617-.068-.388.488-.555.752a.654.654,0,0,1-.106.034l-.106.1a.414.414,0,0,1-.034.1c-.276-.059-.308.561-.676.245-.1-.084-.145-.312-.336-.13-.137.13-.07.261.018.4a3.054,3.054,0,0,1,.185.4.385.385,0,0,0,.052.081c-.093.373-.494.325-.731.512a3.787,3.787,0,0,1-3.027.862c-.463-.072-.705-.521-1.138-.636l-.331-.294c.021-.212-.014-.4-.244-.481s-.259-.217-.095-.4l.071-.1a1.032,1.032,0,0,1,.006-.111c.186-.007.461.207.528-.065.036-.148-.2-.363-.341-.592a1.681,1.681,0,0,0-.183.662c-.319.005-.639.016-.455-.473.03-.079.013-.249-.072-.239-.518.063-.578-.595-1.022-.629a1.115,1.115,0,0,0-1.331-.905c-.423-.072-.788-.21-.774-.737,0-.184-.128-.172-.218-.141a1.25,1.25,0,0,0-.778.725c-.155.388.315.319.429.52-.187.29-.537.253-.8.4a.664.664,0,0,1-.116-.419c.018-.242-.094-.421-.331-.411a.338.338,0,0,0-.321.426c.077.5-.311.424-.58.472a1.7,1.7,0,0,1-.434-.035c-.033-.111.023-.263-.13-.319-.186-.069-.214.146-.335.2a.245.245,0,0,0-.107.225l0,0a.582.582,0,0,0-.388.672c.079.447-.162.506-.515.437l-.006-.313c.132-.038.292-.09.131-.249-.181-.176-.4-.309-.583.018a1.56,1.56,0,0,1-.774.556,8.679,8.679,0,0,1-1.523-.177c.277-.445.277-.445.381-.4.361.164.792.014.8-.326.008-.684.447-.372.658-.261.693.364.77.349.829-.383.171-.091.3.342.458.057.108-.19-.143-.265-.231-.391a.682.682,0,0,0-.691-.248c.007-.156.08-.228.243-.209.433.048.636-.165.652-.584.051-.15.44-.171.217-.379A.589.589,0,0,0,14.688,23c-.257.092-.163.292-.194.457a.223.223,0,0,0-.218.106c-.125-.022-.25-.041-.374-.065-.209-.04-.31.1-.372.253s-.077.334.174.362c0,.376.189.384.458.233v.8a2.374,2.374,0,0,0-1.52-.734c-.4,0-.655.035-.7-.488-.014.34-.6.33-.348.744a2.618,2.618,0,0,1-1.2.072c.041.283.119.435.437.329.107-.036.336-.3.407.068-.172.493-.83.553-.972,1.119-.035.143-.207.263-.147.49a.4.4,0,0,1-.269.472c-.348.037-.49.307-.719.478-.2.077-.614-.206-.562.321-.365.918-.365.918.334,1.155-.384.119-.753.277-.749.658,0,.325.323.385.624.35.021,0,.051.076.077.118ZM15.279,21.1c.182-.043.481.123.522-.154a.805.805,0,0,0-.328-.676c-.123-.1-.281,0-.339.1a.485.485,0,0,0,.113.687.244.244,0,0,1,.032.045c-.236.04-.3.18-.264.5A.786.786,0,0,0,15.279,21.1Zm12.333,3.125c.588-.148,1.07-.052,1.5-.323C28.713,23.6,28.179,23.694,27.612,24.227ZM17.425,21.322c.015-.123.145-.363-.107-.3-.235.061-.552.161-.565.5,0,.1.1.327.184.226C17.084,21.579,17.629,21.853,17.425,21.322Zm8.626,3.972c.363.139.734-.06,1.041.193.026-.219.133-.482-.11-.548A.846.846,0,0,0,26.051,25.294Zm-6.987-4.145c.563.046.595-.3.642-.6a.2.2,0,0,0-.259-.208C19.016,20.464,19.294,20.884,19.064,21.149Zm.367,1.991c.136.427.362.459.667.319.392-.181.318-.488.241-.828C20.257,23.18,19.967,23.356,19.431,23.14Zm-1.688.42c.068-.068.314.076.268-.188-.028-.162-.045-.4-.316-.357-.181.027-.382.076-.387.309C17.3,23.615,17.541,23.534,17.743,23.56Zm.342-3.767c.193.024.458.2.495-.05.049-.326-.288-.152-.451-.21a1.128,1.128,0,0,1-.253-.088c-.108-.072-.205-.127-.236.048-.024.138-.064.322.148.355A.857.857,0,0,0,18.085,19.793ZM24,24.976c.223-.054.251-.256.284-.427.038-.192-.131-.187-.258-.194-.2-.011-.257.106-.249.282C23.788,24.791,23.813,24.933,24,24.976ZM19.379,21.87c.178-.218.461-.164.69-.328C19.292,21.259,19.292,21.259,19.379,21.87Zm1.551-1.145c.262.187.328.493.656.415.08-.019.077-.164.043-.251C21.506,20.582,21.274,20.65,20.93,20.725Zm-4.66,2.788c-.015-.155-.086-.26-.233-.268-.248-.014-.19.273-.336.374-.035.024.063.146.128.128C15.991,23.7,16.2,23.718,16.27,23.513Zm5.13-1.067c-.127.006-.286-.005-.278.174s.175.154.3.151.3.046.282-.149C21.688,22.478,21.535,22.448,21.4,22.446Zm-2.767-2.453c-.187,0-.257.134-.29.279-.027.116.07.148.173.15.189,0,.259-.131.291-.276C18.832,20.032,18.737,19.993,18.633,19.993Zm2.42,3.532c.015-.516.015-.516-.386-.581ZM16.472,21.59c-.211-.1-.359-.226-.55-.105-.077.048-.05.131,0,.186C16.1,21.845,16.252,21.746,16.472,21.59ZM17.785,23.9c-.1.014-.243-.011-.217.158a.2.2,0,0,0,.2.157.21.21,0,0,0,.247-.164C18.035,23.886,17.89,23.909,17.785,23.9Zm-.228-5.324c-.184.187-.192.321-.045.486C17.666,18.91,17.643,18.766,17.557,18.574Zm-1.5,5.467c-.043-.035-.081-.09-.111-.086a.139.139,0,0,0-.088.1c-.01.072.023.144.113.12C16.008,24.163,16.026,24.1,16.06,24.041Zm1.341-.2-.067-.092c-.038.034-.093.063-.109.106a.067.067,0,0,0,.083.093C17.347,23.938,17.371,23.878,17.4,23.842Z" fill="#cb686c"/>
          <path d="M23.549,18.084c-.2-.063-.32.314-.535.118a.521.521,0,0,1-.11-.3.133.133,0,0,1,.143-.137c.234,0,.445.041.5.321Z" fill="#d28085"/>
          <path d="M21.087,17.857l.051-.044-.045.051Z" fill="#d28085"/>
          <path d="M31.372,30.376v.339a3.94,3.94,0,0,1-.428,1.882c-.27.541-.571,1.092-.813,1.659-.086.2-.231.366-.4.157-.306-.376-.635-.161-.882-.025a.5.5,0,0,0-.124.771.374.374,0,0,1,.02.2c-.319.052-.614.452-.747.428a.644.644,0,0,0-.774.539c0,.458-.364.7-.436,1.089l-.221.006c-.2-.187-.2-.187-.341.072-.245.462-.664.687-1,.52-.2-.1-.356-.3-.66-.293.359.364.218.873.45,1.265-.018.152-.134.287-.249.21-.532-.357-.863.144-1.265.286a1.535,1.535,0,0,1-.613.183,5.273,5.273,0,0,0-1.213-.281,12.073,12.073,0,0,1-1.647-.393.3.3,0,0,0-.267.022c-.286.3-.517.125-.774-.046-.159-.107-.408-.258-.228.168.061.146-.125.208-.2.175-.214-.094-.465-.132-.618-.339l.016-.207-.1-.118-.68-.016c-.061-.081-.175-.128-.221-.054s0,.2,0,.3a.876.876,0,0,1-.1.01c-.371-.057-.423-.4-.643-.651.216-.052.392-.085.47-.251.016-.036-.05-.135-.1-.174a2.9,2.9,0,0,0-1.694.149,1.086,1.086,0,0,1-1.439-.508c-.029-.129-.028-.2.11-.26.24-.095.1-.25.021-.356-.26-.367-.508-.347-.778.034-.037.051-.125.065-.19.1-.088-.127-.223-.1-.347-.106-.164-.489.241-.279.448-.3-.046-.322-.415-.587-.065-.888a.191.191,0,0,0-.068-.121.2.2,0,0,0-.241.085c-.133.208-.256.422-.388.642a.723.723,0,0,1-.09-.894c.057-.132.318-.259.05-.384-.22-.1-.4.027-.423.284a.35.35,0,0,1-.347.358v0l-.1-.117c-.02-.222-.181-.215-.34-.212-.255-.425-.5-.853-.766-1.273a.7.7,0,0,1-.03-.825c.339-.451.807-.069,1.212-.1.192-.015.26.328.223.548-.029.174-.026.366.169.277.568-.258.659.123.8.6-.155-.978.662-.887,1.144-1.183-.37.222-.653-.49-1-.054,0,0-.073-.047-.112-.073-.267-.18-.571-.335-.407-.838-.124.116-.177.143-.194.185-.053.135-.072.318-.284.245a.4.4,0,0,1-.286-.315c-.034-.221.18-.186.288-.266.2-.153.518-.1.659-.363l.287-.017a2.69,2.69,0,0,0,1.705-.391c.065-.055.149-.075.2-.023a.977.977,0,0,0,.694.3c.141,0,.169.121.132.247-.154.512,0,.749.486.978.4.192.692.7,1.253.356.039-.024.171.064.237.125a1.032,1.032,0,0,0,1.368.165c.3-.175.849-.258.945.059.117.39.476.875-.067,1.375.412-.061.907-.208.947-.128.258.517.883.474,1.191.867.1.131.2.237.363.119a.282.282,0,0,0,.031-.441,2.973,2.973,0,0,0-.359-.33c.284.023.5.05.707.055.66.014.729-.075.5-.69-.043-.118-.1-.248.022-.276.47-.108.438-.516.506-.919.437.324.673.859,1.285.779-.045-.391-.425-.446-.631-.657a.287.287,0,0,1-.074-.386c.053-.105.121-.209.236-.217.22-.016.088.2.167.282.284.28.384.866,1,.615.489.044.54-.17.319-.543.083-.46-.326-.827-.24-1.287-.4-.012-.539-.514-.949-.5-.212.007-.294-.137-.35-.3s.045-.282.162-.384c.161-.139.275-.029.38.08a.662.662,0,0,0,.457.166.432.432,0,0,1,.436.35c.1.436.3.48.564.087a1.574,1.574,0,0,1,.335-.282c-.569.194-.69-.84-1.281-.442a1.429,1.429,0,0,0-.421-.471c-.107-.1.311-.075.289-.319a1.851,1.851,0,0,0-.231-.137.4.4,0,0,1-.256-.5c.068-.3.324-.182.506-.191a1.142,1.142,0,0,1,.783.388c.339.3.559.34.719-.142a.313.313,0,0,1,.529-.178c.453.4.726.326.969-.215a.327.327,0,0,1,.526-.1c.1.085.33.109.25.311a.311.311,0,0,1-.451.189c-.153-.063-.26.011-.257.182.006.258.167.14.311.139.55,0,.713-.468,1-.79.082-.091.145-.173.087-.291-.072-.144-.185-.128-.33-.108a8.181,8.181,0,0,1-.887.044c-.107,0-.247.017-.251-.14,0-.1.09-.16.189-.177a3.51,3.51,0,0,0,1.28-.728c.168-.111.338-.093.365.147.052.47.421.594.776.659a3.637,3.637,0,0,1,.612.239c.094.034.175.079.16.191s-.109.132-.2.149a5.882,5.882,0,0,0-.652.133c-.143.043-.312.2-.078.279.35.109.186.222.119.426-.1.307-.264.224-.467.165-.131-.039-.261-.173-.443-.014.3.329.509.787,1.1.38C30.936,30.029,31.171,30.242,31.372,30.376Zm-3.736,3.041c-.014-.206-.152-.234-.311-.242s-.279.14-.455-.036c-.219-.22-.254-.189-.361.139-.038.118-.134.1-.222.119-.51.114-.409.585-.436.9-.026.3.342.154.533.22.414.144.986-.189,1.25.417.045.1.142.072.224-.009.336-.334.3-.694-.156-.817s-.375-.3-.171-.569C27.564,33.5,27.6,33.457,27.636,33.417Zm-7.278,4.312c.337.049.59.251.932.13.251-.089.244-.3.308-.485a.117.117,0,0,0-.152-.157c-.326.135-.409.032-.515-.3-.068-.211-.416-.361-.668-.473-.141-.063-.273.068-.249.263a2.351,2.351,0,0,1,.037.851c-.183.595.225.559.538.7.021-.076.049-.122.036-.142C20.541,37.981,20.448,37.856,20.358,37.729Zm6.1-1.82a4.837,4.837,0,0,1-.11-.62A.4.4,0,0,0,26.1,34.9c-.218-.1-.276.092-.407.175-.169.105-.292.381-.556.239-.109-.058-.166-.309-.325-.113a.362.362,0,0,0,.034.42c.086.116.165.223.361.18.538-.12.74.041.7.53a.465.465,0,0,0,.186.437.18.18,0,0,0,.251.012c.139-.12.105-.264.037-.406C26.287,36.176,26.472,36.017,26.456,35.909Zm-12.689-2.24a.623.623,0,0,1-.416.425c-.2.079-.616.241-.353.565a5.475,5.475,0,0,1,.585.641c.074.125.271.151.335.033.176-.324.411-.145.551-.1C14.9,34.422,14.216,34.135,13.767,33.669Zm15.615-1.948c-.325-.041-.7-.047-.83.458-.027.107-.238.168-.107.319.165.19.241-.058.363-.091.287-.078.49-.531.866-.2.148.129.3.244.491.136.108-.06.1-.194.079-.3-.043-.256-.252-.29-.457-.313A3.959,3.959,0,0,0,29.382,31.721Zm-5.444,6.207c-.333-.165-.623.042-.918.083-.225.032-.287.5-.115.619.438.312.738.2.873-.31A3.2,3.2,0,0,1,23.938,37.928Zm3.351-6.057c-.232.026-.169.216-.157.34.032.337.082.688.525.725.244.021.269-.163.244-.339A.836.836,0,0,0,27.289,31.871Zm-3.311,3.2c-.2.005-.435-.044-.425.272a.463.463,0,0,0,.426.485c.281.018.414-.247.434-.474C24.438,35.078,24.185,35.074,23.978,35.07Zm-.79.588c-.037.3-.493.425-.284.7a.627.627,0,0,0,.614.007C23.821,36.02,23.129,36.008,23.188,35.658Zm3.026-3.44a.36.36,0,0,0-.369-.255c-.142-.008-.184.116-.143.23.046.129.083.3.276.286C26.126,32.468,26.2,32.366,26.214,32.218Zm1.463-1.589c.125.042.19.063.254.086.119.042.239.082.356.131.156.065.36.065.233-.139a.649.649,0,0,0-.69-.2C27.8,30.514,27.777,30.549,27.677,30.629ZM14.98,35.16c.289-.056.63.154.949-.183C15.552,34.994,15.234,34.847,14.98,35.16Zm2.141,1.251c.321-.035.593.1.777-.162a.149.149,0,0,0-.045-.133C17.577,36.036,17.372,36.175,17.121,36.411Zm-2.482-3.785c-.113.026-.229.077-.2.209a.263.263,0,0,0,.3.186.17.17,0,0,0,.17-.179C14.9,32.682,14.784,32.63,14.639,32.626Zm4.893,3.994c0,.077,0,.16.087.18.106.026.112-.071.122-.141s0-.159-.086-.18C19.547,36.453,19.55,36.552,19.532,36.62Z" fill="#73abad"/>
          <path d="M12.113,31.864c-.141.264-.456.21-.659.363-.108.08-.322.045-.288.266a.4.4,0,0,0,.286.315c.212.073.231-.11.284-.245.017-.042.07-.069.194-.185-.164.5.14.658.407.838.039.026.11.076.112.073.35-.436.633.276,1,.054-.482.3-1.3.2-1.144,1.183-.144-.473-.235-.854-.8-.6-.2.089-.2-.1-.169-.277.037-.22-.031-.563-.223-.548-.4.033-.873-.349-1.212.1a.7.7,0,0,0,.03.825c.263.42.511.848.766,1.273a.955.955,0,0,1-.989-.76c-.1-.478-.434-.9-.485-1.323-.077-.64-.6-.884-.85-1.345-.02-.037-.095-.045-.144-.068-.156-.072-.32-.167-.276-.361s.266-.166.411-.231a1.9,1.9,0,0,1,.539.1,5.338,5.338,0,0,0,3.052.509A.469.469,0,0,1,12.113,31.864Zm-1.439.651c.009,0,.18.375.24-.01.019-.125.017-.317-.147-.311a2.144,2.144,0,0,1-1.04-.323c-.1-.049-.218.038-.291.123a.1.1,0,0,0,.062.172C9.874,32.245,10.053,32.875,10.674,32.515Z" fill="#8ab4b6"/>
          <path d="M12.609,36.963c.065-.031.153-.045.19-.1.27-.381.518-.4.778-.034.076.106.219.261-.021.356-.138.055-.139.131-.11.26a1.086,1.086,0,0,0,1.439.508,2.9,2.9,0,0,1,1.694-.149c.052.039.118.138.1.174-.078.166-.254.2-.47.251.22.249.272.594.643.651-.072.115-.256.257-.3.19-.283-.475-.767-.142-1.135-.3-.279-.123-.622-.027-.962-.191-.3-.146-.65-.123-.806-.527-.077-.2-.33.091-.5-.073C12.862,37.7,12.54,37.439,12.609,36.963Z" fill="#8ab4b6"/>
          <path d="M17.942,38.969c.153.207.4.245.618.339.074.033.26-.029.2-.175-.18-.426.069-.275.228-.168.257.171.488.342.774.046a.3.3,0,0,1,.267-.022,12.073,12.073,0,0,0,1.647.393,5.273,5.273,0,0,1,1.213.281c-.065.064-.139.188-.2.181-.629-.086-1.245.244-1.876.047-.317-.1-.623-.189-.917.112-.154.157-.328.116-.383-.166-.045-.229-.07-.5-.441-.176-.3.262-.711.025-1.033-.12A.353.353,0,0,1,17.942,38.969Z" fill="#8ab4b6"/>
          <path d="M11.138,35.637a.35.35,0,0,0,.347-.358c.025-.257.2-.387.423-.284.268.125.007.252-.05.384a.723.723,0,0,0,.09.894c.132-.22.255-.434.388-.642a.2.2,0,0,1,.241-.085.191.191,0,0,1,.068.121c-.35.3.019.566.065.888-.207.023-.612-.187-.448.3C11.827,36.506,11.146,36.381,11.138,35.637Z" fill="#8ab4b6"/>
          <path d="M25.015,38.984c-.232-.392-.091-.9-.45-1.265.3-.007.457.192.66.293.336.167.755-.058,1-.52.138-.259.138-.259.341-.072-.179.518-.8.717-.916,1.3C25.584,39.029,25.151,38.7,25.015,38.984Z" fill="#8ab4b6"/>
          <path d="M6.7,30.037c.121-.242.245-.449.4-.021.037.1.046.215.164.264l-.008.17c-.017.171-.082.353.1.483h0c-.035.2-.134.218-.306.131s-.273-.247-.473-.246l-.294-.19C6.463,30.46,6.741,30.353,6.7,30.037Z" fill="#cb686c"/>
          <path d="M6.572,30.817c.2,0,.315.165.473.246s.271.07.306-.131c.171.208.087.454.1.686L6.677,31.5C6.922,31.226,6.463,31.065,6.572,30.817Z" fill="#d28085"/>
          <path d="M15.465,39.954a3.467,3.467,0,0,1,1.48.539A2.748,2.748,0,0,1,15.465,39.954Z" fill="#8ab4b6"/>
          <path d="M6.677,31.5l.776.123a.088.088,0,0,1,.024.069c-.054.166.091.431-.23.466h0A.2.2,0,0,0,7,31.961a.476.476,0,0,0-.09-.03L6.675,31.5Z" fill="#bf4e50"/>
          <path d="M16.957,38.874c0-.1-.048-.229,0-.3s.16-.027.221.054C17.175,38.774,17.116,38.867,16.957,38.874Z" fill="#8ab4b6"/>
          <path d="M7.352,30.933c-.183-.13-.118-.312-.1-.483A.555.555,0,0,1,7.352,30.933Z" fill="#d28085"/>
          <path d="M17.854,38.644l.1.118Z" fill="#8ab4b6"/>
          <path d="M11.037,35.517l.1.117Z" fill="#8ab4b6"/>
          <path d="M32.723,13.345a1.375,1.375,0,0,0,.219-.761c-.024-.131.008-.269.175-.3a.4.4,0,0,1,.41.106c.1.122.067.226-.041.338-.193.2-.047.327.117.443.106.077.146.182.044.278-.135.126-.142-.033-.211-.1C33.238,13.162,33.02,13.417,32.723,13.345Z" fill="#cb686c"/>
          <path d="M31.205,11.265c-.108-.01-.247,0-.247-.149,0-.225.19-.174.324-.178.1,0,.257-.022.251.127C31.525,11.255,31.352,11.259,31.205,11.265Z" fill="#cb686c"/>
          <path d="M30.97,11.639c.108.056.261.075.264.238,0,.148-.118.168-.232.163-.138-.007-.263-.063-.261-.221C30.743,11.692,30.84,11.634,30.97,11.639Z" fill="#cb686c"/>
          <path d="M31.392,33.3c.3.074.615.126.909.229.223.077.455.253.454.485,0,.272-.321.007-.471.182.421.367.742.174,1.044-.147.072-.076.11-.215.255-.135.111.062.119.17.117.289a1.3,1.3,0,0,1-.487,1.037c-.238.2-.46.4-.73.031a.326.326,0,0,0-.343-.141c-.139.051-.02.205-.051.283a1.305,1.305,0,0,1-.738.632c-.29.136-.311-.166-.347-.354-.093-.484-.573-.181-.793-.4A6.892,6.892,0,0,1,31.392,33.3Zm.079,1.022c.082.1-.1.364.178.345.17-.011.247-.225.239-.388s-.076-.38-.257-.374C31.372,33.909,31.53,34.157,31.471,34.318Z" fill="#629955"/>
          <path d="M6.675,31.5l.235.434a2.471,2.471,0,0,1-.935-.559C6.3,31.22,6.474,31.435,6.675,31.5Z" fill="#d28085"/>
          <path d="M7,31.961a.2.2,0,0,1,.243.192A.2.2,0,0,1,7,31.961Z" fill="#d28085"/>
          <path d="M32.277,37.726H32.14C32.186,37.666,32.232,37.666,32.277,37.726Z" fill="#80b180"/>
          <path d="M3.773,29.145c.033-.15.065-.3.1-.45.174.015.373-.022.271.289C4.066,29.215,3.978,29.277,3.773,29.145Z" fill="#d99466"/>
          <path d="M29.769,14.429a9.324,9.324,0,0,0-.476-1.374c-.146-.256-.257-.348-.511-.342.112-.1.054-.222.032-.337a.4.4,0,0,0,.215-.328c.544-.042,1.006.007,1.024.731,0,.229.252.152.407.169.266.369.165,1.059.895,1.023l.108.2-.005.217c-.179.105-.36.183-.535,0s-.371-.087-.56-.11c-.027-.068-.059-.134-.082-.2-.046-.142,0-.383-.255-.321-.208.051-.221.2-.1.379S29.805,14.32,29.769,14.429Z" fill="#bf4e50"/>
          <path d="M31.458,14.392c0-.073,0-.145.005-.217.067-.033.124-.092.075-.155-.031-.04-.12-.034-.183-.049-.73.036-.629-.654-.895-1.023a2.233,2.233,0,0,1,.386-.21c.118-.037.278-.059.362.062.105.151-.037.225-.14.3a.237.237,0,0,0-.113.287c.058.137.18.113.282.064.3-.144.329.076.416.267.159.349.2.955.829.4a.534.534,0,0,1,.484.139c.083.226-.189.18-.318.257A.869.869,0,0,1,31.458,14.392Z" fill="#d28085"/>
          <path d="M29.769,14.429c.036-.109.27-.127.157-.295s-.108-.328.1-.379c.259-.062.209.179.255.321.023.069.055.135.082.2l-.006.225c-.177.361-.375-.009-.563.016A.362.362,0,0,1,29.769,14.429Z" fill="#d99466"/>
          <path d="M33.711,14.4l-.043-.053.054.042Z" fill="#d28085"/>
          <path d="M30.614,23.451l.181.2a3.636,3.636,0,0,1,.566,1.232c-.484-.113-.719.35-1.1.474l-.023-.025a1.91,1.91,0,0,1,.211-.569c.4-.5.185-.7-.376-.782C30.225,23.732,30.612,23.779,30.614,23.451Z" fill="#dea6a7"/>
          <path d="M25.367,19.76c.182.007.471.037.451.2-.036.3-.391.256-.616.33-.164.054-.2-.1-.2-.244C24.993,19.785,25.16,19.748,25.367,19.76Z" fill="#dea6a7"/>
          <path d="M25.012,23.332c-.242.222-.405.113-.514-.135-.123-.281.067-.3.27-.3Z" fill="#bf4e50"/>
          <path d="M30.049,25.356l.189-.025.023.025c-.053.26-.278.46-.259.745l-.315.022-.009-.009.351-.749Z" fill="#dea6a7"/>
          <path d="M31.36,24.882A3.615,3.615,0,0,0,30.8,23.65c.076-.259.3-.282.417-.125.316.428.9.524,1.165,1a.526.526,0,0,0,.465.256c.582.029.8.4.889.913a6.131,6.131,0,0,1-.914,1.67c-.177-.145.116-.558-.318-.557a.6.6,0,0,0-.639-.188Z" fill="#722d1f"/>
          <path d="M35.816,27.152c-.442.052-.593-.269-.748-.585a1.1,1.1,0,0,1,.9.581Z" fill="#826a34"/>
          <path d="M37.4,25.009c0-.037,0-.074,0-.111.009-.194-.062-.442.237-.475.13-.014.173.138.186.236.044.321-.174.362-.419.359Z" fill="#629955"/>
          <path d="M29.144,13.719c.421.082.354.379.3.672C28.964,14.333,28.961,14.067,29.144,13.719Z" fill="#dea380"/>
          <path d="M29.687,26.123,30,26.1a2.53,2.53,0,0,1,1.809.56l.125.81c-.069.189.086.322.122.486a.926.926,0,0,0-.366,1,1.582,1.582,0,0,1-.32,1.423c-.2-.134-.436-.347-.656-.194-.589.407-.8-.051-1.1-.38.182-.159.312-.025.443.014.2.059.366.142.467-.165.067-.2.231-.317-.119-.426-.234-.074-.065-.236.078-.279a5.882,5.882,0,0,1,.652-.133c.1-.017.19-.037.2-.149s-.066-.157-.16-.191a3.637,3.637,0,0,0-.612-.239c-.355-.065-.724-.189-.776-.659-.027-.24-.2-.258-.365-.147a3.51,3.51,0,0,1-1.28.728c-.1.017-.191.079-.189.177,0,.157.144.143.251.14a8.181,8.181,0,0,0,.887-.044c.145-.02.258-.036.33.108.058.118,0,.2-.087.291-.287.322-.45.786-1,.79-.144,0-.3.119-.311-.139,0-.171.1-.245.257-.182a.311.311,0,0,0,.451-.189c.08-.2-.15-.226-.25-.311a.327.327,0,0,0-.526.1c-.243.541-.516.613-.969.215a.313.313,0,0,0-.529.178c-.16.482-.38.438-.719.142a1.142,1.142,0,0,0-.783-.388c-.182.009-.438-.113-.506.191a.4.4,0,0,0,.256.5,1.851,1.851,0,0,1,.231.137c.022.244-.4.218-.289.319a1.429,1.429,0,0,1,.421.471c.591-.4.712.636,1.281.442a1.574,1.574,0,0,0-.335.282c-.264.393-.46.349-.564-.087a.432.432,0,0,0-.436-.35.662.662,0,0,1-.457-.166c-.105-.109-.219-.219-.38-.08-.117.1-.219.216-.162.384s.138.308.35.3c.41-.014.551.488.949.5-.086.46.323.827.24,1.287-.133.165-.308.3-.319.543-.612.251-.712-.335-1-.615-.079-.077.053-.3-.167-.282-.115.008-.183.112-.236.217a.287.287,0,0,0,.074.386c.206.211.586.266.631.657-.612.08-.848-.455-1.285-.779-.068.4-.036.811-.506.919-.122.028-.065.158-.022.276.226.615.157.7-.5.69-.212-.005-.423-.032-.707-.055a2.973,2.973,0,0,1,.359.33.282.282,0,0,1-.031.441c-.163.118-.259.012-.363-.119-.308-.393-.933-.35-1.191-.867-.04-.08-.535.067-.947.128.543-.5.184-.985.067-1.375-.1-.317-.646-.234-.945-.059a1.032,1.032,0,0,1-1.368-.165c-.066-.061-.2-.149-.237-.125-.561.348-.849-.164-1.253-.356-.481-.229-.64-.466-.486-.978.037-.126.009-.242-.132-.247a.977.977,0,0,1-.694-.3c-.051-.052-.135-.032-.2.023a2.69,2.69,0,0,1-1.7.391,17.65,17.65,0,0,0,2.172-.912,1.458,1.458,0,0,0,.607-.464c.039.023.09.073.114.062.079-.036.065-.1.017-.16l.077-.076c.174.12.32-.085.488-.043-.15.4.129.638.31.929.213.343.633.5.77.9l.13.425c-.085.143-.191.285-.042.449.094.1.193.062.3.013.245-.112.071-.28.063-.426,0-.055-.01-.11-.016-.165l.2-.1a.489.489,0,0,1,.388.089c.214.272.519.061.769.145.336-.043.627.381.987.1.146-.2.344-.132.544-.132.809,0,1.618-.01,2.062-.88.045-.088.162-.139.246-.208a9.524,9.524,0,0,0,.764-1.211,1.879,1.879,0,0,0,.133-1.644.408.408,0,0,1,.094-.46c.433.115.675.564,1.138.636a3.787,3.787,0,0,0,3.027-.862c.237-.187.638-.139.731-.512.325.036.6,0,.578-.428a.119.119,0,0,0,.07-.08C29.57,26.805,29.738,26.552,29.687,26.123ZM20.663,33.9c-.14-.051-.239-.069-.3.014-.08.105-.023.206.047.3.152.2.419.319.454.6.022.18.094.28.288.215s.33-.194.256-.414C21.276,34.237,21.156,33.829,20.663,33.9Zm-2.527-.826c0-.133-.071-.211-.163-.2a.477.477,0,0,0-.44.426.142.142,0,0,0,.146.187C17.938,33.465,17.994,33.211,18.136,33.076ZM30.2,27.349c.132-.037.306-.049.337-.212s-.115-.21-.246-.22c-.151-.012-.3.021-.333.2C29.936,27.273,30.062,27.326,30.2,27.349ZM24.54,32.1a.28.28,0,0,0-.3-.259c-.119,0-.238.029-.213.179.029.174.189.212.334.238C24.466,32.275,24.526,32.206,24.54,32.1Z" fill="#8ab4b6"/>
          <path d="M16.187,25.249a1.7,1.7,0,0,0,.434.035c.269-.048.657.024.58-.472a.338.338,0,0,1,.321-.426c.237-.01.349.169.331.411a.664.664,0,0,0,.116.419c0,.387-.187.549-.575.484-.233-.039-.357.093-.472.289-.189.321-.419.618-.632.924-.072-.412-.373-.347-.707-.257l.6.39c-.031.15-.084.276.077.424s.161.359-.126.433c-.118-.035-.189-.226-.324-.148-.163.093-.066.252-.031.389.026.105.04.213.059.319,0,.252.051.529-.318.576-.176-.029-.162-.4-.407-.257s-.073.327.02.494c.028.052,0,.134,0,.2a1.231,1.231,0,0,1-.717,1.3,5.991,5.991,0,0,1-3.829.813,2.888,2.888,0,0,1-1.775-.748c-.145-.14-.125-.3-.153-.456L8.86,30.3c-.026-.042-.056-.121-.077-.118-.3.035-.621-.025-.624-.35,0-.381.365-.539.749-.658-.7-.237-.7-.237-.334-1.155.259.019.525.05.562-.321.229-.171.371-.441.719-.478a.4.4,0,0,0,.269-.472c-.06-.227.112-.347.147-.49.142-.566.8-.626.972-1.119.221.106.484.3.651,0,.118-.214,0-.436-.3-.466-.252-.414.334-.4.348-.744.044.523.3.486.7.488a2.374,2.374,0,0,1,1.52.734v-.8h0a.682.682,0,0,1,.691.248c.088.126.339.2.231.391-.16.285-.287-.148-.458-.057-.059.732-.136.747-.829.383-.211-.111-.65-.423-.658.261,0,.34-.435.49-.8.326-.1-.046-.1-.046-.381.4a8.679,8.679,0,0,0,1.523.177c.634.629.777.628,1.232-.012.353.069.594.01.515-.437a.582.582,0,0,1,.388-.672c.076.135.088.354.311.319S16.2,25.45,16.187,25.249ZM12.151,26.8c.214.39.254.394.639,0h-.641c-.463-.656-.638-.669-1.23-.014C11.372,26.763,11.777,26.568,12.151,26.8Zm-.966,3.336a5.944,5.944,0,0,1-1.175-.293c-.291-.1-.432.113-.6.284-.052.054-.123.085-.06.168a.147.147,0,0,0,.2.034c.18-.095.411-.277.562-.15C10.494,30.5,10.828,30.233,11.185,30.136Zm.589-1.812a2.969,2.969,0,0,1-1,.161c-.1-.012-.251-.02-.241.141.009.126.064.239.252.207a1.122,1.122,0,0,1,.546,0C11.841,29.019,11.848,28.748,11.774,28.324Zm-.935,1.231c.278.054.5.134.678-.112a.137.137,0,0,0-.057-.224C11.192,29.136,11.025,29.3,10.839,29.555Zm2.455-1.528a.27.27,0,0,0-.223.332c.025.112.084.218.215.2.181-.032.2-.192.2-.338A.171.171,0,0,0,13.294,28.027Zm-4.653.645-.091-.04c-.013.03-.043.067-.034.089s.055.029.085.043Z" fill="#bf4e50"/>
          <path d="M15.524,29.039c.369-.047.32-.324.318-.576.367-.044.493-.217.3-.56.287-.074.3-.276.126-.433s-.108-.274-.077-.424l.1-.133c.213-.306.443-.6.632-.924.115-.2.239-.328.472-.289.388.065.573-.1.575-.484.259-.145.609-.108.8-.4l1.551-.043.028.113c-.024.067.008.1.068.128.174.191.379.05.57.051.007.143.1.166.22.163l.017.122a.64.64,0,0,0-.353.612,10.2,10.2,0,0,1-.68,2.277c-.232.73-.9,1.244-.931,2.048,0,.05-.095.129-.154.139-.7.113-1.04.741-1.588,1.069a1.034,1.034,0,0,1-.716-1.054c-.009-.268-.066-.366-.289-.423.207-.479-.144-.55-.467-.642-.11-.242-.278-.1-.43-.066a.077.077,0,0,0-.084-.058Z" fill="#722d1f"/>
          <path d="M9.515,18.043a3.287,3.287,0,0,0,1.064-.637c.191-.22.621-.261.955-.32.389-.069.791.035,1.19-.056a.338.338,0,0,1,.425.179c.084.238.3.179.467.214.006.386.616.336.554.77a9.369,9.369,0,0,0-2.032,1.272,16.8,16.8,0,0,1-1.524-.764C10.238,18.5,10.026,18.006,9.515,18.043Z" fill="#722d1f"/>
          <path d="M9.515,18.043c.511-.037.723.452,1.1.658a16.538,16.538,0,0,0,1.524.763,4.557,4.557,0,0,0-1.086,1.087c-.224.166-.341.447-.607.57a26.075,26.075,0,0,1-1.571-2.65C9.005,18.2,9.287,18.165,9.515,18.043Z" fill="#826a34"/>
          <path d="M11.052,20.551a4.557,4.557,0,0,1,1.086-1.087,9.4,9.4,0,0,1,2.032-1.271c.243-.163.486-.353.756.036-.432.17-.97.153-1.045.767-.017.134-.222.091-.348.092-.211,0-.419,0-.477.27-.068.318.26.24.38.371-.322.278-.323.279-.643-.077-.058-.065-.157-.1-.184-.033-.216.529-.986.387-1.162,1.038C11.321,21.122,11.173,20.663,11.052,20.551Z" fill="#dea6a7"/>
          <path d="M16.041,29.378c.323.092.674.163.467.642a1.124,1.124,0,0,1-.633.234c-.168-.042-.314.163-.488.043C15.435,29.87,15.865,29.714,16.041,29.378Z" fill="#dea380"/>
          <path d="M19.973,18.42c.072.325-.3.494-.251.818a.787.787,0,0,1-.531-.483.4.4,0,0,0,0-.1.582.582,0,0,1,.545-.252Z" fill="#dea6a7"/>
          <path d="M19.738,18.405a.582.582,0,0,0-.545.252,2.483,2.483,0,0,1,.07-.477c.064-.185.055-.541.32-.461C19.877,17.808,19.93,18.118,19.738,18.405Z" fill="#cb686c"/>
          <path d="M10.251,23.9a1.106,1.106,0,0,1,.221-.015c.15.019.289-.385.428-.037.1.256-.073.42-.325.476a2.146,2.146,0,0,1-.332.019C10.245,24.193,10.248,24.045,10.251,23.9Z" fill="#bf4e50"/>
          <path d="M15.524,29.039c0,.072,0,.143,0,.215l-.033.2-.352.023c0-.068.024-.15,0-.2-.093-.167-.268-.347-.02-.494S15.348,29.01,15.524,29.039Z" fill="#cb686c"/>
          <path d="M16.292,17.149c-.245.133-.4.217-.558.3-.121.067-.253.127-.317-.049a.221.221,0,0,1,.18-.294A1.128,1.128,0,0,1,16.292,17.149Z" fill="#dea6a7"/>
          <path d="M5.954,29.185c.03.159-.081.193-.2.183-.148-.013-.371.084-.394-.176-.014-.162.154-.2.271-.236C5.824,28.893,5.9,29.032,5.954,29.185Z" fill="#dea6a7"/>
          <path d="M15.817,18.429c-.064.038-.1.079-.144.081-.075,0-.139-.04-.113-.123.01-.03.086-.056.13-.053S15.761,18.385,15.817,18.429Z" fill="#cb686c"/>
          <path d="M15.31,30.373c.048.06.062.124-.017.16-.024.011-.075-.039-.114-.062Z" fill="#dea380"/>
          <path d="M15.493,29.455l.033-.2a.078.078,0,0,1,.085.058C15.618,29.4,15.586,29.452,15.493,29.455Z" fill="#bf4e50"/>
          <path d="M36.834,33.3c.231.27.721.363.463.822-.071.127-.233-.02-.342-.072C36.6,33.882,36.61,33.63,36.834,33.3Z" fill="#a9c9a3"/>
          <path d="M32.058,27.958c-.036-.164-.191-.3-.122-.486.543.081.558-.287.563-.662.434,0,.141.412.318.557.036.346-.2.514-.443.676Z" fill="#826a34"/>
          <path d="M22.905,26.9c-.164.18-.144.312.095.4s.265.269.244.482c-.58.1-.89.718-.778,1.44a1.94,1.94,0,0,1-.35,1.371,7.727,7.727,0,0,1-.876-3.572c.157-.057.325.136.458,0,.055-.055.057-.276.017-.3-.469-.255-.24-.707-.323-1.067l.007-.3.038-.01c.444.034.5.692,1.022.629.085-.01.1.16.072.239-.184.489.136.478.455.473l0,0a1.032,1.032,0,0,0-.006.111Z" fill="#722d1f"/>
          <path d="M22.116,30.593a1.94,1.94,0,0,0,.35-1.371c-.112-.722.2-1.342.778-1.44l.331.293a.408.408,0,0,0-.094.46,1.879,1.879,0,0,1-.133,1.644,9.524,9.524,0,0,1-.764,1.211C22.57,31.041,22.206,30.9,22.116,30.593Z" fill="#826a34"/>
          <path d="M20.316,24.775l-1.551.043c-.114-.2-.584-.132-.429-.52a1.25,1.25,0,0,1,.778-.725c.09-.031.223-.043.218.141-.014.527.351.665.774.737l-.013.133-.046.016.053.041C20.187,24.661,20.276,24.678,20.316,24.775Z" fill="#bf4e50"/>
          <path d="M8.347,26.127c.386-.174.738-.5,1.215-.169.094.065.329-.075.511-.124a1.028,1.028,0,0,1-1.4.851c-.074-.022-.186-.07-.138-.122.292-.312-.224-.252-.19-.436Z" fill="#bf4e50"/>
          <path d="M14.276,23.559a.223.223,0,0,1,.218-.106l.562.1c-.016.419-.219.632-.652.584-.163-.019-.236.053-.243.209h0c-.269.151-.457.143-.458-.233C13.9,23.933,14.282,23.946,14.276,23.559Z" fill="#bf4e50"/>
          <path d="M14.716,26.459c-.455.64-.6.641-1.232.012a1.56,1.56,0,0,0,.774-.556c.042.291.283.19.452.231Z" fill="#d28085"/>
          <path d="M20.093,24.584l.013-.133a1.115,1.115,0,0,1,1.331.905l-.038.01-.18-.014L21.2,25.23c-.006-.1.042-.228-.085-.279-.082-.033-.121.04-.135.116-.191,0-.4.14-.57-.051l-.068-.128-.028-.113c-.04-.1-.129-.114-.216-.134A.342.342,0,0,1,20.093,24.584Z" fill="#d28085"/>
          <path d="M11.6,24.668c.3.03.417.252.3.466-.167.3-.43.109-.651,0-.071-.367-.3-.1-.407-.068-.318.106-.4-.046-.437-.329A2.618,2.618,0,0,0,11.6,24.668Z" fill="#d28085"/>
          <path d="M28.419,27.256a3.054,3.054,0,0,0-.185-.4c-.088-.137-.155-.268-.018-.4.191-.182.238.046.336.13.368.316.4-.3.676-.245-.036.161-.073.322-.109.483a.12.12,0,0,1-.069.08Z" fill="#d28085"/>
          <path d="M15.279,21.1a.244.244,0,0,0-.032-.045.485.485,0,0,1-.113-.687c.058-.1.216-.2.339-.1a.805.805,0,0,1,.328.676c-.041.277-.34.111-.522.154Z" fill="#d28085"/>
          <path d="M25,23.9c-.05.218.113.328.228.466.073.088.244.151.129.311a.326.326,0,0,1-.4.1c-.265-.11-.264-.42-.34-.632-.084-.235.205-.226.382-.244Z" fill="#d28085"/>
          <path d="M27.612,24.227c.567-.533,1.1-.623,1.5-.323C28.682,24.175,28.2,24.079,27.612,24.227Z" fill="#d28085"/>
          <path d="M17.425,21.322c.2.531-.341.257-.488.433-.083.1-.188-.128-.184-.226.013-.344.33-.444.565-.5C17.57,20.959,17.44,21.2,17.425,21.322Z" fill="#d28085"/>
          <path d="M26.051,25.294a.846.846,0,0,1,.931-.355c.243.066.136.329.11.548C26.785,25.234,26.414,25.433,26.051,25.294Z" fill="#d28085"/>
          <path d="M11.143,22.444a1.3,1.3,0,0,1,.77.8c-.881-.16-1.043-.333-.768-.8Z" fill="#d28085"/>
          <path d="M19.064,21.149c.23-.265-.048-.685.383-.807a.2.2,0,0,1,.259.208C19.659,20.851,19.627,21.2,19.064,21.149Z" fill="#d28085"/>
          <path d="M19.431,23.14c.536.216.826.04.908-.509.077.34.151.647-.241.828C19.793,23.6,19.567,23.567,19.431,23.14Z" fill="#d28085"/>
          <path d="M15.056,23.55l-.562-.1c.031-.165-.063-.365.194-.457a.589.589,0,0,1,.585.175C15.5,23.379,15.107,23.4,15.056,23.55Z" fill="#d28085"/>
          <path d="M17.743,23.56c-.2-.026-.442.055-.435-.236,0-.233.206-.282.387-.309.271-.04.288.2.316.357C18.057,23.636,17.811,23.492,17.743,23.56Z" fill="#d28085"/>
          <path d="M18.085,19.793a.857.857,0,0,1-.3.055c-.212-.033-.172-.217-.148-.355.031-.175.128-.12.236-.048a1.128,1.128,0,0,0,.253.088c.163.058.5-.116.451.21C18.543,19.991,18.278,19.817,18.085,19.793Z" fill="#d28085"/>
          <path d="M14.276,23.559c.006.387-.375.374-.572.55-.251-.028-.24-.2-.174-.362s.163-.293.372-.253C14.026,23.518,14.151,23.537,14.276,23.559Z" fill="#d28085"/>
          <path d="M16.187,25.249c.013.2-.031.384-.257.42s-.235-.184-.311-.319l0,0a.218.218,0,0,0,.107-.225c.121-.051.149-.266.335-.2C16.21,24.986,16.154,25.138,16.187,25.249Z" fill="#d28085"/>
          <path d="M24,24.976c-.19-.043-.215-.185-.223-.339-.008-.176.054-.293.249-.282.127.007.3,0,.258.194C24.254,24.72,24.226,24.922,24,24.976Z" fill="#dea6a7"/>
          <path d="M29.119,26.829c.036-.161.073-.322.109-.483a.414.414,0,0,0,.034-.1l.106-.1a.654.654,0,0,0,.106-.034l.2,0,.009.009C29.738,26.552,29.57,26.805,29.119,26.829Z" fill="#dea6a7"/>
          <path d="M19.379,21.87c-.087-.611-.087-.611.69-.328C19.84,21.706,19.557,21.652,19.379,21.87Z" fill="#d28085"/>
          <path d="M22.986,26.7a1.681,1.681,0,0,1,.183-.662c.141.229.377.444.341.592-.067.272-.342.058-.528.065Z" fill="#bf4e50"/>
          <path d="M20.93,20.725c.344-.075.576-.143.7.164.034.087.037.232-.043.251C21.258,21.218,21.192,20.912,20.93,20.725Z" fill="#dea6a7"/>
          <path d="M16.27,23.513c-.072.2-.279.188-.441.234-.065.018-.163-.1-.128-.128.146-.1.088-.388.336-.374C16.184,23.253,16.255,23.358,16.27,23.513Z" fill="#d28085"/>
          <path d="M14.71,26.146c-.169-.041-.41.06-.452-.231.184-.327.4-.194.583-.018C15,26.056,14.842,26.108,14.71,26.146Z" fill="#bf4e50"/>
          <path d="M29.678,26.114l-.2,0c.167-.264-.062-.82.555-.752Z" fill="#d28085"/>
          <path d="M21.4,22.447c.135,0,.288.031.3.175.015.2-.167.145-.282.149s-.287.029-.3-.151S21.273,22.452,21.4,22.447Z" fill="#bf4e50"/>
          <path d="M18.633,19.994c.1,0,.2.038.174.152-.032.145-.1.28-.291.276-.1,0-.2-.034-.173-.15C18.376,20.127,18.446,19.991,18.633,19.994Z" fill="#d28085"/>
          <path d="M9.136,27.7c-.037.371-.3.34-.562.321C8.522,27.49,8.932,27.773,9.136,27.7Z" fill="#d28085"/>
          <path d="M28.419,27.256l.631-.347c.018.428-.254.464-.579.428A.385.385,0,0,1,28.419,27.256Z" fill="#dea6a7"/>
          <path d="M21.053,23.525l-.386-.581C21.068,23.009,21.068,23.009,21.053,23.525Z" fill="#d28085"/>
          <path d="M16.472,21.59c-.22.156-.375.255-.547.081-.053-.055-.08-.138,0-.186C16.113,21.364,16.261,21.492,16.472,21.59Z" fill="#d28085"/>
          <path d="M17.786,23.9c.1.011.249-.012.228.151a.21.21,0,0,1-.247.164.2.2,0,0,1-.2-.157C17.542,23.887,17.684,23.912,17.786,23.9Z" fill="#d28085"/>
          <path d="M17.557,18.574c.086.192.109.336-.045.486C17.365,18.9,17.373,18.761,17.557,18.574Z" fill="#d28085"/>
          <path d="M15.279,21.1a.786.786,0,0,1-.264.5c-.034-.315.028-.455.264-.5Z" fill="#d28085"/>
          <path d="M16.06,24.041c-.034.055-.052.122-.086.131-.09.024-.123-.048-.113-.12a.139.139,0,0,1,.088-.1C15.979,23.951,16.017,24.006,16.06,24.041Z" fill="#d28085"/>
          <path d="M17.4,23.842c-.03.036-.054.1-.093.107a.067.067,0,0,1-.083-.093c.016-.043.071-.072.109-.106Z" fill="#d28085"/>
          <path d="M15.722,25.127a.218.218,0,0,1-.107.225A.245.245,0,0,1,15.722,25.127Z" fill="#bf4e50"/>
          <path d="M22.905,26.9l.071-.1Z" fill="#bf4e50"/>
          <path d="M29.368,26.151l-.106.1Z" fill="#d28085"/>
          <path d="M27.636,33.417c-.034.04-.072.079-.105.122-.2.267-.289.445.171.569s.492.483.156.817c-.082.081-.179.112-.224.009-.264-.606-.836-.273-1.25-.417-.191-.066-.559.077-.533-.22.027-.315-.074-.786.436-.9.088-.02.184,0,.222-.119.107-.328.142-.359.361-.139.176.176.306.028.455.036S27.622,33.211,27.636,33.417Z" fill="#8ab4b6"/>
          <path d="M20.358,37.729c.09.127.183.252.267.382.013.02-.015.066-.036.142-.313-.137-.721-.1-.538-.7a2.351,2.351,0,0,0-.037-.851c-.024-.2.108-.326.249-.263.252.112.6.262.668.473.106.333.189.436.515.3a.117.117,0,0,1,.152.157c-.064.181-.057.4-.308.485C20.948,37.98,20.7,37.778,20.358,37.729Z" fill="#8ab4b6"/>
          <path d="M26.456,35.909c.016.108-.169.267-.076.461.068.142.1.286-.037.406a.18.18,0,0,1-.251-.012.465.465,0,0,1-.186-.437c.043-.489-.159-.65-.7-.53-.2.043-.275-.064-.361-.18a.362.362,0,0,1-.034-.42c.159-.2.216.055.325.113.264.142.387-.134.556-.239.131-.083.189-.277.407-.175a.4.4,0,0,1,.244.393A4.837,4.837,0,0,0,26.456,35.909Z" fill="#8ab4b6"/>
          <path d="M13.767,33.669c.449.466,1.135.753.7,1.566-.14-.047-.375-.226-.551.1-.064.118-.261.092-.335-.033A5.475,5.475,0,0,0,13,34.659c-.263-.324.157-.486.353-.565A.623.623,0,0,0,13.767,33.669Zm.178,1.182c.159-.011.352.011.395-.2.032-.161-.1-.243-.237-.23-.181.017-.4.075-.437.272S13.83,34.822,13.945,34.851Z" fill="#8ab4b6"/>
          <path d="M29.382,31.721a3.959,3.959,0,0,1,.4,0c.205.023.414.057.457.313.018.109.029.243-.079.3-.2.108-.343-.007-.491-.136-.376-.328-.579.125-.866.2-.122.033-.2.281-.363.091-.131-.151.08-.212.107-.319C28.68,31.674,29.057,31.68,29.382,31.721Z" fill="#8ab4b6"/>
          <path d="M23.938,37.928a3.2,3.2,0,0,0-.16.392c-.135.512-.435.622-.873.31-.172-.123-.11-.587.115-.619C23.315,37.97,23.605,37.763,23.938,37.928Z" fill="#8ab4b6"/>
          <path d="M27.289,31.871a.836.836,0,0,1,.612.726c.025.176,0,.36-.244.339-.443-.037-.493-.388-.525-.725C27.12,32.087,27.057,31.9,27.289,31.871Z" fill="#8ab4b6"/>
          <path d="M23.979,35.07c.206,0,.459.008.434.283-.02.227-.153.492-.434.474a.463.463,0,0,1-.426-.485C23.543,35.026,23.781,35.075,23.979,35.07Z" fill="#8ab4b6"/>
          <path d="M23.188,35.658c-.059.35.633.362.33.711a.627.627,0,0,1-.614-.007C22.7,36.083,23.151,35.953,23.188,35.658Z" fill="#8ab4b6"/>
          <path d="M26.214,32.218c-.018.148-.088.25-.236.261-.193.013-.23-.157-.276-.286-.041-.114,0-.238.143-.23A.36.36,0,0,1,26.214,32.218Z" fill="#8ab4b6"/>
          <path d="M27.677,30.629c.1-.08.124-.115.153-.121a.649.649,0,0,1,.69.2c.127.2-.077.2-.233.139-.117-.049-.237-.089-.356-.131C27.867,30.692,27.8,30.671,27.677,30.629Z" fill="#8ab4b6"/>
          <path d="M14.98,35.16c.254-.313.572-.166.949-.183C15.61,35.314,15.269,35.1,14.98,35.16Z" fill="#8ab4b6"/>
          <path d="M17.121,36.411c.251-.236.456-.375.732-.3a.149.149,0,0,1,.045.133C17.714,36.515,17.442,36.376,17.121,36.411Z" fill="#8ab4b6"/>
          <path d="M14.639,32.626c.145,0,.259.056.264.216a.17.17,0,0,1-.17.179.263.263,0,0,1-.3-.186C14.41,32.7,14.526,32.652,14.639,32.626Z" fill="#8ab4b6"/>
          <path d="M25.243,33.713c.011-.238.186-.378.319-.543C25.783,33.543,25.732,33.757,25.243,33.713Z" fill="#b0d1d2"/>
          <path d="M19.531,36.62c.019-.068.016-.167.124-.141.083.021.095.105.086.18s-.016.167-.122.141C19.536,36.78,19.528,36.7,19.531,36.62Z" fill="#8ab4b6"/>
          <path d="M10.674,32.515c-.621.36-.8-.27-1.176-.349a.1.1,0,0,1-.062-.172c.073-.085.19-.172.291-.123a2.144,2.144,0,0,0,1.04.323c.164-.006.166.186.147.311C10.854,32.89,10.683,32.513,10.674,32.515Z" fill="#73abad"/>
          <path d="M31.471,34.318c.059-.161-.1-.409.16-.417.181-.006.249.216.257.374s-.069.377-.239.388C31.375,34.682,31.553,34.416,31.471,34.318Z" fill="#80b180"/>
          <path d="M31.355,13.971c.063.015.152.009.183.049.049.063-.008.122-.075.155Z" fill="#cb686c"/>
          <path d="M31.811,26.662A2.53,2.53,0,0,0,30,26.1c-.019-.286.206-.486.259-.746.381-.124.616-.587,1.1-.474q.249.87.5,1.739A.323.323,0,0,0,31.811,26.662Zm-.4-.673a.13.13,0,0,0-.014.045c0,.005.023.009.036.014A.156.156,0,0,0,31.45,26S31.426,25.993,31.414,25.989Z" fill="#b0d1d2"/>
          <path d="M31.811,26.662a.323.323,0,0,1,.049-.041.607.607,0,0,1,.639.189c-.005.375-.02.743-.563.662Z" fill="#bf4e50"/>
          <path d="M17.513,31.5c.061.068.14.205.18.2.933-.248,1.28.8,2.04.917-.361.284-.652-.14-.988-.1-.037-.226-.274-.251-.409-.365-.184-.155-.373-.077-.36.22a.489.489,0,0,0-.388-.089c-.05-.589-.386-.247-.633-.194-.137-.4-.557-.558-.77-.9-.181-.291-.46-.533-.31-.929a1.124,1.124,0,0,0,.633-.234c.223.057.28.155.289.423A1.034,1.034,0,0,0,17.513,31.5Z" fill="#826a34"/>
          <path d="M20.663,33.9c.493-.073.613.335.742.719.074.22-.06.347-.256.414s-.266-.035-.288-.215c-.035-.286-.3-.4-.454-.6-.07-.093-.127-.194-.047-.3C20.424,33.833,20.523,33.851,20.663,33.9Z" fill="#73abad"/>
          <path d="M18.136,33.076c-.142.135-.2.389-.457.41a.142.142,0,0,1-.146-.187.477.477,0,0,1,.44-.426C18.065,32.865,18.138,32.943,18.136,33.076Z" fill="#b0d1d2"/>
          <path d="M17.976,32.367c-.013-.3.176-.375.36-.22.135.114.372.139.409.365C18.5,32.428,18.19,32.639,17.976,32.367Z" fill="#73abad"/>
          <path d="M17.389,32.38c.006.055.013.11.016.165.008.146.182.314-.063.426-.106.049-.2.09-.3-.013-.149-.164-.043-.306.042-.449Z" fill="#b0d1d2"/>
          <path d="M17.389,32.38l-.3.129c-.043-.142-.087-.284-.13-.425.247-.053.583-.4.633.194Z" fill="#73abad"/>
          <path d="M30.2,27.349c-.141-.023-.267-.076-.242-.234.028-.177.182-.21.333-.2.131.01.276.062.246.22S30.335,27.312,30.2,27.349Z" fill="#b0d1d2"/>
          <path d="M24.539,32.1c-.013.108-.073.177-.181.157-.145-.026-.3-.064-.334-.238-.025-.15.094-.182.213-.179A.278.278,0,0,1,24.539,32.1Z" fill="#73abad"/>
          <path d="M11.185,30.136c-.357.1-.691.364-1.072.043-.151-.127-.382.055-.562.15a.147.147,0,0,1-.2-.034c-.063-.083.008-.114.06-.168.166-.171.307-.381.6-.284A5.944,5.944,0,0,0,11.185,30.136Z" fill="#d28085"/>
          <path d="M11.774,28.324c.074.424.067.695-.447.5a1.122,1.122,0,0,0-.546,0c-.188.032-.243-.081-.252-.207-.01-.161.14-.153.241-.141A2.969,2.969,0,0,0,11.774,28.324Z" fill="#cb686c"/>
          <path d="M12.151,26.8c-.374-.232-.779-.037-1.232-.012.592-.655.767-.642,1.23.014Z" fill="#cb686c"/>
          <path d="M16.138,27.9c.2.343.071.516-.3.56-.019-.106-.033-.214-.059-.319-.035-.137-.132-.3.031-.389C15.949,27.677,16.02,27.868,16.138,27.9Z" fill="#cb686c"/>
          <path d="M10.839,29.555c.186-.258.353-.419.621-.336a.137.137,0,0,1,.057.224C11.344,29.689,11.117,29.609,10.839,29.555Z" fill="#d28085"/>
          <path d="M16.29,26.913l-.1.133-.6-.39C15.917,26.566,16.218,26.5,16.29,26.913Z" fill="#cb686c"/>
          <path d="M13.294,28.027a.171.171,0,0,1,.192.19c0,.146-.019.306-.2.338-.131.022-.19-.084-.215-.2A.27.27,0,0,1,13.294,28.027Z" fill="#d28085"/>
          <path d="M12.149,26.8h.641c-.385.392-.425.388-.639,0Z" fill="#cb686c"/>
          <path d="M8.641,28.672l-.04.092c-.03-.014-.077-.021-.085-.043s.021-.059.034-.089Z" fill="#cb686c"/>
          <path d="M20.982,25.067c.014-.076.053-.149.135-.116.127.051.079.178.085.279C21.086,25.233,20.989,25.21,20.982,25.067Z" fill="#cb686c"/>
          <path d="M20.344,24.888l.068.128C20.352,24.993,20.32,24.955,20.344,24.888Z" fill="#bf4e50"/>
          <path d="M21.24,27.021a2.307,2.307,0,0,1,.152-1.36c.083.36-.146.812.323,1.067.04.022.038.243-.017.3C21.565,27.157,21.4,26.964,21.24,27.021Z" fill="#826a34"/>
          <path d="M20.093,24.584a.342.342,0,0,0,.007.057l-.053-.041Z" fill="#cb686c"/>
          <path d="M13.945,34.851c-.115-.029-.319.037-.279-.16s.256-.255.437-.272c.134-.013.269.069.237.23C14.3,34.862,14.1,34.84,13.945,34.851Z" fill="#73abad"/>
          <path d="M31.414,25.989c.012,0,.036.009.036.014a.156.156,0,0,1-.014.045c-.013,0-.036-.009-.036-.014A.13.13,0,0,1,31.414,25.989Z" fill="#8ab4b6"/>
        </g>
        <circle cx="24.194" cy="24.194" r="22.194" fill="none" stroke="#6bafaf" stroke-miterlimit="10" stroke-width="4"/>
      </g>
    </g>
  </g>
</svg>
