<svg xmlns="http://www.w3.org/2000/svg" width="17.07mm" height="17.07mm" viewBox="0 0 48.387 48.387">
  <title>Recurso 66</title>
  <g id="06dce6aa-9d6b-494e-a2a5-d9a46355370d" data-name="Capa 2">
    <g id="43f62667-b2aa-4a1b-83b7-550fd82d7f44" data-name="Capa 2">
      <g>
        <g>
          <path d="M24,9.769a1.693,1.693,0,0,1,2.177.319c.076.082.27.056.409.079a20.208,20.208,0,0,1,1.935,2.582c.334.625.582.468.856-.02.52-.077.78-.57,1.226-.766l2.72-.8a6.676,6.676,0,0,1,4.284.33c.267.116.518.273.375.643-1.023.6-1,1.862-1.7,2.668a3.062,3.062,0,0,0-2.481-.021,2.57,2.57,0,0,1-.393-.747,2.537,2.537,0,0,0-2.105-1.2,1.675,1.675,0,0,0-1.053,1.745q-.048.657-.094,1.315c-.365.424-.29.966-.388,1.461-.287.175-.478.3-.676-.181-.359-.875-1.062-1.068-1.657-.561a.964.964,0,0,1-1.027-.791l-.465-.6a3.359,3.359,0,0,0-.973-1.463.475.475,0,0,0-.292-.448.565.565,0,0,0-.236-.393.265.265,0,0,0-.236-.269l-.184-.157a4.39,4.39,0,0,1-.656-1.125l.007-.78C23.623,10.346,23.942,10.157,24,9.769Z" fill="#6ca7b4"/>
          <path d="M21.4,39.579a13.294,13.294,0,0,0-3.368-.739,10.7,10.7,0,0,0-3.56.853,2.54,2.54,0,0,1-2.681-.113,1.69,1.69,0,0,1-.523-2.418c.084-.169.181-.331.271-.5a20.279,20.279,0,0,1,4.719-1.633l.745-.313c.409.044.817.224,1.23.017a20.625,20.625,0,0,0,2.853.544l2.827.912a2.36,2.36,0,0,0-.679,1.262c-.047.007-.128,0-.134.023-.111.371-.187.776-.743.593-.019-.007-.093.063-.09.093.043.5-.507.878-.278,1.41C21.8,39.645,21.6,39.346,21.4,39.579Z" fill="#ddca60"/>
          <path d="M4.333,23.436q-.065-.426-.128-.853c.072-.981.42-1.726,1.529-1.877.281-.038.214-.254.1-.435a1.615,1.615,0,0,1,.5-1.8,12.372,12.372,0,0,1,2.774-.4,5.647,5.647,0,0,0,2.993-.837l.664-.01c.1.159.214.107.334.036l.307.083c.367.356.992.333,1.249.85-.13.02-.361,0-.328.161.133.637-.3,1.058-.527,1.559a20.926,20.926,0,0,0-4.286.4A6.9,6.9,0,0,0,5.851,22.63c-.378.432-.646,1.106-1.429.977Z" fill="#6ca7b4"/>
          <path d="M4.422,23.607c.783.129,1.051-.545,1.429-.977a6.9,6.9,0,0,1,3.661-2.311,20.923,20.923,0,0,1,4.285-.4c.2.085.5-.106.6.216.048.154.077.4-.071.452-.6.216-.282.581-.186.915l-.47,0c-.576-.381-1.337.1-1.9-.408-.095-.087-.285-.02-.346.14a.352.352,0,0,1-.378.253c-.447-.023-.878-.049-1.1.482-.058.136-.3.117-.453.018-.112-.073-.246-.251-.341-.06-.275.553-.7.27-1.1.162a.773.773,0,0,1-.422,1.153,2.5,2.5,0,0,0-1.266,1.618,5.641,5.641,0,0,1-.749,1.876c.62-.066.652.194.389.605a.278.278,0,0,0-.145.274,2.067,2.067,0,0,0-.162,1.3.571.571,0,0,1-.253-.74c.2-.767-.242-.916-.834-.961-.087-.379-.444-.56-.634-.864a2.158,2.158,0,0,1-.286-1,1.173,1.173,0,0,1,.383-.794C4.311,24.316,4.68,24.059,4.422,23.607Z" fill="#d79194"/>
          <path d="M9.848,36.542a6.289,6.289,0,0,1-3.724-1.7,1.294,1.294,0,0,1-.257-1.521A1.785,1.785,0,0,1,7.2,32.154a4.765,4.765,0,0,1,.559-.068L8,32.064a.722.722,0,0,0,.711.138.857.857,0,0,0,.708.223l.058.034.063-.021.044.015c.058.15.15.139.258.056l.3.078c.118.2.329.13.5.176a2.436,2.436,0,0,0,2.96-.872c.134.024.316.116.394.061.651-.463.71.066.844.48l-.04.047a.192.192,0,0,0-.079.092,3.387,3.387,0,0,0-2.115,1.308c-.267,0-.715-.477-1.058.153-.814-.454-.739.79-1.394.717.432-.138.637.367,1.032.276.658-.151.025-.744.359-1a1.077,1.077,0,0,1,1.015.356c.167.162.427.431.3.723-.119.263-.516.529-.674.4-.582-.469-.981.062-1.269.282a1.258,1.258,0,0,1-1.174.29c-.066-.015-.157.077-.241.122C9.584,36.371,9.844,36.324,9.848,36.542Zm1.085-3.107c-.839-.469-1.438.262-2.222.233C9.458,34.4,9.968,34.337,10.933,33.435ZM6.777,34.574c.186-.049.3-.19.279-.3-.082-.363-.484-.323-.727-.491-.081-.056-.191.1-.184.234C6.169,34.428,6.631,34.309,6.777,34.574Z" fill="#94ba75"/>
          <path d="M43.76,17.212a1.984,1.984,0,0,0,.82.517,2.856,2.856,0,0,1,1.7,1.316,1.264,1.264,0,0,1-1.071,2.038c-.347-.448.058-.9-.01-1.355-.034-.228.017-.452-.3-.552-.291-.092-.539-.188-.713.16-.286.009-.32-.24-.426-.416.212-.406-.191-.5-.372-.537a.849.849,0,0,0-1.053.386c-.294,0-.286-.213-.289-.416-.006-.74-.131-.881-.84-.708-.292.072-.258-.052-.3-.206-.045-.177-.125-.251-.283-.1l-.423-.006c-.012-.182.023-.43-.261-.389-.4.058-.162.35-.164.551l-.281.011c-.12-.05-.312-.05-.179-.268a3.281,3.281,0,0,1,.722-.922c-1.176-.377-1.176-.377-.752-.988-.548-.091-1.131-.269-1.239.577-.183-.057-.478.383-.559-.126.042-.184.382-.285.175-.532s-.473-.091-.717-.045c-.034-.344.282-.456.445-.668.251-.326.77-.707.713-.96-.191-.836.354-.749.813-.832a28.347,28.347,0,0,0,2.1,2.743c-.007.642.447.643.9.648A3.667,3.667,0,0,0,43.76,17.212Z" fill="#d79194"/>
          <path d="M38.808,35.91a9.758,9.758,0,0,1-4.731,4.152A1.793,1.793,0,0,1,31.7,38.678c-.048-.234.06-.548-.3-.638.49-.177.639-.7,1-1.005a1.727,1.727,0,0,1,.4-.127c.794-.052,1.588-.108,2.383-.123.386-.007.753.025.926-.418l.242-.058a1.352,1.352,0,0,0,.372.9c.118-.261.1-.553.316-.785l.072.69c.416-.319.912-.426,1.121-.934A.467.467,0,0,1,38.808,35.91Z" fill="#6ca7b4"/>
          <path d="M29.643,38.984a.082.082,0,0,1-.08.067c-.49-.525-1.077,0-1.608-.142-.129-.034-.214.141-.281.276a1.369,1.369,0,0,1-1.8.393,1.328,1.328,0,0,1-.17-.22c.6-.438-.2-.589-.185-.908l.324-.06c-.03-.054-.046-.138-.09-.155-.2-.083-.213.078-.238.211-.4.022-.524.536-.943.538a.418.418,0,0,0-.036.259c.059.156.133.015.2-.016.15-.07.282-.063.325.123.036.161-.081.25-.194.344-.318.268-.74.093-1.078.265-.256-.142.041-.63-.407-.652l.717-1.715c.322-.147.268-.444.284-.713.45-.332,1.257.521,1.513-.456a2.222,2.222,0,0,1,.231.156c.56.484,1.186-.33,1.748.091.007,0,.056-.024.055-.034-.045-.466.6-.552.559-1.01.359.013.513.437.877.439a.45.45,0,0,1-.12.705c-.14.108-.329.181-.3.413.063.315.388.494.545.35.325-.3.488.059.722.063l.159.7C30.189,38.588,29.543,38.39,29.643,38.984Zm-2.128-.82a4.929,4.929,0,0,1-.691-.062c-.38-.088-.392.257-.531.433-.076.1.026.221.141.273a.925.925,0,0,0,1.079-.645l.034-.059Zm1.534-1.857c-.01-.016-.018-.04-.033-.046s-.031.016-.047.025l.057.073Z" fill="#ca6562"/>
          <path d="M44.709,22.335c.032.257.039.488.367.61a2.08,2.08,0,0,1,1.062,3.217c-.307.542-.953.8-1.114,1.438-.2.072-.393.146-.415.4-.612.449-.7,1.264-1.24,1.764a2.665,2.665,0,0,1,.707-1.917c.331-.521.337-.684.054-.674-.728.025.206-.609-.288-.648-.124-.01-.265-.051-.312.068-.178.454-.3.161-.461-.011-.1-.11-.236-.321-.389-.112-.092.126-.245.334-.08.511.115.124.412.152.229.4-.122.165-.358.1-.54.082a3.316,3.316,0,0,1-.544-.139c-.156-1.034.465-1.611,1.188-2.2a1.572,1.572,0,0,0,.659-1.241l.154-.28c.137-.05.156-.159.139-.285a.71.71,0,0,1,0-.122c.494-.1.426-.5.454-.855Z" fill="#d79194"/>
          <path d="M41.745,27.327a3.316,3.316,0,0,0,.544.139c.182.017.418.083.54-.082.183-.25-.114-.278-.229-.4-.165-.177-.012-.385.08-.511.153-.209.287,0,.389.112.158.172.283.465.461.011.047-.119.188-.078.312-.068.494.039-.44.673.288.648.283-.01.277.153-.054.674a2.665,2.665,0,0,0-.707,1.917l-.013.006a.147.147,0,0,0-.129.165l.017,0c-.377-.057-.345.172-.292.416l0,.011c-.522-.253-.658.313-.959.5-.126.077.045.383.281.464a.3.3,0,0,1-.25.254.854.854,0,0,0-.538-.12,1.236,1.236,0,0,0-.11-.228c-.561.148-1.042-.295-1.59-.209l-.314-.149a5.115,5.115,0,0,0,.3-1.415c.363-.023.434-.26.414-.565l0-.423.038-.414c.4-.091.869-.114.811-.723Z" fill="#cf7a79"/>
          <path d="M11.551,34.032c.342-.63.79-.156,1.057-.153a3.387,3.387,0,0,1,2.114-1.308.371.371,0,0,0,.08-.092l.04-.046a.656.656,0,0,1,.785.214c.211.217.381.54.768.506l.153.575a2.559,2.559,0,0,0-.288,1.3,20.279,20.279,0,0,0-4.719,1.633l-1.693-.124c0-.218-.264-.171-.347-.34.084-.045.175-.137.241-.122a1.258,1.258,0,0,0,1.174-.29c.288-.22.687-.751,1.269-.282.158.127.555-.139.674-.4.13-.292-.13-.561-.3-.723a1.077,1.077,0,0,0-1.015-.356Zm3.326-.857c-.262.186-.113.5-.18.734-.047.166-.093.52.189.5.334-.025.313-.414.35-.667A.5.5,0,0,0,14.877,33.175Z" fill="#7bac53"/>
          <path d="M19.533,8.948a3.885,3.885,0,0,0,.86-1.521,1.312,1.312,0,0,1,1.325-.956,1.351,1.351,0,0,1,1.182,1.3c.061.534.036,1.078.049,1.618l-.429.864c-.508-.1-1.052-.442-1.448.214l-.261.184c-.412-.13-.453-.686-.936-.79l-.214.652C19.11,10.041,19.075,9.61,19.533,8.948Z" fill="#94ba75"/>
          <path d="M9.686,13.086q.095-.276.188-.552c1.047-.4,1.937-1.126,3.025-1.44a22.176,22.176,0,0,0,4.277-1.132c.273-.054.543-.123.818-.159.307-.041.436.107.364.414a3.515,3.515,0,0,1-1.882.442c-.142-.031-.264.115-.382.139-.38.078-.492.349-.586.657-.476-.4-.943.11-1.4.014-.268-.056-.316,0-.454.235a1.58,1.58,0,0,0-.121.929c-.287.015-.585.06-.7-.315-.073-.246-.178-.153-.361-.08a3.51,3.51,0,0,0-1.9,2.32c-.331-.82-.829-.417-1.283-.324Z" fill="#da977b"/>
          <path d="M12.1,17.235a5.647,5.647,0,0,1-2.993.837,12.372,12.372,0,0,0-2.774.4,1.416,1.416,0,0,1,.144-1.584c.441-.564,1.124-.432,1.708-.293a13.2,13.2,0,0,0,2.505.337l.2-.031c.186.039.331.232.551.144Z" fill="#d79194"/>
          <path d="M29.375,12.729c-.274.488-.522.645-.856.02a20.208,20.208,0,0,0-1.935-2.582,5.479,5.479,0,0,1,3.221.14,2.183,2.183,0,0,1,.352,1.067A2.971,2.971,0,0,0,29.375,12.729Z" fill="#ddca60"/>
          <path d="M43.369,29.765c.538-.5.628-1.315,1.24-1.764.353.452.582.973.977,1.42.637.721.369,1.319-.472,1.744-.493.25-.919-.08-1.37.027l-.807-.46.013-.365,0-.011a.446.446,0,0,0,.292-.416l-.017,0a.141.141,0,0,0,.129-.165Z" fill="#7bac53"/>
          <path d="M12.9,11.094c-1.088.314-1.978,1.043-3.025,1.44a3.934,3.934,0,0,1,.371-2.12,1.222,1.222,0,0,1,1.541-.669A1.3,1.3,0,0,1,12.9,11.094Z" fill="#94ba75"/>
          <path d="M30.373,38.3l-.159-.7.174-.3c.317,0,.2-.214.18-.373-.007-.047-.069-.128-.09-.124-.107.025-.1.124-.107.211l-.157-.022c-.045-.2-.065-.567-.14-.579-.285-.044-.213-.814-.706-.345-.364,0-.518-.426-.877-.439-.152-.061-.35-.007-.457-.181.038-.139.075-.278.113-.417.407-.048.713.31,1.116.278.151.288.506.217.713.407.315.7.395.72.955.266l1.726.313.211.131-.478.612c-.357.31-.506.828-1,1.005l-.487.245Z" fill="#9e4937"/>
          <path d="M30.157,11.374a2.183,2.183,0,0,0-.352-1.067,1.69,1.69,0,0,1,2.809.418c.143.409.445.342.708.439l-2.72.8C30.639,11.627,30.518,11.41,30.157,11.374Z" fill="#d79194"/>
          <path d="M4.422,23.607c.258.452-.111.709-.354.949a1.173,1.173,0,0,0-.383.794c-.364-.018-.579.283-.874.416-.365.164-.7.388-1.035-.125-.106.475-.452.88.045,1.222.43.3.656.777,1.043,1.109a1.911,1.911,0,0,1-1.643-1.23,2.021,2.021,0,0,1,.845-1.882c.76-.468,1.511-.948,2.266-1.424ZM2.654,25.516c.148-.216.588-.107.546-.5-.014-.128-.187-.105-.3-.1C2.506,24.924,2.563,25.2,2.654,25.516Z" fill="#da977b"/>
          <path d="M25.52,38.451c-.015.318.785.469.185.907a1.328,1.328,0,0,0,.17.22,1.369,1.369,0,0,0,1.8-.393c.067-.135.152-.31.281-.276.531.139,1.118-.383,1.608.142a9.231,9.231,0,0,1-5.756,1.016,1,1,0,0,0-.016-.108c.338-.172.76,0,1.078-.265.113-.094.23-.183.194-.344-.043-.186-.175-.193-.325-.123-.068.031-.142.172-.2.016a.418.418,0,0,1,.036-.259c.419,0,.543-.516.943-.538Z" fill="#cf7a79"/>
          <path d="M2.864,27.972c-.387-.332-.613-.812-1.043-1.109-.5-.342-.151-.747-.045-1.222.331.513.67.289,1.035.125.295-.133.51-.434.874-.416a2.147,2.147,0,0,0,.287,1c-.275.062-.906-.146-.74.241.2.472-.048.93.2,1.335C3.254,28.091,3.059,28.036,2.864,27.972Z" fill="#d48361"/>
          <path d="M38.921,12.746c-.459.083-1,0-.813.832.057.253-.462.634-.713.96-.163.212-.479.324-.445.668l-.331.016-.13-.08-.2-.336c.7-.806.673-2.071,1.7-2.668a1.309,1.309,0,0,1,.943.614Z" fill="#757e83"/>
          <path d="M18.358,10.217c.072-.307-.057-.455-.364-.414-.275.036-.545.1-.818.159a.961.961,0,0,1,.792-1,2.213,2.213,0,0,1,1.565-.012c-.458.663-.423,1.094.129,1.564.029.1.058.191.088.286-.317-.012-.606-.245-.941-.119Z" fill="#ddca60"/>
          <path d="M41.484,31.463a.854.854,0,0,1,.538.12,7.457,7.457,0,0,0-.484,1.87,1.868,1.868,0,0,1-1.128,1.286l-1.117.613a.374.374,0,0,0-.381.14c-.3-.128-.559.11-.847.076-.022-.5.119-.793.7-.608a1.4,1.4,0,0,0,1.3-.352c.529-.575,1.178-1.083,1.122-1.988q.009-.377.017-.753c.308.013.265-.213.275-.4Z" fill="#d79194"/>
          <path d="M43.744,31.192c.451-.107.877.223,1.37-.027.841-.425,1.109-1.023.472-1.744-.395-.447-.624-.968-.977-1.42.022-.255.218-.329.415-.4a9.419,9.419,0,0,1,1.016,1.675c.268.62.4,1.222-.168,1.744A1.71,1.71,0,0,1,43.744,31.192Z" fill="#94ba75"/>
          <path d="M38.065,35.568c.288.034.551-.2.847-.076.006.083.011.166.017.25l-.121.168a.467.467,0,0,0-.587.268c-.209.508-.7.615-1.121.934l-.072-.69c-.217.232-.2.524-.316.785a1.352,1.352,0,0,1-.372-.9A8.459,8.459,0,0,1,38.065,35.568Z" fill="#757e83"/>
          <path d="M38.921,12.746l0,.006a3.066,3.066,0,0,1,2.1,2.739A28.468,28.468,0,0,1,38.921,12.746Z" fill="#94ba75"/>
          <path d="M5.692,28.912a2.067,2.067,0,0,1,.162-1.3h.557c.49.151.2.57.294.856l0,1.274c-.255.044-.378-.212-.591-.263h0a.244.244,0,0,0-.236-.306A.307.307,0,0,1,5.692,28.912Z" fill="#da977b"/>
          <path d="M5.834,20.271c.114.181.181.4-.1.435-1.109.151-1.457.9-1.529,1.877a1.272,1.272,0,0,1,.542-2.048A2.31,2.31,0,0,1,5.834,20.271Z" fill="#d79194"/>
          <path d="M3.429,27.923c-.245-.4.006-.863-.2-1.335-.166-.387.465-.179.74-.241.189.3.546.485.633.864l-.018.005-.148.136-.148.13-.155.133-.271.154-.172.086Z" fill="#c45d42"/>
          <path d="M44.189,19.336c.174-.348.422-.252.713-.16.313.1.262.324.3.552.068.454-.337.907.01,1.355l-.3.26-.3-.282C44.45,20.489,44.6,19.846,44.189,19.336Z" fill="#cf7a79"/>
          <path d="M43.76,17.212a3.667,3.667,0,0,1-1.841-1.075C42.736,15.71,43.563,16.192,43.76,17.212Z" fill="#da977b"/>
          <path d="M22.52,10.251l.429-.864A1.313,1.313,0,0,1,24,9.768c-.056.389-.375.578-.622.821C23.08,10.5,22.736,10.539,22.52,10.251Z" fill="#ddca60"/>
          <path d="M23.791,39.959a1,1,0,0,1,.016.108,7.074,7.074,0,0,1-2.4-.488c.194-.233.393.066.589-.005a3.634,3.634,0,0,0,1.393-.267C23.832,39.329,23.535,39.817,23.791,39.959Z" fill="#da977b"/>
          <path d="M10.888,16.9l-.2.031c.016-.448-.413-.728-.439-1.159a.4.4,0,0,0,.027-.126l.979-.136c-.011.256.3.329.321.567C11.216,16.24,10.892,16.436,10.888,16.9Z" fill="#b28d6e"/>
          <path d="M6.118,29.481c.213.051.336.307.591.263v.006c-.063.916.693,1.375,1.125,2.015l.166.3-.246.022A8.5,8.5,0,0,1,6.118,29.481Z" fill="#d79194"/>
          <path d="M10.277,15.645a.4.4,0,0,1-.027.126l-.858-.155-.15-.1L9.1,15.393c.024-.176-.03-.3-.224-.318,0-.143.01-.286.016-.429l.349-.013c.213.131.533.168.569.47A.611.611,0,0,0,10.277,15.645Z" fill="#da977b"/>
          <path d="M9.239,14.633l-.349.013a1.781,1.781,0,0,1,.8-1.56l-.4,1.148Z" fill="#d79194"/>
          <path d="M42.95,30.367l-.013.365c-.321.088-.422.421-.665.6-.236-.081-.407-.387-.281-.464C42.292,30.68,42.428,30.114,42.95,30.367Z" fill="#d79194"/>
          <path d="M30.373,38.3l.534-.011c-.256.532-.818.51-1.264.7C29.543,38.39,30.189,38.588,30.373,38.3Z" fill="#cf7a79"/>
          <path d="M44.6,21.061l.3.282c0,.114.025.238-.11.3l-.485-.022c-.188-.149-.1-.368-.139-.554Z" fill="#d48361"/>
          <path d="M44.31,21.625l.486.022-.087.688-.369.011-.014-.014c-.007-.148-.015-.3-.022-.446Z" fill="#da977b"/>
          <path d="M38.929,35.742c-.006-.084-.011-.167-.017-.25a.374.374,0,0,1,.381-.14C39.186,35.495,39.139,35.7,38.929,35.742Z" fill="#6ca7b4"/>
          <path d="M8.874,15.075c.194.021.248.142.224.318C8.94,15.345,8.838,15.259,8.874,15.075Z" fill="#d79194"/>
          <path d="M5.879,29.174a.244.244,0,0,1,.236.306A.258.258,0,0,1,5.879,29.174Z" fill="#d79194"/>
          <path d="M9.242,15.519l.15.1Z" fill="#d79194"/>
          <path d="M3.693,27.855l.172-.086A.126.126,0,0,1,3.693,27.855Z" fill="#da977b"/>
          <path d="M4.439,27.352l.148-.136Z" fill="#da977b"/>
          <path d="M4.136,27.615l.155-.133Z" fill="#da977b"/>
          <path d="M26.411,15.825a.964.964,0,0,0,1.027.791c.325.6,1.05.953,1.048,1.747-.625-.183-.9.019-.933.689a.584.584,0,0,1-.456-.483c-.07-.492-.58-.378-.831-.619-.032-.031-.187.02-.245.076a.165.165,0,0,0,.012.25c.715.509.09.681-.23.929-.014-.154-.061-.284-.25-.264-.092.01-.088.087-.07.159.051.209.182.168.321.1a.4.4,0,0,0,.247.45c.227.1.423.362.248.56-.228.257-.284-.2-.474-.221-.036,0-.076.036-.19.1a6.443,6.443,0,0,1,1.082,1.427.874.874,0,0,0,.337,1.01,14.51,14.51,0,0,0,1.711,1.385l.75.819c-.178.273-.047.641-.277.9a1.585,1.585,0,0,0-1.216-.447c-.271.042-.367.155-.37.41s-.133.37-.366.25c-.65-.334-1.005.1-1.377.5a.108.108,0,0,1-.1-.035l-.144-.13a.043.043,0,0,1-.025-.067c.491-.475-.2-1.049.128-1.549.059-.091-.08-.139-.182-.12-.383.068-.353-.2-.357-.439,0-.283.006-.566-.015-.848a.363.363,0,0,0-.391-.334c-.244,0-.314.163-.229.392.076.2-.067.238-.215.264a.5.5,0,0,1-.283-.287c-.037-.254.116-.7-.437-.428-.141-.1-.109-.253-.1-.395.234-.066.274-.249.246-.449a.846.846,0,0,1,.421-.884c-.393.06-.723-.05-.513-.41.255-.438.181-.92.356-1.353l.151-.487,1.748-2.145A1.061,1.061,0,0,0,26.411,15.825Z" fill="#d79194"/>
          <path d="M30.158,15.9c.032-.438.063-.877.095-1.314a6.892,6.892,0,0,1,.879-.91,1.484,1.484,0,0,1,1.173-.148.47.47,0,0,1,.2.851.469.469,0,0,0-.169.437c.039.177.235.089.363.114.109.021.245-.019.3.158-.243.313-.53.622.092.908.255.117.022.283-.126.416-.177.158-.422-.163-.554.093.12.6.736.284,1.017.524-.045.3-.581.279-.4.518.314.412.129.9.357,1.3a.3.3,0,0,1-.019.392c-.59.592-.219.677.369.639a.52.52,0,0,1-.571.433A1.314,1.314,0,0,0,32.07,22c-.158.394-.347.448-.535.029a1.762,1.762,0,0,0-.321-.616c.406-1.113.5-2.146-.716-2.852A14.294,14.294,0,0,0,30.158,15.9Z" fill="#7bac53"/>
          <path d="M24.445,12.921a.56.56,0,0,1,.235.392,3.558,3.558,0,0,0-.6,2.025l-.044.139-.084.171,0,.411c.062.3-.355.6.012.889l0,.241c-.613.283-.452,1.06-.917,1.437-.166-.639-.475-.276-.773,0,.045-.674-.078-1.144-.729-1.277-.045-.643.453-.423.735-.413.778.026-.2-.662.329-.756.146-.026-.037-.113-.092-.106-.379.05-.639-.286-1-.3.012-.214.125-.216.321-.222.331-.01.434-.328.482-.583.043-.225-.21-.175-.354-.21.012-.124.058-.284.193-.233.414.156.614-.143.954-.337-.214-.122-.358-.2-.493-.284s-.37-.111-.322-.319a.284.284,0,0,1,.453-.172c.318.2.588-.414.9-.032,0,0,.125-.056.134-.1.025-.117.014-.268-.111-.3a.709.709,0,0,0-.408.008c-.232.078-.293-.041-.342-.223-.036-.134-.137-.264-.023-.4a.347.347,0,0,1,.448-.085,1.212,1.212,0,0,0,.667.209l.185.157C24.239,12.785,24.289,12.9,24.445,12.921Z" fill="#c45d42"/>
          <path d="M32.07,22a1.314,1.314,0,0,1,1.1-1.685.52.52,0,0,0,.571-.433c-.588.038-.959-.047-.369-.639a.3.3,0,0,0,.019-.392c-.228-.4-.043-.892-.357-1.3-.182-.239.354-.217.4-.518-.281-.24-.9.076-1.017-.524.132-.256.377.065.554-.093.148-.133.381-.3.126-.416-.622-.286-.335-.6-.092-.908-.06-.177-.2-.137-.3-.158-.128-.025-.324.063-.363-.114a.469.469,0,0,1,.169-.437.47.47,0,0,0-.2-.851,1.484,1.484,0,0,0-1.173.148,6.892,6.892,0,0,0-.879.91,1.676,1.676,0,0,1,1.053-1.746,2.537,2.537,0,0,1,2.105,1.2,2.57,2.57,0,0,0,.393.747.431.431,0,0,0,.017.582,3.156,3.156,0,0,0,.159,1.125,7.961,7.961,0,0,0,.252,2.571,2.579,2.579,0,0,0-.03.9c.1.452-.324,1-.712.909-.785-.187-.439.521-.667.764a1.491,1.491,0,0,0-.584.5Z" fill="#94ba75"/>
          <path d="M24.025,12.5a1.212,1.212,0,0,1-.667-.209.347.347,0,0,0-.448.085c-.114.135-.013.265.023.4.049.182.11.3.342.223a.709.709,0,0,1,.408-.008c.125.036.136.187.111.3-.009.043-.131.1-.134.1-.312-.382-.582.23-.9.032a.284.284,0,0,0-.453.172c-.048.208.193.233.322.319s.279.162.493.284c-.34.194-.54.493-.954.337-.135-.051-.181.109-.193.233-.336,0-.591-.182-.561-.5.055-.581.238-1.151.3-1.733.048-.474.732-.309.721-.863-.447.037-.794-.057-.479-.612l.7-.1c.063.346.35.237.564.276l.148.137A4.39,4.39,0,0,0,24.025,12.5Z" fill="#ca6562"/>
          <path d="M28.486,18.363c0-.794-.723-1.15-1.048-1.747.6-.507,1.3-.314,1.657.561.2.484.389.356.676.181-.123.261-.247.522-.37.784a.645.645,0,0,1-.592.385Z" fill="#757e83"/>
          <path d="M33.822,15.367a.43.43,0,0,1-.018-.582,3.062,3.062,0,0,1,2.481.021c.067.112.136.224.2.336-.427.274-.981.029-1.4.343C34.669,15.448,34.274,15.1,33.822,15.367Z" fill="#ddca60"/>
          <path d="M22.657,10.957l-.7.1c-.3-.24-.584-.1-.871.023l-.01-.616c.4-.656.94-.317,1.448-.214.216.288.56.251.856.338q0,.391-.007.781l-.148-.137C23.13,10.943,23.015,10.7,22.657,10.957Z" fill="#d79194"/>
          <path d="M29.4,18.141l.37-.783c.1-.5.023-1.037.388-1.461a14.377,14.377,0,0,1,.339,2.662Z" fill="#9e4937"/>
          <path d="M24.973,13.762a3.359,3.359,0,0,1,.973,1.463l-.166-.042c-.42.127-.79-.22-1.207-.129A1.186,1.186,0,0,1,24.973,13.762Z" fill="#ca6562"/>
          <path d="M25.78,15.183l.166.042.465.6a1.059,1.059,0,0,1-.443.814,2.785,2.785,0,0,0-1.021-.138v-.444C25.1,15.642,25.8,15.76,25.78,15.183Z" fill="#9e4937"/>
          <path d="M30.157,11.374c.361.036.482.253.445.589-.447.2-.707.689-1.227.766A2.971,2.971,0,0,1,30.157,11.374Z" fill="#d48361"/>
          <path d="M24.973,13.762a1.187,1.187,0,0,0-.4,1.293c-.015.1-.03.192-.044.288l-.449-.005a3.558,3.558,0,0,1,.6-2.025A.476.476,0,0,1,24.973,13.762Z" fill="#9e4937"/>
          <path d="M24.445,12.921c-.156-.021-.206-.136-.235-.269C24.367,12.672,24.427,12.779,24.445,12.921Z" fill="#ca6562"/>
          <path d="M21.088,35.281a20.625,20.625,0,0,1-2.853-.544,1.645,1.645,0,0,1-.152-1.645c.12-.321.277-.629.417-.943a.065.065,0,0,0,.034-.084l.184-.162.654-.444L20.1,31.3c-.025.226-.354.289-.3.636.309-.246.912-.124.7-.794a.349.349,0,0,1,.482,0c.23.229.232.567.374.921.926-.948,2.127-.608,3.175-.884l-.006,0a.6.6,0,0,0,.483.538,8.311,8.311,0,0,0,1.265.038l.521,0c-.007.481.446.714.6,1.109a.986.986,0,0,0-.59.654c-.157.77-.455,1.353-1.394,1.224-.015,0-.042.077-.064.118l-.818.189-.156.01-.251.021A19.457,19.457,0,0,0,21.088,35.281Zm4.289-3.1c-.1.017-.225.008-.218.166a.065.065,0,0,0,.044.044c.158.011.149-.115.17-.214l.033-.055Zm-1.948-.365c-.041-.021-.081-.058-.119-.057s-.076.04-.114.062c.039.022.078.059.117.059S23.388,31.838,23.429,31.814Z" fill="#7bac53"/>
          <path d="M18.719,31.9l-.185.163-.078.051.044.033c-.14.314-.3.622-.417.943a1.645,1.645,0,0,0,.152,1.645c-.413.207-.821.027-1.23-.017-.224-.3-.053-.777-.457-.992l-.153-.575-.017-.365c.429-.43.814-.875.481-1.55.45-.037.359.44.637.519-.006-.681-1.185-1.557-1.556-1.129-.342.394-.356.215-.527-.018-.106-.3.523-.32.29-.5-.451-.357-.061-.75-.174-1.1a5.613,5.613,0,0,1,1.716.9c-.014.448.012.838.645.567.117-.05.339-.016.309.173C18.112,31.186,18.575,31.474,18.719,31.9Z" fill="#9e4937"/>
          <path d="M23.384,39.307a3.634,3.634,0,0,1-1.393.267c-.229-.532.321-.913.278-1.41,0-.03.071-.1.09-.093.556.183.632-.222.743-.593.006-.019.087-.016.134-.023.479.676.359-.221.6-.231l.262.368Z" fill="#d48361"/>
          <path d="M21.088,35.281a19.457,19.457,0,0,1,3.031-.21q-.008.531-.013,1.064l-.191.058Z" fill="#63713e"/>
          <path d="M23.915,36.193l.191-.058.463.116c-.056.211-.545.3-.184.628-.016.269.038.566-.284.713l-.262-.368c-.244.01-.124.907-.6.231A2.36,2.36,0,0,1,23.915,36.193Z" fill="#da977b"/>
          <path d="M16.548,33.728c.4.215.233.694.457.992l-.745.313A2.559,2.559,0,0,1,16.548,33.728Z" fill="#735530"/>
          <path d="M14.139,21.5c-.1-.335-.419-.7.186-.916.148-.052.119-.3.071-.452-.1-.322-.4-.131-.6-.216.227-.5.661-.922.528-1.559-.033-.16.2-.141.329-.161.335.177.368.594.648.815-.11.308-.353.639-.134.943.489.677.829,1.585,1.933,1.47.084-.009.176.064.265.1a1.406,1.406,0,0,1-1.258.958c-.169.012-.413-.043-.379.27l-.333.039a1.01,1.01,0,0,0-.6-.446C14.887,21.818,14.788,21.445,14.139,21.5Z" fill="#757e83"/>
          <path d="M12.1,17.235l-.661-.192c.18-.649.732-.5,1.183-.535.427-.034.908.1,1.113-.458.438.365.144.884.275,1.313l-.605-.019-.306-.082-.335-.037Z" fill="#9e4937"/>
          <path d="M13.4,17.344l.6.019a.812.812,0,0,1,.279.031,1.935,1.935,0,0,0,1.611-.209,5.01,5.01,0,0,1-.6,1.824c-.28-.221-.313-.638-.648-.815C14.4,17.677,13.771,17.7,13.4,17.344Z" fill="#b28d6e"/>
          <path d="M12.763,17.225l.335.037C12.977,17.332,12.859,17.384,12.763,17.225Z" fill="#d79194"/>
          <path d="M6,27.34c.263-.411.231-.671-.389-.605a5.641,5.641,0,0,0,.749-1.876,2.5,2.5,0,0,1,1.266-1.618.773.773,0,0,0,.422-1.153c.409.108.829.391,1.1-.162.1-.191.229-.013.341.06.152.1.395.118.453-.018.226-.531.657-.5,1.1-.482a.352.352,0,0,0,.378-.253c.061-.16.251-.227.346-.14.559.511,1.32.027,1.9.408-.056.6-.355.912-.987.827a1.008,1.008,0,0,0-1.138.323c-.141.143-.29.328-.471.233-.88-.459-.721.387-.957.736a6.709,6.709,0,0,0-1.208.7c-.915.873-1.279,2.144-2.185,3.024C6.483,27.154,6.241,27.293,6,27.34Z" fill="#cf7a79"/>
          <path d="M12.682,22.328c.632.085.931-.226.987-.827l.47,0c.649-.052.748.321.653.844l-.27.191a1.257,1.257,0,0,0-.95.113.9.9,0,0,1-1-.031Z" fill="#b28d6e"/>
          <path d="M6,27.34c.242-.047.484-.186.724,0a.31.31,0,0,1,.021.12.378.378,0,0,0-.333.149H5.854A.278.278,0,0,1,6,27.34Z" fill="#d48361"/>
          <path d="M8,32.064c-.056-.1-.111-.2-.166-.3.6.27.818-.8,1.454-.426a.972.972,0,0,0,.106-.32c-.034-.622-.417-.554-.834-.4L8.548,30.6v-.552a5.778,5.778,0,0,1,1.747.339c.478.229,1.154.685,1.815.23a.77.77,0,0,1,.148.518c-.294.076-.282.31-.287.543-.006.284-.1.493-.445.455-.083-.029-.211-.035-.239-.091-.07-.139-.079-.351-.307-.25-.186.082-.03.233-.02.355a2.065,2.065,0,0,1-.008.272l-.237.005a1.635,1.635,0,0,0-1.908-.615c-.133.088-.082.254-.094.389A.719.719,0,0,1,8,32.064Z" fill="#d48361"/>
          <path d="M11.525,32.136c.342.038.439-.171.445-.455,0-.233-.007-.467.288-.542.225.05.344-.068.416-.262l.712.061c.18.366.647.239.881.512-.13.284-.613.037-.663.441a2.436,2.436,0,0,1-2.96.872c-.174-.046-.385.026-.5-.176.152-.2.4-.058.573-.16l.237-.005C11.206,32.454,11.52,32.6,11.525,32.136Z" fill="#b28d6e"/>
          <path d="M13.6,31.891c.05-.4.533-.157.663-.441a2.162,2.162,0,0,1,1.547.349c.329.25.377.659.564.989l.017.365c-.387.034-.557-.289-.768-.506a.656.656,0,0,0-.785-.214c-.134-.415-.193-.944-.844-.481C13.92,32.007,13.738,31.915,13.6,31.891Z" fill="#63713e"/>
          <path d="M10.714,32.427c-.177.1-.421-.035-.573.16l-.3-.078a.226.226,0,0,0-.258-.056l-.043-.015c-.033-.078-.072-.092-.122-.013a.857.857,0,0,1-.708-.223c.012-.136-.039-.3.094-.39A1.635,1.635,0,0,1,10.714,32.427Z" fill="#c45d42"/>
          <path d="M10.933,33.435c-.965.9-1.475.968-2.222.233C9.495,33.7,10.094,32.966,10.933,33.435Z" fill="#7bac53"/>
          <path d="M11.547,34.027c-.334.254.3.847-.359,1-.4.091-.6-.414-1.032-.276.655.073.58-1.171,1.394-.717Z" fill="#7bac53"/>
          <path d="M6.777,34.574c-.146-.265-.608-.146-.632-.559-.007-.131.1-.29.184-.234.243.168.645.128.727.491C7.081,34.384,6.963,34.525,6.777,34.574Z" fill="#7bac53"/>
          <path d="M9.585,32.453a.226.226,0,0,1,.258.056C9.735,32.592,9.643,32.6,9.585,32.453Z" fill="#b28d6e"/>
          <path d="M14.8,32.479a.371.371,0,0,1-.08.092A.2.2,0,0,1,14.8,32.479Z" fill="#63713e"/>
          <path d="M9.42,32.425c.05-.079.089-.065.122.013l-.064.021Z" fill="#b28d6e"/>
          <path d="M44.6,21.061l-.432.009c-1.529-.6-2.943-1.46-4.476-2.177-.039.506.385.685.343,1.047-.667-.389-.871-1.227-1.554-1.6.044-.257-.118-.419-.239-.621-.389-.648-1.051-1.128-1.193-1.927l.439-.008c.081.509.376.069.559.127.385.077.3.357.263.614-.022.171-.359.308-.13.476s.348-.114.5-.253a.3.3,0,0,1,.492.035c.171.239-.053.214-.184.307-.248.174.166.428-.017.667-.055.071.087.154.185.145.231-.022.311-.187.341-.391l.281-.011c.16-.006.332.021.425-.162l.423.006c.22.362-.436.708.028,1.116.189-.472.476-.472.853-.2.133.1.357.065.54.092,0,.2-.005.415.289.416.326.649.55.69,1.091.228.077-.065.221-.053.334-.077.106.176.14.425.426.416C44.6,19.846,44.45,20.489,44.6,21.061Z" fill="#ca6562"/>
          <path d="M39.5,17.51c-.03.2-.11.369-.341.391-.1.009-.24-.074-.185-.145.183-.239-.231-.493.017-.667.131-.093.355-.068.184-.307a.3.3,0,0,0-.492-.035c-.15.139-.264.425-.5.253s.108-.3.13-.476c.033-.257.122-.537-.263-.614.108-.847.691-.669,1.239-.578-.424.611-.424.611.752.988a3.281,3.281,0,0,0-.722.922C39.187,17.46,39.379,17.46,39.5,17.51Z" fill="#cf7a79"/>
          <path d="M43.763,18.92c-.113.024-.257.012-.334.077-.541.462-.765.421-1.091-.228a.849.849,0,0,1,1.053-.386C43.572,18.425,43.975,18.514,43.763,18.92Z" fill="#cf7a79"/>
          <path d="M42.049,18.353c-.183-.027-.407,0-.54-.092-.377-.274-.664-.274-.853.2-.464-.408.192-.754-.028-1.116.158-.155.238-.081.283.1.04.154.006.278.3.206C41.918,17.472,42.043,17.613,42.049,18.353Z" fill="#cf7a79"/>
          <path d="M37.492,15.783l-.438.008a.8.8,0,0,1-.435-.569l.331-.016c.244-.046.508-.205.717.045S37.534,15.6,37.492,15.783Z" fill="#cf7a79"/>
          <path d="M40.205,17.337c-.093.183-.265.156-.425.162,0-.2-.234-.493.164-.551C40.228,16.907,40.193,17.155,40.205,17.337Z" fill="#cf7a79"/>
          <path d="M38.065,35.568a8.459,8.459,0,0,0-1.725.741l-.243.057-2.3.1a.713.713,0,0,1,.875-.333c.873.223,1.13.043,1.581-.831.073-.142.35-.085.3-.328-.72-.179-.72-.179-.858-.675.2-.041.463.381.575.021a.481.481,0,0,0-.486-.571c-.094-.009-.19,0-.283-.006-.407-.038-.833.1-1.194.062-.625-.059-1.1-.073-1.443.537-.1.19-.337.135-.517.073-.1-.035-.142-.2-.092-.229.354-.172.108-.379.117-.6.016-.388.27-.712-.407-.48-.526.18-.325-.638-.765-.609-.064,0-.124.062-.185.1-.638.357-.61-.122-.649-.516a1.049,1.049,0,0,1,.881-.044,12.945,12.945,0,0,0,3.229.567,3.535,3.535,0,0,0,2.714-.712c.248.015.479,0,.569-.3l.95-.587.753-.123.314.149a2.7,2.7,0,0,0,1.293.708l.131.133q-.007.377-.017.753a2.457,2.457,0,0,0-.325.115c-.5.252-.8-.088-1.058-.4-.273-.329-.084-.589.313-.7-.291-.27-.5-.06-.719-.014s-.444.206-.682.094a.487.487,0,0,0-.682.157c-.058.08-.1.172-.013.252a.624.624,0,0,0,.718.1c.158-.058.356-.234.522-.077s-.017.353-.062.523c-.262.973-.2,1.159.61,1.707a2.217,2.217,0,0,1,.256.239,1.4,1.4,0,0,1-1.3.352C38.184,34.775,38.043,35.069,38.065,35.568Zm-1.544-2.147c.466.6.262,1.262.563,1.8.07.123-.059.373.212.363.227-.009.284-.186.349-.382.13-.39.23-.871.841-.606.09.039.145,0,.138-.07-.034-.341.3-.569.235-.944-.057-.321.018-.692-.406-.762-.374-.061-.461.27-.6.536-.037.07.1.467-.21.245S37,33.515,36.521,33.421Z" fill="#da977b"/>
          <path d="M33.8,36.462l2.3-.1c-.172.444-.539.412-.925.419-.795.015-1.589.071-2.383.123a1.727,1.727,0,0,0-.4.127l.478-.612c.21-.028.409.169.625.032Z" fill="#757e83"/>
          <path d="M24.385,36.879c-.361-.333.128-.417.183-.628a4.7,4.7,0,0,0,1.371-.227,6.067,6.067,0,0,1,2.094-.579c.108.174.306.12.458.181.036.458-.6.544-.559,1.01,0,.01-.048.039-.055.034-.562-.421-1.188.393-1.748-.091a2.222,2.222,0,0,0-.231-.156C25.642,37.4,24.835,36.547,24.385,36.879Z" fill="#cf7a79"/>
          <path d="M29.368,36.065c.493-.469.421.3.706.345.075.012.095.376.141.579-.486-.347-.834.2-1.268.194-.028-.232.161-.3.3-.413A.45.45,0,0,0,29.368,36.065Z" fill="#c45d42"/>
          <path d="M27.513,38.163a.925.925,0,0,1-1.079.645c-.115-.052-.217-.176-.141-.273.139-.176.151-.521.531-.433a4.929,4.929,0,0,0,.691.062Z" fill="#cf7a79"/>
          <path d="M28.947,37.183c.434.008.782-.541,1.268-.194l.156.023.017.285-.174.3c-.234,0-.4-.363-.722-.063C29.335,37.677,29.01,37.5,28.947,37.183Z" fill="#cf7a79"/>
          <path d="M25.516,38.446c.025-.133.034-.294.238-.211.044.017.06.1.09.155l-.324.06Z" fill="#cf7a79"/>
          <path d="M29.049,36.307l-.023.052-.057-.073c.016-.009.036-.029.047-.025S29.039,36.291,29.049,36.307Z" fill="#c45d42"/>
          <path d="M27.515,38.164l.032-.06-.034.059Z" fill="#cf7a79"/>
          <path d="M41.745,27.327l-.714.01-.423-.011c.163-.291.468-.487.557-.828l1.928-2.326c.228.014.328-.2.5-.284a1.572,1.572,0,0,1-.659,1.241C42.21,25.716,41.589,26.293,41.745,27.327Z" fill="#da977b"/>
          <path d="M43.592,23.888c-.171.087-.271.3-.5.284a1.824,1.824,0,0,0-.9-1.677l.137-.16a2.654,2.654,0,0,1,1.413.581.318.318,0,0,0,.144.285.622.622,0,0,0,0,.122c-.047.095-.094.19-.14.285Z" fill="#b28d6e"/>
          <path d="M43.886,23.2a.315.315,0,0,1-.143-.285c.243-.146.092-.685.583-.584l.014.014C44.312,22.7,44.38,23.1,43.886,23.2Z" fill="#da977b"/>
          <path d="M43.746,23.608c.046-.095.093-.19.14-.285C43.9,23.449,43.883,23.558,43.746,23.608Z" fill="#da977b"/>
          <path d="M39.47,30.877,38.718,31l-.379-.387a4.72,4.72,0,0,0,.752-1.26c.451-.2.463-.738.8-1.023l.29.143c0,.141,0,.282,0,.423-.28.084-.67.088-.414.565A5.115,5.115,0,0,1,39.47,30.877Z" fill="#ca6562"/>
          <path d="M41.077,31.734a2.7,2.7,0,0,1-1.293-.708c.548-.086,1.029.357,1.59.209a1.236,1.236,0,0,1,.11.228h0C41.3,31.477,41.073,31.434,41.077,31.734Z" fill="#d79194"/>
          <path d="M40.608,27.326l.423.011c.058.609-.407.632-.811.723l-.052-.045C40.271,27.757,40.313,27.461,40.608,27.326Z" fill="#d48361"/>
          <path d="M39.772,29.462c-.256-.477.134-.481.414-.565C40.206,29.2,40.135,29.439,39.772,29.462Z" fill="#d48361"/>
          <path d="M43.244,29.94a.446.446,0,0,1-.292.416C42.9,30.112,42.867,29.883,43.244,29.94Z" fill="#d79194"/>
          <path d="M40.182,28.474l-.29-.143.276-.316.052.045C40.207,28.2,40.2,28.336,40.182,28.474Z" fill="#d48361"/>
          <path d="M43.356,29.771a.141.141,0,0,1-.129.165A.147.147,0,0,1,43.356,29.771Z" fill="#d79194"/>
          <path d="M14.877,33.175a.5.5,0,0,1,.359.566c-.037.253-.016.642-.35.667-.282.021-.236-.333-.189-.5C14.764,33.672,14.615,33.361,14.877,33.175Z" fill="#94ba75"/>
          <path d="M21.072,10.465c0,.205.007.411.01.616a1.014,1.014,0,0,1-.551.557h-.144a1.256,1.256,0,0,0-1.016-.559c-.435-.087-.832.179-1.262.145.12-.328.5-.315.7-.546.335-.126.624.107.941.119.27.209.548.5.884.461.232-.027.194-.376.177-.609Z" fill="#da977b"/>
          <path d="M20.811,10.649c.017.233.055.582-.177.609-.336.039-.614-.252-.884-.461l-.088-.286c.071-.218.142-.437.213-.652C20.358,9.963,20.4,10.519,20.811,10.649Z" fill="#7bac53"/>
          <path d="M9.239,14.633l.045-.4c.454-.093.952-.5,1.283.324a3.51,3.51,0,0,1,1.9-2.32c.183-.073.288-.166.361.08.112.375.41.33.7.315l.027.026a.375.375,0,0,0,.327.395c.156.03.354.015.347.253-.006.181-.208.164-.295.257a.517.517,0,0,1-.625.132.815.815,0,0,0-.963.221c-.1.126-.26.237-.19.423.086.227.259.123.415.081.3-.079.362.126.411.345l-1.727.743-.979.136a.611.611,0,0,1-.469-.542C9.772,14.8,9.452,14.764,9.239,14.633Z" fill="#d48361"/>
          <path d="M18.809,10.678c-.2.231-.58.218-.7.546l-.158.157c-.361-.279-.64-.159-.974.106-.285.226-1.109-.381-.943.616.019.112-.207,0-.3.031-.513.155-1.184-.085-1.535.36-.245.311-.413.178-.64.165l-.027-.026a1.58,1.58,0,0,1,.121-.929c.138-.231.186-.291.454-.235.461.1.928-.412,1.4-.014.094-.308.206-.579.586-.657.118-.024.24-.17.382-.139a3.515,3.515,0,0,0,1.882-.442Z" fill="#d48361"/>
          <path d="M13.735,16.05c-.206.559-.687.424-1.114.458-.451.036-1-.114-1.183.535-.219.088-.364-.105-.55-.144,0-.463.328-.659.688-.823A6.989,6.989,0,0,1,12.77,15.7c.556-.075.7-.374.637-.861a1.016,1.016,0,0,1,.1-.091.065.065,0,0,1,.06,0C13.775,15.164,13.6,15.628,13.735,16.05Z" fill="#735530"/>
          <path d="M33.8,36.462l-.308-.007c-.258-.161-.437-.724-.836-.163l-1.726-.313-.142-.116c-.031-.188-.082-.331-.286-.126l-.527-.024c-.207-.19-.562-.119-.714-.406.4.057.57-.106.54-.516a7.059,7.059,0,0,1,.024-.782c.94-.425.95-.454.382-1.231-.225.17-.243.619-.651.543-.177-.383.035-.915-.451-1.181.337-.676.512-.686,1.268-.068.039.394.011.873.649.516.061-.034.121-.092.185-.1.44-.029.239.789.765.609.677-.232.423.092.407.48-.009.222.237.429-.117.6-.05.024-.009.194.092.229.18.062.412.117.517-.073.34-.61.818-.6,1.443-.537.361.035.787-.1,1.194-.062.093.009.189,0,.283.006a.481.481,0,0,1,.486.571c-.112.36-.372-.062-.575-.021.138.5.138.5.858.675.046.243-.231.186-.3.328-.451.874-.708,1.054-1.581.831A.713.713,0,0,0,33.8,36.462Zm-2.584-1.29c-.037.128-.279.15-.2.327.062.134.2.065.309.043.249-.051.5-.092.825-.15l-.932-.224c0-.047,0-.093,0-.14,0-.325-.088-.684-.461-.637-.388.049-.471.455-.378.779.164.566.412-.082.628.007A.538.538,0,0,0,31.217,35.172Zm2.863.237c.413-.215.279-.57.2-.895-.014-.06-.176-.152-.209-.132-.324.2-.018.455-.047.685C34.015,35.174,33.921,35.288,34.08,35.409Z" fill="#d48361"/>
          <path d="M29.826,34.009a7.059,7.059,0,0,0-.024.782c.03.41-.141.573-.54.516-.4.031-.708-.327-1.116-.279l-.274-.121c.26-.051.555-.023.74-.347-.3-.074-.755.242-.818-.32a.862.862,0,0,0,.571-.9c.1-.228.361-.488-.115-.607-.059-.1-.118-.2-.176-.3l0-.219L28.068,32l.016-.559c.218.029.5-.028.5.326,0,.373.287.339.527.373.485.266.273.8.45,1.181C29.645,33.551,29.837,33.74,29.826,34.009Z" fill="#b28d6e"/>
          <path d="M27.872,34.907l.274.121c-.037.139-.074.278-.112.417a6.066,6.066,0,0,0-2.095.579,4.7,4.7,0,0,1-1.371.227l-.462-.116q.006-.532.013-1.064l.251-.021c.058.087.109.078.156-.01l.818-.189c.127.048.269.159.377.132A9.927,9.927,0,0,1,27.872,34.907Z" fill="#735530"/>
          <path d="M30.789,35.863l.142.116c-.56.454-.64.432-.955-.266l.527.024A.245.245,0,0,0,30.789,35.863Z" fill="#c45d42"/>
          <path d="M32.657,36.292c.4-.561.578,0,.836.163-.216.137-.415-.06-.625-.032Z" fill="#da977b"/>
          <path d="M30.388,37.3l-.017-.285c0-.088,0-.187.107-.212.021,0,.083.077.09.124C30.591,37.083,30.705,37.3,30.388,37.3Z" fill="#c45d42"/>
          <path d="M2.654,25.516c-.091-.32-.148-.592.248-.606.111,0,.284-.027.3.1C3.242,25.409,2.8,25.3,2.654,25.516Z" fill="#d48361"/>
          <path d="M36.619,15.222a.8.8,0,0,0,.435.569c.141.8.8,1.279,1.192,1.927.121.2.283.364.239.621-1,.026-1.353.337-1.6,1.287-.115.437-.158.945-.641,1.2a2.1,2.1,0,0,0-1.723-.889c-.265-.253-.095-.585-.157-.874-.043-.464-.011-.808.553-1.027a1.211,1.211,0,0,0,.732-1.532c.081-.484-.236-.751-.555-1.018.417-.314.971-.069,1.4-.343Z" fill="#c45d42"/>
          <path d="M40.069,34.608a2.217,2.217,0,0,0-.256-.239c-.808-.548-.872-.734-.61-1.707.045-.17.237-.358.062-.523s-.364.019-.522.077a.624.624,0,0,1-.718-.1c-.084-.08-.045-.172.013-.252a.487.487,0,0,1,.682-.157c.238.112.455-.046.682-.094s.428-.256.719.014c-.4.115-.586.375-.313.7.258.312.559.652,1.058.4a2.457,2.457,0,0,1,.325-.115C41.247,33.525,40.6,34.033,40.069,34.608Z" fill="#d48361"/>
          <path d="M41.077,31.734c0-.3.219-.257.406-.27-.01.19.033.416-.275.4Z" fill="#cf7a79"/>
          <path d="M6.709,29.744q0-.638,0-1.274a1.5,1.5,0,0,0,1.107.311c-.047.4-.2.827.371,1.005.047.015.052.169.077.259-.136.026-.331,0-.4.086-.405.509-.65.22-.9-.143a1.654,1.654,0,0,0-.249-.238Z" fill="#d48361"/>
          <path d="M7.812,28.781a1.5,1.5,0,0,1-1.107-.311c-.095-.286.2-.7-.294-.856a.377.377,0,0,1,.332-.149,2.708,2.708,0,0,1,.827.716c-.042.255.2.374.275.57Z" fill="#c45d42"/>
          <path d="M13.407,14.841c.058.486-.081.785-.637.86a6.989,6.989,0,0,0-1.194.375c-.02-.238-.331-.311-.32-.567l1.727-.743Z" fill="#63713e"/>
          <path d="M6.71,29.75a1.654,1.654,0,0,1,.249.238c.254.363.5.652.9.143.066-.082.261-.06.4-.086l.287.006c0,.184,0,.368,0,.552l-.054.067.067-.055c.417-.15.8-.218.834.4a.972.972,0,0,1-.106.32c-.636-.372-.849.7-1.454.426C7.4,31.125,6.647,30.666,6.71,29.75Z" fill="#da977b"/>
          <path d="M42.329,22.335l-.137.16a6.149,6.149,0,0,0-1.968.335c-.483.143-.857.615-1.425.482.106-.127.217-.249.316-.381a3.445,3.445,0,0,0,.924-2.991c.042-.362-.382-.541-.343-1.047,1.533.717,2.947,1.574,4.476,2.177.039.187-.049.406.139.555,0,.087-.005.174-.006.262-.381-.168-.638.556-1.073.13C42.751,21.547,42.493,21.838,42.329,22.335Zm-2-.916-.037,0,.041-.006c.232.269.472.572.873.467.267-.07.335-.33.355-.635Z" fill="#c45d42"/>
          <path d="M42.329,22.335c.164-.5.422-.788.9-.318.435.426.692-.3,1.073-.13.006.148.014.3.021.445-.491-.1-.34.438-.583.584A2.66,2.66,0,0,0,42.329,22.335Z" fill="#d48361"/>
          <path d="M29.515,24.729l-.75-.819c.267-.095.335-.437.655-.492.152-.026.308-.259.035-.327-.676-.167-.471-.7-.534-1.13.808.466,1.45.015,2.1-.382.122.275.231.556.367.823.235.463.2,1.07.731,1.375l.571,1.4a1.822,1.822,0,0,0-1.019.311C30.906,25.371,30.3,24.8,29.515,24.729Z" fill="#9e4937"/>
          <path d="M29.515,24.729c.784.067,1.391.642,2.157.76.574.087.715.327.271.771l-.293.059c-.52-.013-1.062-.081-1.313.549-.21.207-.215.5-.316.752-.423-.316-.9-.14-1.357-.153l-.146-.08-.424-.071-.036-.4c.391-.43,1.056-.609,1.18-1.284C29.468,25.37,29.337,25,29.515,24.729Z" fill="#757e83"/>
          <path d="M28.92,21.96c.064.429-.141.964.535,1.131.273.068.117.3-.035.327-.32.055-.388.4-.655.492a14.51,14.51,0,0,1-1.711-1.385.877.877,0,0,1-.338-1.011l.645-.833A6.44,6.44,0,0,0,28.92,21.96Z" fill="#735530"/>
          <path d="M27.361,20.68l-.645.834a6.426,6.426,0,0,0-1.081-1.426c.114-.059.154-.1.19-.1.19.019.246.478.474.221.175-.2-.021-.462-.248-.56a.4.4,0,0,1-.247-.45h0c.32-.248.945-.42.23-.929a.165.165,0,0,1-.012-.25c.058-.056.213-.107.245-.076.251.241.761.127.831.619a.584.584,0,0,0,.456.483c.23.254.046.633.268.89C27.668,20.188,27.374,20.347,27.361,20.68Z" fill="#cf7a79"/>
          <path d="M29.238,25.628c-.124.675-.789.854-1.179,1.284a6.128,6.128,0,0,1-1.709-.12,1.1,1.1,0,0,1-.441-.449c.372-.405.727-.836,1.377-.5.233.12.364-.006.366-.25s.1-.368.37-.41A1.585,1.585,0,0,1,29.238,25.628Z" fill="#cf7a79"/>
          <path d="M23.052,18.626c.465-.377.3-1.154.917-1.437.2.514-.044,1.1.252,1.595l-.151.488c-.438.21-.437.705-.679,1.043l-.774.308a1.223,1.223,0,0,1-.119-.618c.287-.155.128-.431.178-.651.272-.036.328-.247.376-.466Z" fill="#9e4937"/>
          <path d="M25.909,26.343a1.1,1.1,0,0,0,.441.449c.083.249-.1.437-.149.655l-.2.022c-.33-.573-1.226-.965-1.613-.7,0-.85-.483-1.61-.457-2.464.459.273.6.887,1.132,1.078a1,1,0,0,0,.577.732.043.043,0,0,0,.025.067c0,.1.043.145.144.13A.108.108,0,0,0,25.909,26.343Z" fill="#63713e"/>
          <path d="M24.221,18.784c-.3-.5-.054-1.081-.252-1.595l0-.241.151-.257.83-.19a2.785,2.785,0,0,1,1.021.138Z" fill="#b28d6e"/>
          <path d="M25.644,26.111a1,1,0,0,1-.577-.732c.029-.726-.644-1.2-.684-1.9.148-.026.291-.06.215-.264-.085-.229-.015-.393.229-.392a.363.363,0,0,1,.391.334c.021.282.01.565.015.848,0,.238-.026.507.357.439.1-.019.241.029.182.12C25.446,25.062,26.135,25.636,25.644,26.111Z" fill="#cf7a79"/>
          <path d="M24.383,23.477c.04.7.713,1.176.684,1.9-.537-.191-.673-.8-1.132-1.078a4.411,4.411,0,0,1-.694-2.259c.209.008.279.152.319.325-.006.142-.038.291.1.395a.4.4,0,0,0,.437.428A.5.5,0,0,0,24.383,23.477Z" fill="#d48361"/>
          <path d="M27.821,19.942c-.222-.257-.038-.636-.268-.89.034-.67.308-.872.933-.689l.323.164C28.779,19.207,28.283,19.562,27.821,19.942Z" fill="#b28d6e"/>
          <path d="M23.56,22.367c-.04-.173-.11-.317-.319-.325-.128-.059-.127-.178-.137-.293a4.69,4.69,0,0,0,.288-1.434c.241-.338.24-.833.678-1.043-.175.432-.1.914-.356,1.352-.21.36.12.47.513.41a.846.846,0,0,0-.421.884C23.834,22.118,23.794,22.3,23.56,22.367Z" fill="#da977b"/>
          <path d="M24.1,23.19a.4.4,0,0,1-.437-.428C24.216,22.489,24.063,22.936,24.1,23.19Z" fill="#da977b"/>
          <path d="M25.8,19.2c-.139.064-.27.105-.321-.1-.018-.072-.022-.149.07-.159.189-.02.236.11.25.264Z" fill="#cf7a79"/>
          <path d="M25.813,26.308c-.1.015-.147-.03-.144-.13Z" fill="#cf7a79"/>
          <path d="M27.821,19.942c.462-.38.958-.735.988-1.415a.645.645,0,0,0,.592-.385l1.1.417c1.215.706,1.122,1.739.716,2.852l-.191.168c-.652.4-1.294.848-2.1.382a6.453,6.453,0,0,1-1.56-1.28C27.374,20.347,27.668,20.188,27.821,19.942Z" fill="#ddca60"/>
          <path d="M31.023,21.579l.191-.168a1.762,1.762,0,0,1,.321.616c.188.419.377.365.535-.029l.168.141a7.116,7.116,0,0,0-.092,1.014c.009.212.365.424-.025.624-.532-.3-.5-.912-.731-1.375C31.254,22.135,31.145,21.854,31.023,21.579Z" fill="#735530"/>
          <path d="M20.531,11.638a1.014,1.014,0,0,0,.551-.557c.287-.124.574-.263.871-.023-.315.555.032.649.479.612.011.554-.673.389-.721.863-.059.582-.242,1.152-.3,1.733-.03.317.225.5.561.5.144.035.4-.015.354.21-.048.255-.151.573-.482.583-.2.006-.309.008-.321.222a1.746,1.746,0,0,0-.817,1.1c0,.017-.036.028-.055.041-.182-.071-.283-.3-.518-.267l.405-1.429c.218-.257.084-.578.156-.862a.864.864,0,0,0,.024-.863l.084-1.552A.451.451,0,0,0,20.531,11.638Z" fill="#cf7a79"/>
          <path d="M22.676,19.354c-.05.22.109.5-.177.652L21.375,18.9l-.248-.14a.336.336,0,0,1-.025-.121c-.034-.347-.4-.6-.284-.988.135-.2.546.149.568-.283l.164-.017c.651.133.774.6.729,1.277.3-.278.607-.641.773,0v.263l-.376.02-.072-.052.053.071Z" fill="#d48361"/>
          <path d="M21.55,17.351l-.164.017a1.35,1.35,0,0,1-.721-.16l-.011-.286c.019-.013.051-.024.055-.041a1.746,1.746,0,0,1,.817-1.1c.357.01.617.346,1,.3.055-.007.238.08.092.106-.531.094.449.782-.329.756C22,16.928,21.505,16.708,21.55,17.351Z" fill="#ca6562"/>
          <path d="M24.947,16.5l-.83.19c-.087-.2.035-.458-.163-.632l0-.411.084-.171.044-.139.449.005.417.714Z" fill="#735530"/>
          <path d="M23.954,16.059c.2.174.076.43.163.632l-.151.257C23.6,16.657,24.016,16.355,23.954,16.059Z" fill="#9e4937"/>
          <path d="M24.036,15.477l-.084.171Z" fill="#9e4937"/>
          <path d="M32.121,23.777c.39-.2.034-.412.025-.624a7.116,7.116,0,0,1,.092-1.014,1.51,1.51,0,0,1,.584-.5.514.514,0,0,0,.462-.111c.2.415.523.6,1.159.36-.574.45-.36,1.059-.747,1.4a.24.24,0,0,0,.079.171c.567.2.336.5,0,.829.8-.2.793-.2,1.252.346.2.241.6.108.826.359.376.415-.4.3-.293.721.208.826.335.994,1.522,1.046l-.026.45a.652.652,0,0,0-.766.482c-.087.306.3.27.485.379.094.055.246.189.23.229-.226.552.26,1.095-.069,1.645L37.5,29.9c.253.187.024.529.235.729l.005.438c-.076.178-.173.357.023.524-.09.291-.321.311-.569.3-.24-.3-.109-.821-.57-1-.038-.384.1-.772-.193-1.145A4.037,4.037,0,0,0,34.9,28.431c.05-.182.095-.366.152-.545.357-1.11.038-1.54-1.118-1.477-.176.01-.331-.015-.256-.189.416-.97-.351-.756-.821-.843l-.169-.2Z" fill="#d48361"/>
          <path d="M35.646,16.5a1.211,1.211,0,0,1-.732,1.532c-.564.219-.6.563-.553,1.027a.33.33,0,0,0-.129,0,7.961,7.961,0,0,1-.252-2.571c.883.434.978.415,1.05-.269C35.229,16.365,35.4,16.539,35.646,16.5Z" fill="#d48361"/>
          <path d="M35.646,16.5c-.244.036-.417-.138-.616-.28-.072.684-.167.7-1.05.269a3.156,3.156,0,0,1-.159-1.125c.453-.268.848.081,1.271.118C35.41,15.752,35.727,16.019,35.646,16.5Z" fill="#da977b"/>
          <path d="M34.232,19.063a.33.33,0,0,1,.129,0c.062.289-.108.621.157.874l.168,1.1c-.336.236-.6.75-1.113.2-.109-.117-.373,0-.289.286a.514.514,0,0,1-.462.111c.229-.243-.117-.951.668-.764.388.092.812-.457.712-.909A2.579,2.579,0,0,1,34.232,19.063Z" fill="#b28d6e"/>
          <path d="M22.657,10.957c.358-.255.473-.014.564.276C23.007,11.194,22.72,11.3,22.657,10.957Z" fill="#cf7a79"/>
          <path d="M24.946,16.057l-.417-.714c.014-.1.029-.192.044-.288.417-.092.787.255,1.207.128C25.8,15.76,25.1,15.642,24.946,16.057Z" fill="#c45d42"/>
          <path d="M20.983,31.135a.35.35,0,0,0-.483,0l-.4.158-.729.163c.013-.414-.331-.689-.418-1.064.529-.2,1.073.166,1.6-.039.2.174.488.315.693.215.949-.464,1.814.067,2.713.163.01.038.02.075.028.113a.867.867,0,0,1-.523.169A15.5,15.5,0,0,0,20.983,31.135Z" fill="#63713e"/>
          <path d="M27.872,34.907a9.927,9.927,0,0,0-2.151.076c-.108.027-.25-.084-.377-.132.022-.041.049-.121.064-.118.939.129,1.237-.454,1.394-1.224a.983.983,0,0,1,.589-.653c.317.164.539-.317.859-.126.476.119.211.379.115.607l-.254-.156c.028.393-.731.551-.317,1.059.063.562.518.246.818.32C28.427,34.884,28.132,34.856,27.872,34.907Z" fill="#63713e"/>
          <path d="M28.076,32.208l0,.22c-.565.031-.787-.579-1.28-.682l-.522,0a1.649,1.649,0,0,0-1.747-.576l.006,0,.024-.16.523-.156c.993.241,2.031.25,3.006.585,0,.187-.011.373-.016.559C27.977,32.073,27.985,32.142,28.076,32.208Z" fill="#63713e"/>
          <path d="M18.954,30.394c.087.375.431.65.418,1.064l-.654.445c-.143-.429-.606-.717-.519-1.255.03-.189-.192-.223-.309-.173-.633.271-.659-.119-.645-.567C17.86,29.911,18.355,30.333,18.954,30.394Z" fill="#735530"/>
          <path d="M24.555,31.012l-.024.16c-1.048.276-2.249-.064-3.175.884-.142-.354-.144-.692-.374-.921a15.522,15.522,0,0,1,2.485-.12.867.867,0,0,0,.523-.169Z" fill="#94ba75"/>
          <path d="M24.525,31.168a1.649,1.649,0,0,1,1.747.576,8.3,8.3,0,0,1-1.264-.038A.6.6,0,0,1,24.525,31.168Z" fill="#94ba75"/>
          <path d="M26.794,31.746c.493.1.715.713,1.28.682l.176.3c-.32-.191-.542.29-.859.126C27.24,32.46,26.787,32.227,26.794,31.746Z" fill="#94ba75"/>
          <path d="M20.1,31.3l.4-.158c.212.67-.391.548-.7.794C19.747,31.584,20.076,31.521,20.1,31.3Z" fill="#94ba75"/>
          <path d="M25.373,32.175c-.021.1-.012.225-.17.214a.065.065,0,0,1-.044-.044c-.007-.158.116-.149.218-.166Z" fill="#94ba75"/>
          <path d="M23.429,31.814c-.041.024-.078.064-.116.064s-.078-.037-.117-.059c.038-.022.075-.061.114-.062S23.388,31.793,23.429,31.814Z" fill="#94ba75"/>
          <path d="M18.5,32.149l-.044-.033.078-.051A.065.065,0,0,1,18.5,32.149Z" fill="#735530"/>
          <path d="M25.377,32.179l.029-.059-.033.055Z" fill="#94ba75"/>
          <path d="M24.526,35.04c-.047.088-.1.1-.156.01Z" fill="#63713e"/>
          <path d="M18.954,30.394c-.6-.061-1.094-.483-1.709-.486a5.613,5.613,0,0,0-1.716-.9l-1.565-1.254-.068-.477.226-.9.713-.589a2.5,2.5,0,0,1,2.071-.363,7.634,7.634,0,0,1,1.436.528,5.349,5.349,0,0,1,1.927,1.132,2.928,2.928,0,0,0,.155,1.536,1.075,1.075,0,0,1-.042,1.271c-.158.069-.436-.128-.486.218a.518.518,0,0,0,.492-.211c.427.016.159.288.169.457C20.027,30.56,19.483,30.189,18.954,30.394Z" fill="#6ca7b4"/>
          <path d="M13.963,27.751l1.566,1.254c.113.351-.277.744.174,1.1.233.184-.4.207-.29.5l-.259.007a5.1,5.1,0,0,0-3.475-1.169l.054-.4c.432-.356.865.037,1.3,0,.117-.011.3.163.338-.073.026-.185-.134-.221-.294-.185-.111.024-.233.094-.282-.085C13.146,28.336,13.406,27.86,13.963,27.751Z" fill="#ca6562"/>
          <path d="M15.154,30.617l.259-.007c.171.233.185.412.527.018.371-.428,1.55.448,1.556,1.129-.278-.079-.187-.556-.637-.519.333.675-.052,1.12-.481,1.55-.187-.33-.235-.739-.564-.989C15.75,31.317,15.27,31.069,15.154,30.617Z" fill="#b28d6e"/>
          <path d="M15.3,19.009a5.01,5.01,0,0,0,.6-1.824l.126-.52a.243.243,0,0,0,.109-.281,19.715,19.715,0,0,0,1.044-2.866l.4-.484.836-.213,1.4.49.426.525a9.151,9.151,0,0,1-1.246,4.392c-.553.6-.454,1.416-.722,2.11l-.142.34c-.344.161-1.051,0-.691.785a.288.288,0,0,1-.073.057c-.089-.034-.181-.107-.265-.1-1.1.115-1.444-.793-1.933-1.47C14.949,19.648,15.192,19.317,15.3,19.009Z" fill="#6ca7b4"/>
          <path d="M15.4,22.787l.332-.039a2.344,2.344,0,0,0,1.665-.236.8.8,0,0,1,.726-.124.164.164,0,0,0,.26.021l.443-.025c-.055.431.023,1.113-.706.745a.7.7,0,0,0-.961.167,4.107,4.107,0,0,1-4,.889c-.124-.3.047-.544.128-.807l.321-.186C14.253,23.291,14.777,22.828,15.4,22.787Z" fill="#94ba75"/>
          <path d="M18.119,22.388a.8.8,0,0,0-.726.124,2.344,2.344,0,0,1-1.665.236c-.033-.313.211-.258.38-.27a1.406,1.406,0,0,0,1.258-.958.288.288,0,0,0,.073-.057c.325.02.447-.275.661-.429a1.149,1.149,0,0,0,.729.457c.033.212-.059.459.173.614l-.18.279-.443.025Z" fill="#63713e"/>
          <path d="M15.4,22.787c-.619.041-1.143.5-1.794.405l.1-.24c.287-.114.678-.023.82-.42l.271-.191A1.01,1.01,0,0,1,15.4,22.787Z" fill="#63713e"/>
          <path d="M16.024,16.665l-.126.52a1.935,1.935,0,0,1-1.611.209.812.812,0,0,0-.279-.031c-.13-.429.164-.948-.274-1.313-.135-.422.041-.886-.172-1.3a.065.065,0,0,0-.06,0,1.016,1.016,0,0,0-.1.091l-.424-.074c-.049-.219-.115-.424-.411-.345-.156.042-.329.146-.415-.081-.07-.186.087-.3.19-.423a.815.815,0,0,1,.963-.221.517.517,0,0,0,.625-.132c.087-.093.289-.076.295-.257.007-.238-.191-.223-.347-.253a.375.375,0,0,1-.327-.395c.227.013.4.146.64-.165.351-.445,1.022-.205,1.535-.36.1-.029.322.081.3-.031-.166-1,.658-.39.943-.616.334-.265.613-.385.974-.106-.152.545-.565,1.031-.377,1.653l-.4.484c-.278.082-.269.341-.356.551-.317.765-.654,1.523-.983,2.283Z" fill="#c45d42"/>
          <path d="M7.57,28.181a2.708,2.708,0,0,0-.827-.716.292.292,0,0,0-.02-.12c.906-.879,1.27-2.15,2.185-3.023.363.219.474.628.7.949a1.141,1.141,0,0,0,1.1.633l.086.124c-.09.045-.331.074-.242.135.364.249.414.69.689.982l.09.476c-.1.189.045.336.084.5l-.178.23c-.47.126-.615.5-.692.919a1.545,1.545,0,0,1-.609-.054A14.992,14.992,0,0,1,7.57,28.181Z" fill="#757e83"/>
          <path d="M10.7,25.9a1.141,1.141,0,0,1-1.1-.633c-.224-.321-.335-.73-.7-.949a6.709,6.709,0,0,1,1.208-.7l1.811-.337c.073.06.146.12.218.181a1.226,1.226,0,0,1-.527.173c-.992.117-1.377.615-1.192,1.563A4.137,4.137,0,0,0,10.7,25.9Z" fill="#735530"/>
          <path d="M11.927,23.283l-1.811.337c.236-.349.077-1.2.957-.736.181.095.33-.09.471-.233a1.008,1.008,0,0,1,1.138-.323c-.037.095-.073.191-.11.286Z" fill="#ca6562"/>
          <path d="M11.927,23.283l.645-.669a.9.9,0,0,0,1,.031,1.257,1.257,0,0,1,.95-.113c-.143.4-.534.306-.821.419-.413.243-.986.075-1.324.513h-.232Z" fill="#9e4937"/>
          <path d="M8.547,30.051l-.287-.006c-.025-.09-.03-.244-.077-.259-.571-.178-.418-.609-.371-1.005l.033-.03c.069.015.169.006.2.048a3.611,3.611,0,0,0,2.5,1.162,2.492,2.492,0,0,1,1.581.642l-.015.018c-.661.454-1.337,0-1.815-.231A5.778,5.778,0,0,0,8.547,30.051Z" fill="#c45d42"/>
          <path d="M11.525,32.136c-.005.466-.319.318-.574.286a2.065,2.065,0,0,0,.008-.272c-.01-.122-.166-.273.02-.355.228-.1.237.111.307.25C11.314,32.1,11.442,32.107,11.525,32.136Z" fill="#c45d42"/>
          <path d="M12.674,30.877c-.072.194-.191.312-.416.262a.777.777,0,0,0-.149-.519l.015-.017C12.352,30.605,12.568,30.63,12.674,30.877Z" fill="#c45d42"/>
          <path d="M15.154,30.617c.116.452.6.7.66,1.182a2.162,2.162,0,0,0-1.547-.349c-.234-.273-.7-.146-.881-.512.184-.3.173-.517-.226-.634-.545-.159-1.076-.365-1.618-.536-.259-.082-.587-.03-.679-.395.274,0,.532.174.816.075A5.1,5.1,0,0,1,15.154,30.617Z" fill="#735530"/>
          <path d="M10.863,29.373c.092.365.42.313.679.395.542.171,1.073.377,1.618.536.4.117.41.33.226.634l-.712-.061c-.106-.247-.322-.272-.55-.274a2.492,2.492,0,0,0-1.581-.642,3.611,3.611,0,0,1-2.5-1.162c-.032-.042-.132-.033-.2-.048-.078-.2-.317-.315-.275-.57a14.992,14.992,0,0,0,2.359,1.037,1.545,1.545,0,0,0,.609.054Z" fill="#9e4937"/>
          <path d="M40.039,19.94a3.445,3.445,0,0,1-.924,2.991c-.1.132-.21.254-.316.381l-.442.189a8.554,8.554,0,0,0-2.84-1.6c.066-.477.7-.575.724-1.077.483-.254.526-.762.641-1.2.25-.95.6-1.261,1.6-1.287C39.168,18.713,39.372,19.551,40.039,19.94Z" fill="#d79194"/>
          <path d="M28.084,31.441c-.975-.335-2.013-.344-3.006-.585l-.129-.123.019-.168a7.114,7.114,0,0,0,1.676.2l.005,0,.15.1.424.053a6.644,6.644,0,0,0,2.012.257.448.448,0,0,0,.115.015.237.237,0,0,0,.3.086l.837.058a22.909,22.909,0,0,0,3,.566c.124.168.294.138.464.111l.239,0c.073.208.334.322.294.587a12.945,12.945,0,0,1-3.229-.567,1.049,1.049,0,0,0-.881.044c-.756-.618-.931-.608-1.268.068-.239-.034-.524,0-.526-.373C28.579,31.413,28.3,31.47,28.084,31.441Z" fill="#9e4937"/>
          <path d="M36.521,33.421c.481.094.8-.056,1.121.175s.173-.175.21-.245c.14-.266.227-.6.6-.536.424.07.349.441.406.762.067.375-.269.6-.235.944.007.068-.048.109-.138.07-.611-.265-.711.216-.841.606-.065.2-.122.373-.349.382-.271.01-.142-.24-.212-.363C36.783,34.683,36.987,34.02,36.521,33.421Z" fill="#d48361"/>
          <path d="M34.484,32.6c.04-.265-.221-.379-.293-.587.221-.194.491-.116.741-.12a1.119,1.119,0,0,0,1-.4.642.642,0,0,0,.55-.462l.15-.146c.461.18.33.7.57,1A3.535,3.535,0,0,1,34.484,32.6Z" fill="#c45d42"/>
          <path d="M37.767,31.587c-.2-.167-.1-.346-.023-.525.32.012.4-.293.595-.448l.379.387Z" fill="#9e4937"/>
          <path d="M38.357,23.5l.442-.189c.568.133.942-.339,1.425-.482a6.149,6.149,0,0,1,1.968-.335,1.824,1.824,0,0,1,.9,1.677L41.165,26.5c-.49-.034-.69.361-.925.665-.515.668-1,1.363-1.49,2.046L37.485,29c-.17-.59-.028-1.255-.427-1.791.008-.15.017-.3.026-.45.061-.631-.3-1.193-.3-1.815a.974.974,0,0,0,.769-.869.234.234,0,0,0,.235-.145l.163-.128A.433.433,0,0,0,38.357,23.5Z" fill="#ddca60"/>
          <path d="M38.75,29.209c.494-.683.975-1.378,1.49-2.046.235-.3.435-.7.925-.665-.089.341-.394.537-.557.828-.295.135-.337.431-.44.689l-.276.316c-.338.285-.35.826-.8,1.023-.076-.167-.21-.073-.324-.071A.274.274,0,0,0,38.75,29.209Z" fill="#9e4937"/>
          <path d="M38.767,29.282c.114,0,.248-.095.324.072a4.72,4.72,0,0,1-.752,1.26c-.194.155-.275.46-.595.448,0-.145,0-.291-.005-.437Q38.254,29.953,38.767,29.282Z" fill="#735530"/>
          <path d="M17.574,13.034c-.188-.622.225-1.108.377-1.653l.158-.157c.43.034.827-.232,1.262-.145a1.256,1.256,0,0,1,1.016.559c-.649.812-1.606.753-2.569.762.186.325.5.187.592.421Z" fill="#cf7a79"/>
          <path d="M18.41,12.821c-.1-.234-.406-.1-.592-.421.963-.009,1.92.05,2.569-.762h.144a.451.451,0,0,1,.274.311c-.484.342-1.041.631-.991,1.363Z" fill="#ca6562"/>
          <path d="M29.826,34.009c.011-.269-.181-.458-.269-.688.408.076.426-.373.651-.543C30.776,33.555,30.766,33.584,29.826,34.009Z" fill="#da977b"/>
          <path d="M31.217,35.172a.538.538,0,0,1-.207.005c-.216-.089-.464.559-.628-.007-.093-.324-.01-.73.378-.779.373-.047.457.312.461.637,0,.047,0,.093,0,.14Z" fill="#da977b"/>
          <path d="M34.08,35.409c-.159-.121-.065-.235-.051-.342.029-.23-.277-.487.047-.685.033-.02.2.072.209.132C34.359,34.839,34.493,35.194,34.08,35.409Z" fill="#da977b"/>
          <path d="M31.222,35.168l.932.224c-.325.058-.576.1-.825.15-.112.022-.247.091-.309-.043-.082-.177.16-.2.2-.327Z" fill="#da977b"/>
          <path d="M30.789,35.863a.245.245,0,0,1-.286-.126C30.707,35.532,30.758,35.675,30.789,35.863Z" fill="#da977b"/>
          <path d="M27.794,34.24c-.414-.508.345-.666.317-1.059l.254.156A.862.862,0,0,1,27.794,34.24Z" fill="#94ba75"/>
          <path d="M28.076,32.208c-.091-.066-.1-.135-.008-.208Z" fill="#94ba75"/>
          <path d="M36.241,20.825c-.028.5-.658.6-.724,1.077-.014.093-.027.186-.041.279-.486-.227-.284-.929-.79-1.144l-.168-1.1A2.1,2.1,0,0,1,36.241,20.825Z" fill="#d48361"/>
          <path d="M8.561,30.615l-.067.055.054-.067Z" fill="#d48361"/>
          <path d="M40.325,21.419l1.232-.176c-.02.3-.088.565-.355.635-.4.105-.641-.2-.873-.467Z" fill="#da977b"/>
          <polygon points="40.325 21.419 40.329 21.411 40.288 21.417 40.325 21.419" fill="#d79194"/>
          <path d="M32.692,25.178l.17.2q.235.823.469,1.648l-.259.3-.283-.282c-.03-.534-.5-.591-.846-.781.444-.444.3-.684-.271-.771A1.828,1.828,0,0,1,32.692,25.178Z" fill="#735530"/>
          <path d="M36.628,30.882l-.15.146c-.614.089-.24-.448-.333-.594-.542-.166-.394.8-.981.469-.425-.241.025-.527-.008-.768a.276.276,0,0,0-.355-.016c-.521.338-.927.393-.864-.416.031-.4-.427-.224-.523-.539-.064-.209-.2.133-.321.2-.1.059-.216.207-.282.185-.555-.185-.743.165-.95.571-.3.6-.738-.334-1.083.062a.309.309,0,0,1-.176.105c-.088.011-.237.014-.264-.033-.294-.533-.433-.241-.636.082-.423.672-.568.645-.971-.052-.153-.264-.487-.267-.756-.335-.141-.036-.194.119-.236.222-.146.359.263.242.351.4a3.062,3.062,0,0,1,.135.316l-1,.021-.425-.053-.15-.1-.005,0a.371.371,0,0,0-.356-.443c-.448-.043-.559-.326-.642-.712-.089-.41.214-.672.288-1.014.016-.071.215-.122.225-.024.03.31.624.457.249.88a.157.157,0,0,0,.087.233c.172.031.262-.105.283-.25a4.219,4.219,0,0,1,.734-2.017l.582-.1.424.071.146.08c.457.013.934-.163,1.357.153a3.57,3.57,0,0,1,.971.133c.744.178,1.511.265,2.268.389a.428.428,0,0,0,.384.161l1.26.128a4.037,4.037,0,0,1,1.531,1.306C36.732,30.11,36.59,30.5,36.628,30.882ZM30.36,29.611a.8.8,0,0,0,.8.07C30.9,29.516,30.7,29.374,30.36,29.611Z" fill="#d79194"/>
          <path d="M33.26,28.142c-.757-.124-1.524-.211-2.268-.389a3.57,3.57,0,0,0-.971-.133c.1-.252.106-.545.316-.752a3.6,3.6,0,0,1,2.093.734c.231.185.463.235.68-.026C33.258,27.739,33.223,27.95,33.26,28.142Z" fill="#ca6562"/>
          <path d="M33.111,27.576c-.218.261-.45.211-.681.026a3.6,3.6,0,0,0-2.093-.734c.251-.63.793-.562,1.313-.549-.043.907.649.656,1.139.722l.283.282Z" fill="#cf7a79"/>
          <path d="M28.094,27.316l-.582.1c-.441-.168-.871.154-1.311.029.05-.218.232-.406.149-.655a6.128,6.128,0,0,0,1.709.12C28.07,27.047,28.082,27.182,28.094,27.316Z" fill="#735530"/>
          <path d="M32.789,27.041c-.49-.066-1.182.185-1.139-.722l.293-.059C32.29,26.45,32.759,26.507,32.789,27.041Z" fill="#d79194"/>
          <path d="M28.664,27.467l-.146-.08Z" fill="#cf7a79"/>
          <path d="M19,22.105c-.232-.155-.14-.4-.173-.614.14-.447-.222-.849-.117-1.293a2.439,2.439,0,0,0,.871-.985,1.028,1.028,0,0,1,1.519-.574.357.357,0,0,0,.024.121c.032.138.131.155.249.14L22.5,20.006a1.219,1.219,0,0,0,.117.617,1.277,1.277,0,0,0,.488,1.126c.01.115.009.234.137.293a4.411,4.411,0,0,0,.694,2.259c-.026.854.456,1.614.457,2.464a3.646,3.646,0,0,1-.587,1.969,3.127,3.127,0,0,1-2.128.155h0c.029-.314-.278-.33-.429-.484-.275-.427-.311-.969-.651-1.367a12.263,12.263,0,0,0-.573-2.1A11.238,11.238,0,0,0,19,22.105Z" fill="#ddca60"/>
          <path d="M23.1,21.749a1.277,1.277,0,0,1-.488-1.126l.775-.308A4.66,4.66,0,0,1,23.1,21.749Z" fill="#735530"/>
          <path d="M22.676,19.354l-.019-.426.019-.02.376-.019C23,19.107,22.948,19.318,22.676,19.354Z" fill="#c45d42"/>
          <path d="M26.2,27.447c.44.125.87-.2,1.311-.029a4.219,4.219,0,0,0-.734,2.017c-.021.145-.111.281-.283.25a.157.157,0,0,1-.087-.233c.375-.423-.219-.57-.249-.88-.01-.1-.209-.047-.225.024-.074.342-.377.6-.288,1.014.083.386.194.669.642.712a.371.371,0,0,1,.356.443,7.114,7.114,0,0,1-1.676-.2,12.014,12.014,0,0,1-.163-1.55c-.087-.8.461-1.159,1.047-1.488l.153-.058Zm.26.98c-.015,0-.038,0-.044.011a.125.125,0,0,0-.012.053l.076-.014Z" fill="#cf7a79"/>
          <path d="M26.005,27.469l-.153.058c-.919-.077-1.217.1-1.566.939l-.2.291-.279-.023a3.646,3.646,0,0,0,.587-1.969C24.779,26.5,25.675,26.9,26.005,27.469Z" fill="#735530"/>
          <path d="M18.994,18.228a9.151,9.151,0,0,0,1.246-4.392c.6.354.148.938.3,1.39l-.405,1.429a3.288,3.288,0,0,0-.49,1.251l.02.006c-.183.057-.179.2-.162.35l.022.009-.182.219c-.14.128-.1.382-.322.455Q19.009,18.587,18.994,18.228Z" fill="#9e4937"/>
          <path d="M20.541,15.226c-.153-.452.3-1.036-.3-1.39l-.426-.525c-.05-.731.507-1.02.991-1.362L20.721,13.5c-.009.287-.016.575-.024.863C20.625,14.648,20.759,14.969,20.541,15.226Z" fill="#c45d42"/>
          <path d="M19.646,17.906a3.288,3.288,0,0,1,.49-1.251c.235-.031.336.2.518.267,0,.095.007.191.011.286-.253-.006-.212.134-.142.287C20.234,17.639,20,17.892,19.646,17.906Z" fill="#d79194"/>
          <path d="M20.7,14.364c.008-.288.015-.576.024-.863A.864.864,0,0,1,20.7,14.364Z" fill="#ca6562"/>
          <path d="M19.646,17.906c.35-.014.588-.267.877-.411a.3.3,0,0,1,.3.156c-.117.39.25.641.284.988a1.028,1.028,0,0,0-1.519.574,2.439,2.439,0,0,1-.871.985.151.151,0,0,1-.035-.069,5.618,5.618,0,0,0,.345-1.184c.22-.073.182-.327.323-.455l.181-.219-.022-.01a.382.382,0,0,0,.162-.349Z" fill="#da977b"/>
          <path d="M20.818,17.651a.3.3,0,0,0-.3-.156c-.07-.153-.111-.293.142-.287a1.35,1.35,0,0,0,.721.16C21.364,17.8,20.953,17.449,20.818,17.651Z" fill="#cf7a79"/>
          <path d="M21.375,18.9c-.118.015-.217,0-.249-.14Z" fill="#da977b"/>
          <path d="M22.657,18.928l-.053-.071.072.052Z" fill="#c45d42"/>
          <path d="M34.686,21.037c.506.215.3.917.791,1.144.249.1.271.325.334.551.076.272.08.6.4.758l.005.268c-.09.051-.1.1,0,.151.333.265.189.794.572,1.03,0,.622.361,1.184.3,1.815-1.187-.052-1.314-.22-1.522-1.046-.106-.423.669-.306.293-.721-.228-.251-.623-.118-.826-.359-.459-.541-.447-.551-1.252-.346.334-.331.565-.632,0-.829a.24.24,0,0,1-.079-.171c.387-.338.173-.947.747-1.4-.636.244-.954.055-1.159-.36-.084-.288.18-.4.289-.286C34.084,21.787,34.35,21.273,34.686,21.037Zm-.069,2.027c.314.144.519.22.69-.018a.187.187,0,0,0-.038-.176C35.054,22.783,34.886,22.91,34.617,23.064Z" fill="#da977b"/>
          <path d="M34.9,28.431,33.643,28.3a2.9,2.9,0,0,0-.312-1.278q-.234-.823-.469-1.648c.469.087,1.236-.127.82.843-.075.174.08.2.256.189,1.156-.063,1.475.367,1.118,1.477C35,28.065,34.954,28.249,34.9,28.431Z" fill="#c45d42"/>
          <path d="M37.058,27.2c.4.536.257,1.2.427,1.792l.019.9-.566.043c.329-.55-.157-1.093.069-1.645.016-.04-.136-.174-.23-.229-.186-.109-.572-.073-.485-.379A.652.652,0,0,1,37.058,27.2Z" fill="#da977b"/>
          <path d="M37.5,29.9l-.019-.9q.633.105,1.265.213a.274.274,0,0,1,.017.074l-1.028,1.342C37.528,30.425,37.757,30.083,37.5,29.9Z" fill="#c45d42"/>
          <path d="M20.6,27.04c.339.4.375.939.65,1.367-.057.339.037.542.429.483h0c.068.618.546.676.976.6.531-.1.92-.051,1.15.481.05.165-.029.389.214.466l-.055.3c-.9-.1-1.764-.627-2.713-.163-.2.1-.492-.041-.693-.215-.009-.169.259-.441-.168-.457l-.006-.007a1.075,1.075,0,0,0,.042-1.271,2.928,2.928,0,0,1-.155-1.536Z" fill="#757e83"/>
          <path d="M23.962,30.733c.018-.1.037-.2.054-.3l.933.3.129.123-.523.156-.565-.166C23.982,30.808,23.972,30.771,23.962,30.733Z" fill="#735530"/>
          <path d="M19,22.105a11.245,11.245,0,0,1,1.023,2.831l-1.683,1.016a7.634,7.634,0,0,0-1.436-.528,2.5,2.5,0,0,0-2.071.363.746.746,0,0,0-.716-.37c-.954.049-.93-.6-.965-1.232a4.107,4.107,0,0,0,4-.889.7.7,0,0,1,.961-.167c.729.368.651-.314.706-.745Z" fill="#7bac53"/>
          <path d="M13.154,24.185c.035.632.011,1.281.965,1.232a.746.746,0,0,1,.716.37l-.713.589a14.536,14.536,0,0,0-2.669-.2.706.706,0,0,1-.665-.151L10.7,25.9a4.137,4.137,0,0,1-.275-.7c-.185-.948.2-1.446,1.192-1.563a1.226,1.226,0,0,0,.527-.173h.232l.9-.086C13.2,23.641,13.03,23.889,13.154,24.185Z" fill="#63713e"/>
          <path d="M11.23,28.353c.059-.077.118-.153.178-.229.2-.053.11-.248.182-.364.419.015.829.271,1.28.06-.829-.488-.829-.488-.33-.782l.011.01c.3.515.506-.162.8-.049l.1.5a.8.8,0,0,0,.249-.6l.189.375.068.477c-.558.109-.818.585-1.171.95.049.179.171.109.282.085.16-.036.32,0,.294.185-.033.236-.221.062-.338.073-.433.039-.866-.354-1.3,0C11.457,28.893,11.6,28.438,11.23,28.353Z" fill="#cf7a79"/>
          <path d="M18.342,25.952l1.683-1.016a12.3,12.3,0,0,1,.573,2.1l-.329.045A5.349,5.349,0,0,0,18.342,25.952Z" fill="#63713e"/>
          <path d="M13.9,27.274c-.063-.125-.126-.25-.19-.375.1-.215.176-.411-.184-.44-.47-.038-.942-.068-1.408-.136-.656-.1-.93.181-.88.822-.275-.292-.325-.733-.689-.982-.089-.061.152-.09.242-.135a.707.707,0,0,0,.666.152,14.536,14.536,0,0,1,2.669.2Z" fill="#b28d6e"/>
          <path d="M20.388,29.9a.518.518,0,0,1-.492.211c.05-.346.328-.149.486-.218Z" fill="#757e83"/>
          <path d="M11.23,28.353c.369.085.227.54.5.693-.017.134-.035.268-.053.4-.284.1-.542-.074-.816-.075l-.325-.1C10.615,28.85,10.76,28.479,11.23,28.353Z" fill="#b28d6e"/>
          <path d="M18.677,20.129a.151.151,0,0,0,.035.069c-.105.444.257.846.117,1.293a1.152,1.152,0,0,1-.729-.456l.03-.357c.048-.113.1-.227.142-.34C18.43,20.313,18.457,20.034,18.677,20.129Z" fill="#735530"/>
          <path d="M15.838,16.352c.329-.76.666-1.518.983-2.283.087-.21.078-.469.356-.551a19.715,19.715,0,0,1-1.044,2.866Z" fill="#d48361"/>
          <path d="M18.677,20.129c-.22-.1-.247.184-.405.209.268-.694.169-1.514.722-2.11q.015.358.028.717A5.618,5.618,0,0,1,18.677,20.129Z" fill="#757e83"/>
          <path d="M18.13,20.678l-.03.357c-.214.153-.336.448-.661.428C17.079,20.682,17.786,20.839,18.13,20.678Z" fill="#757e83"/>
          <path d="M15.838,16.352l.295.032a.243.243,0,0,1-.109.281Z" fill="#b28d6e"/>
          <path d="M13.282,23.378l-.9.086c.338-.438.911-.27,1.324-.513l-.1.241Z" fill="#735530"/>
          <path d="M18.119,22.388l.26.021A.164.164,0,0,1,18.119,22.388Z" fill="#7bac53"/>
          <path d="M11.234,27.145c-.05-.641.224-.919.88-.822.466.068.938.1,1.408.136.36.029.286.225.184.44a.793.793,0,0,1-.248.6l-.1-.5c-.3-.113-.506.564-.8.049.035-.051.069-.1.1-.156l-.05-.036-.062.182c-.5.294-.5.294.33.782-.451.211-.861-.045-1.281-.06l-.265-.139Z" fill="#d79194"/>
          <path d="M11.324,27.621l.265.139c-.071.116.016.311-.181.364C11.369,27.957,11.223,27.81,11.324,27.621Z" fill="#b28d6e"/>
          <path d="M36.207,23.49c-.316-.154-.32-.486-.4-.758-.063-.226-.085-.449-.334-.551.013-.093.026-.186.04-.279a8.554,8.554,0,0,1,2.84,1.6.433.433,0,0,1-.406.3.147.147,0,0,0-.163.128.235.235,0,0,1-.236.145c-.15-.117-.457.506-.5-.106C36.565,24.168,36.585,23.476,36.207,23.49Z" fill="#cf7a79"/>
          <path d="M28.225,30.891a3.062,3.062,0,0,0-.135-.316c-.088-.158-.5-.041-.351-.4.042-.1.095-.258.236-.222.269.068.6.071.756.335.4.7.548.724.971.052.2-.323.342-.615.636-.082.027.047.176.044.264.033a.309.309,0,0,0,.176-.105c.345-.4.778.534,1.083-.062.207-.406.395-.756.95-.571.066.022.183-.126.282-.185.12-.071.257-.413.321-.2.1.315.554.136.523.539-.063.809.343.754.864.416a.276.276,0,0,1,.355.016c.033.241-.417.527.008.768.587.331.439-.635.981-.469.093.146-.281.683.333.594a.639.639,0,0,1-.55.461c-.511-.1-1.123.061-1.424-.57-.035-.072-.11-.035-.172.01-.75.529-1.242.251-1.575-.673a3.61,3.61,0,0,0-.1.407c-.017.233.04.511-.245.612-.3.107-.4-.122-.51-.353-.126-.266-.361-.176-.552-.079-.291.148-.57.322-.854.485l-.837-.058-.3-.086a.448.448,0,0,1-.115-.015A2.549,2.549,0,0,0,28.225,30.891Z" fill="#cf7a79"/>
          <path d="M30.492,31.328c.284-.163.563-.337.854-.485.191-.1.426-.187.552.079.11.231.208.46.51.353.285-.1.228-.379.245-.612a3.61,3.61,0,0,1,.1-.407c.333.924.825,1.2,1.575.673.062-.045.137-.082.172-.01.3.631.913.472,1.424.57a1.118,1.118,0,0,1-1,.4c-.25,0-.52-.074-.741.12l-.24,0a.484.484,0,0,0-.464-.111A22.909,22.909,0,0,1,30.492,31.328Z" fill="#ca6562"/>
          <path d="M24.949,30.733l-.933-.3c-.242-.078-.163-.3-.213-.466.372-.338.266-.787.281-1.209l.2-.291c.134.219-.271.949.519.549a12.014,12.014,0,0,0,.163,1.55Z" fill="#b28d6e"/>
          <path d="M28.225,30.891a2.549,2.549,0,0,1,1.01.278,6.644,6.644,0,0,1-2.012-.257Z" fill="#ca6562"/>
          <path d="M33.487,31.894a.484.484,0,0,1,.464.111C33.781,32.032,33.611,32.062,33.487,31.894Z" fill="#c45d42"/>
          <path d="M29.35,31.184l.3.086A.237.237,0,0,1,29.35,31.184Z" fill="#ca6562"/>
          <path d="M26.649,30.763l.15.1Z" fill="#cf7a79"/>
          <path d="M36.207,23.49c.378-.014.358.678.843.474.045.612.352-.011.5.106a.972.972,0,0,1-.768.869c-.383-.236-.239-.765-.572-1.03v-.151Z" fill="#d48361"/>
          <path d="M37.788,23.925a.147.147,0,0,1,.163-.128Z" fill="#d48361"/>
          <path d="M33.331,27.025a2.9,2.9,0,0,1,.312,1.278.427.427,0,0,1-.383-.161c-.037-.192,0-.4-.15-.566-.012-.084-.025-.169-.038-.253Z" fill="#9e4937"/>
          <path d="M30.36,29.611c.336-.237.536-.1.8.07A.8.8,0,0,1,30.36,29.611Z" fill="#cf7a79"/>
          <path d="M24.084,28.757c-.015.422.091.871-.281,1.209-.23-.533-.619-.581-1.15-.482-.43.081-.908.023-.976-.6a3.127,3.127,0,0,0,2.128-.155Z" fill="#63713e"/>
          <path d="M21.678,28.89c-.392.059-.486-.144-.429-.483C21.4,28.56,21.707,28.576,21.678,28.89Z" fill="#63713e"/>
          <path d="M24.805,29.015c-.79.4-.385-.33-.519-.549.349-.837.647-1.016,1.566-.939C25.266,27.856,24.718,28.212,24.805,29.015Z" fill="#9e4937"/>
          <path d="M26.461,28.427l.02.05-.076.014a.125.125,0,0,1,.012-.053C26.423,28.428,26.446,28.43,26.461,28.427Z" fill="#d79194"/>
          <path d="M19.666,17.912a.382.382,0,0,1-.162.349C19.487,18.112,19.483,17.969,19.666,17.912Z" fill="#d79194"/>
          <path d="M19.526,18.271l-.181.219Z" fill="#d79194"/>
          <path d="M34.617,23.064c.269-.154.437-.281.652-.194a.187.187,0,0,1,.038.176C35.136,23.284,34.931,23.208,34.617,23.064Z" fill="#d48361"/>
          <path d="M36.212,23.758v.151C36.113,23.859,36.122,23.809,36.212,23.758Z" fill="#cf7a79"/>
          <path d="M12.54,27.038l.062-.182.05.036c-.032.053-.066.105-.1.156Z" fill="#cf7a79"/>
        </g>
        <circle cx="24.194" cy="24.194" r="22.194" fill="none" stroke="#6bafaf" stroke-miterlimit="10" stroke-width="4"/>
      </g>
    </g>
  </g>
</svg>
