{
  "asset": {
    "version": "2.0",
    "generator": "babylon.js glTF exporter for 3dsmax 2023 v20220628.14"
  },
  "scene": 0,
  "scenes": [
    {
      "nodes": [
        0
      ]
    }
  ],
  "nodes": [
    {
      "children": [
        1
      ],
      "mesh": 0,
      "translation": [
        0.0,
        -0.0115986094,
        0.0
      ],
      "rotation": [
        0.0,
        -0.7071068,
        0.0,
        0.7071067
      ],
      "scale": [
        7.13394976,
        7.13394976,
        10.3322649
      ],
      "name": "CandyBox"
    },
    {
      "mesh": 1,
      "translation": [
        -0.2516296,
        0.0547503158,
        0.0
      ],
      "rotation": [
        2.94487368E-09,
        -2.944876E-09,
        -0.7071068,
        0.7071068
      ],
      "scale": [
        0.6546005,
        1.10973942,
        0.99999994
      ],
      "name": "Lid"
    }
  ],
  "meshes": [
    {
      "primitives": [
        {
          "attributes": {
            "POSITION": 1,
            "NORMAL": 2,
            "TEXCOORD_0": 3
          },
          "indices": 0
        }
      ],
      "name": "CandyBox"
    },
    {
      "primitives": [
        {
          "attributes": {
            "POSITION": 5,
            "NORMAL": 6,
            "TEXCOORD_0": 7
          },
          "indices": 4
        }
      ],
      "name": "Lid"
    }
  ],
  "accessors": [
    {
      "bufferView": 0,
      "componentType": 5123,
      "count": 2040,
      "type": "SCALAR",
      "name": "accessorIndices"
    },
    {
      "bufferView": 1,
      "componentType": 5126,
      "count": 687,
      "max": [
        0.253983229,
        0.0519364551,
        0.25342834
      ],
      "min": [
        -0.253978729,
        0.0,
        -0.25288263
      ],
      "type": "VEC3",
      "name": "accessorPositions"
    },
    {
      "bufferView": 1,
      "byteOffset": 8244,
      "componentType": 5126,
      "count": 687,
      "type": "VEC3",
      "name": "accessorNormals"
    },
    {
      "bufferView": 2,
      "componentType": 5126,
      "count": 687,
      "type": "VEC2",
      "name": "accessorUVs"
    },
    {
      "bufferView": 0,
      "byteOffset": 4080,
      "componentType": 5123,
      "count": 1512,
      "type": "SCALAR",
      "name": "accessorIndices"
    },
    {
      "bufferView": 1,
      "byteOffset": 16488,
      "componentType": 5126,
      "count": 397,
      "max": [
        0.0461894274,
        0.456088424,
        0.2531555
      ],
      "min": [
        -0.004027346,
        -0.002415423,
        -0.25315547
      ],
      "type": "VEC3",
      "name": "accessorPositions"
    },
    {
      "bufferView": 1,
      "byteOffset": 21252,
      "componentType": 5126,
      "count": 397,
      "type": "VEC3",
      "name": "accessorNormals"
    },
    {
      "bufferView": 2,
      "byteOffset": 5496,
      "componentType": 5126,
      "count": 397,
      "type": "VEC2",
      "name": "accessorUVs"
    },
    {
      "bufferView": 3,
      "componentType": 5126,
      "count": 17,
      "max": [
        3.33333325
      ],
      "min": [
        0.0
      ],
      "type": "SCALAR",
      "name": "accessorAnimationInput"
    },
    {
      "bufferView": 4,
      "componentType": 5126,
      "count": 17,
      "type": "VEC4",
      "name": "accessorAnimationRotations"
    },
    {
      "bufferView": 3,
      "byteOffset": 68,
      "componentType": 5126,
      "count": 14,
      "max": [
        3.33333325
      ],
      "min": [
        0.0
      ],
      "type": "SCALAR",
      "name": "accessorAnimationInput"
    },
    {
      "bufferView": 5,
      "componentType": 5126,
      "count": 14,
      "type": "VEC3",
      "name": "accessorAnimationScales"
    }
  ],
  "bufferViews": [
    {
      "buffer": 0,
      "byteLength": 7104,
      "name": "bufferViewScalar"
    },
    {
      "buffer": 0,
      "byteOffset": 7104,
      "byteLength": 26016,
      "byteStride": 12,
      "name": "bufferViewFloatVec3"
    },
    {
      "buffer": 0,
      "byteOffset": 33120,
      "byteLength": 8672,
      "byteStride": 8,
      "name": "bufferViewFloatVec2"
    },
    {
      "buffer": 0,
      "byteOffset": 41792,
      "byteLength": 124,
      "name": "bufferViewAnimationFloatScalar"
    },
    {
      "buffer": 0,
      "byteOffset": 41916,
      "byteLength": 272,
      "name": "bufferViewAnimationFloatVec4"
    },
    {
      "buffer": 0,
      "byteOffset": 42188,
      "byteLength": 168,
      "name": "bufferViewAnimationFloatVec3"
    }
  ],
  "buffers": [
    {
      "uri": "CandyBox.bin",
      "byteLength": 42356
    }
  ],
  "animations": [
    {
      "channels": [
        {
          "sampler": 0,
          "target": {
            "node": 1,
            "path": "rotation"
          }
        },
        {
          "sampler": 1,
          "target": {
            "node": 1,
            "path": "scale"
          }
        }
      ],
      "samplers": [
        {
          "input": 8,
          "output": 9
        },
        {
          "input": 10,
          "output": 11
        }
      ],
      "name": "All Animations"
    }
  ]
}