{
    "asset" : {
        "generator" : "Khronos glTF Blender I/O v3.4.50",
        "version" : "2.0"
    },
    "scene" : 0,
    "scenes" : [
        {
            "name" : "Scene",
            "nodes" : [
                1
            ]
        }
    ],
    "nodes" : [
        {
            "mesh" : 0,
            "name" : "Cinta",
            "rotation" : [
                0,
                1,
                0,
                1.9470719792025193e-07
            ],
            "scale" : [
                0.24823395907878876,
                0.7974743843078613,
                2.067129373550415
            ],
            "translation" : [
                -0.03168439865112305,
                -0.8316829204559326,
                -1.448440432548523
            ]
        },
        {
            "children" : [
                0
            ],
            "mesh" : 1,
            "name" : "Nudo",
            "rotation" : [
                0,
                -1,
                0,
                1.947071694985425e-07
            ],
            "scale" : [
                0.4837626516819,
                0.4837626516819,
                0.4837626516819
            ],
            "translation" : [
                1.2437450885772705,
                0.40401774644851685,
                -0.7007014155387878
            ]
        }
    ],
    "animations" : [
        {
            "channels" : [
                {
                    "sampler" : 0,
                    "target" : {
                        "node" : 1,
                        "path" : "weights"
                    }
                },
                {
                    "sampler" : 1,
                    "target" : {
                        "node" : 0,
                        "path" : "weights"
                    }
                }
            ],
            "name" : "Cinta",
            "samplers" : [
                {
                    "input" : 16,
                    "interpolation" : "LINEAR",
                    "output" : 17
                },
                {
                    "input" : 18,
                    "interpolation" : "LINEAR",
                    "output" : 19
                }
            ]
        },
        {
            "channels" : [
                {
                    "sampler" : 0,
                    "target" : {
                        "node" : 1,
                        "path" : "translation"
                    }
                },
                {
                    "sampler" : 1,
                    "target" : {
                        "node" : 1,
                        "path" : "rotation"
                    }
                },
                {
                    "sampler" : 2,
                    "target" : {
                        "node" : 1,
                        "path" : "scale"
                    }
                }
            ],
            "name" : "NurbsPath.001Action",
            "samplers" : [
                {
                    "input" : 20,
                    "interpolation" : "STEP",
                    "output" : 21
                },
                {
                    "input" : 20,
                    "interpolation" : "STEP",
                    "output" : 22
                },
                {
                    "input" : 20,
                    "interpolation" : "STEP",
                    "output" : 23
                }
            ]
        }
    ],
    "materials" : [
        {
            "doubleSided" : true,
            "name" : "Material.005",
            "normalTexture" : {
                "index" : 0
            },
            "pbrMetallicRoughness" : {
                "baseColorTexture" : {
                    "index" : 1
                },
                "metallicRoughnessTexture" : {
                    "index" : 2
                }
            }
        }
    ],
    "meshes" : [
        {
            "extras" : {
                "targetNames" : [
                    "Key 2.001",
                    "Key 2",
                    "Key 3"
                ]
            },
            "name" : "Cinta",
            "primitives" : [
                {
                    "attributes" : {
                        "POSITION" : 0,
                        "TEXCOORD_0" : 1,
                        "NORMAL" : 2
                    },
                    "indices" : 3,
                    "material" : 0,
                    "targets" : [
                        {
                            "POSITION" : 4,
                            "NORMAL" : 5
                        },
                        {
                            "POSITION" : 6,
                            "NORMAL" : 7
                        },
                        {
                            "POSITION" : 8,
                            "NORMAL" : 9
                        }
                    ]
                }
            ],
            "weights" : [
                0,
                0,
                0
            ]
        },
        {
            "extras" : {
                "targetNames" : [
                    " Mo\u00f1o"
                ]
            },
            "name" : "Nudo",
            "primitives" : [
                {
                    "attributes" : {
                        "POSITION" : 10,
                        "TEXCOORD_0" : 11,
                        "NORMAL" : 12
                    },
                    "indices" : 13,
                    "material" : 0,
                    "targets" : [
                        {
                            "POSITION" : 14,
                            "NORMAL" : 15
                        }
                    ]
                }
            ],
            "weights" : [
                1
            ]
        }
    ],
    "textures" : [
        {
            "sampler" : 0,
            "source" : 0
        },
        {
            "sampler" : 0,
            "source" : 1
        },
        {
            "sampler" : 0,
            "source" : 2
        }
    ],
    "images" : [
        {
            "bufferView" : 4,
            "mimeType" : "image/png",
            "name" : "Material_Normal"
        },
        {
            "bufferView" : 5,
            "mimeType" : "image/png",
            "name" : "Material_BaseColor"
        },
        {
            "bufferView" : 6,
            "mimeType" : "image/png",
            "name" : "Material_Metallic.png-Material_Roughness"
        }
    ],
    "accessors" : [
        {
            "bufferView" : 0,
            "componentType" : 5126,
            "count" : 233,
            "max" : [
                0.009976149536669254,
                0.12812811136245728,
                -0.6931261420249939
            ],
            "min" : [
                -0.2779853343963623,
                0.0870373547077179,
                -0.7666820883750916
            ],
            "type" : "VEC3"
        },
        {
            "bufferView" : 1,
            "componentType" : 5126,
            "count" : 233,
            "type" : "VEC2"
        },
        {
            "bufferView" : 2,
            "componentType" : 5126,
            "count" : 233,
            "type" : "VEC3"
        },
        {
            "bufferView" : 3,
            "componentType" : 5123,
            "count" : 336,
            "type" : "SCALAR"
        },
        {
            "bufferView" : 7,
            "componentType" : 5126,
            "count" : 233,
            "max" : [
                0,
                0.935597836971283,
                0
            ],
            "min" : [
                0,
                0.9355976581573486,
                0
            ],
            "type" : "VEC3"
        },
        {
            "bufferView" : 8,
            "componentType" : 5126,
            "count" : 233,
            "type" : "VEC3"
        },
        {
            "bufferView" : 9,
            "componentType" : 5126,
            "count" : 233,
            "max" : [
                2.3458974361419678,
                0,
                2.523418426513672
            ],
            "min" : [
                -2.3458926677703857,
                0,
                -1.0826942920684814
            ],
            "type" : "VEC3"
        },
        {
            "bufferView" : 10,
            "componentType" : 5126,
            "count" : 233,
            "type" : "VEC3"
        },
        {
            "bufferView" : 11,
            "componentType" : 5126,
            "count" : 233,
            "max" : [
                0,
                0,
                0
            ],
            "min" : [
                0,
                -1.0851566791534424,
                0
            ],
            "type" : "VEC3"
        },
        {
            "bufferView" : 12,
            "componentType" : 5126,
            "count" : 233,
            "type" : "VEC3"
        },
        {
            "bufferView" : 13,
            "componentType" : 5126,
            "count" : 3481,
            "max" : [
                2.295748472213745,
                0.5367456078529358,
                0.670104444026947
            ],
            "min" : [
                -2.285104274749756,
                -0.013209431432187557,
                -1.9713573455810547
            ],
            "type" : "VEC3"
        },
        {
            "bufferView" : 14,
            "componentType" : 5126,
            "count" : 3481,
            "type" : "VEC2"
        },
        {
            "bufferView" : 15,
            "componentType" : 5126,
            "count" : 3481,
            "type" : "VEC3"
        },
        {
            "bufferView" : 16,
            "componentType" : 5123,
            "count" : 10500,
            "type" : "SCALAR"
        },
        {
            "bufferView" : 17,
            "componentType" : 5126,
            "count" : 3481,
            "max" : [
                -17.814804077148438,
                0.0029175528325140476,
                0.0035337060689926147
            ],
            "min" : [
                -17.82114601135254,
                -0.002972930669784546,
                -0.003571629524230957
            ],
            "type" : "VEC3"
        },
        {
            "bufferView" : 18,
            "componentType" : 5126,
            "count" : 3481,
            "type" : "VEC3"
        },
        {
            "bufferView" : 19,
            "componentType" : 5126,
            "count" : 11,
            "max" : [
                1.6666666666666667
            ],
            "min" : [
                1.25
            ],
            "type" : "SCALAR"
        },
        {
            "bufferView" : 20,
            "componentType" : 5126,
            "count" : 11,
            "type" : "SCALAR"
        },
        {
            "bufferView" : 21,
            "componentType" : 5126,
            "count" : 21,
            "max" : [
                2.0833333333333335
            ],
            "min" : [
                1.25
            ],
            "type" : "SCALAR"
        },
        {
            "bufferView" : 22,
            "componentType" : 5126,
            "count" : 63,
            "type" : "SCALAR"
        },
        {
            "bufferView" : 23,
            "componentType" : 5126,
            "count" : 1,
            "max" : [
                1.25
            ],
            "min" : [
                1.25
            ],
            "type" : "SCALAR"
        },
        {
            "bufferView" : 24,
            "componentType" : 5126,
            "count" : 1,
            "type" : "VEC3"
        },
        {
            "bufferView" : 25,
            "componentType" : 5126,
            "count" : 1,
            "type" : "VEC4"
        },
        {
            "bufferView" : 26,
            "componentType" : 5126,
            "count" : 1,
            "type" : "VEC3"
        }
    ],
    "bufferViews" : [
        {
            "buffer" : 0,
            "byteLength" : 2796,
            "byteOffset" : 0,
            "target" : 34962
        },
        {
            "buffer" : 0,
            "byteLength" : 1864,
            "byteOffset" : 2796,
            "target" : 34962
        },
        {
            "buffer" : 0,
            "byteLength" : 2796,
            "byteOffset" : 4660,
            "target" : 34962
        },
        {
            "buffer" : 0,
            "byteLength" : 672,
            "byteOffset" : 7456,
            "target" : 34963
        },
        {
            "buffer" : 0,
            "byteLength" : 10449,
            "byteOffset" : 8128
        },
        {
            "buffer" : 0,
            "byteLength" : 7511,
            "byteOffset" : 18580
        },
        {
            "buffer" : 0,
            "byteLength" : 19669,
            "byteOffset" : 26092
        },
        {
            "buffer" : 0,
            "byteLength" : 2796,
            "byteOffset" : 45764,
            "target" : 34962
        },
        {
            "buffer" : 0,
            "byteLength" : 2796,
            "byteOffset" : 48560,
            "target" : 34962
        },
        {
            "buffer" : 0,
            "byteLength" : 2796,
            "byteOffset" : 51356,
            "target" : 34962
        },
        {
            "buffer" : 0,
            "byteLength" : 2796,
            "byteOffset" : 54152,
            "target" : 34962
        },
        {
            "buffer" : 0,
            "byteLength" : 2796,
            "byteOffset" : 56948,
            "target" : 34962
        },
        {
            "buffer" : 0,
            "byteLength" : 2796,
            "byteOffset" : 59744,
            "target" : 34962
        },
        {
            "buffer" : 0,
            "byteLength" : 41772,
            "byteOffset" : 62540,
            "target" : 34962
        },
        {
            "buffer" : 0,
            "byteLength" : 27848,
            "byteOffset" : 104312,
            "target" : 34962
        },
        {
            "buffer" : 0,
            "byteLength" : 41772,
            "byteOffset" : 132160,
            "target" : 34962
        },
        {
            "buffer" : 0,
            "byteLength" : 21000,
            "byteOffset" : 173932,
            "target" : 34963
        },
        {
            "buffer" : 0,
            "byteLength" : 41772,
            "byteOffset" : 194932,
            "target" : 34962
        },
        {
            "buffer" : 0,
            "byteLength" : 41772,
            "byteOffset" : 236704,
            "target" : 34962
        },
        {
            "buffer" : 0,
            "byteLength" : 44,
            "byteOffset" : 278476
        },
        {
            "buffer" : 0,
            "byteLength" : 44,
            "byteOffset" : 278520
        },
        {
            "buffer" : 0,
            "byteLength" : 84,
            "byteOffset" : 278564
        },
        {
            "buffer" : 0,
            "byteLength" : 252,
            "byteOffset" : 278648
        },
        {
            "buffer" : 0,
            "byteLength" : 4,
            "byteOffset" : 278900
        },
        {
            "buffer" : 0,
            "byteLength" : 12,
            "byteOffset" : 278904
        },
        {
            "buffer" : 0,
            "byteLength" : 16,
            "byteOffset" : 278916
        },
        {
            "buffer" : 0,
            "byteLength" : 12,
            "byteOffset" : 278932
        }
    ],
    "samplers" : [
        {
            "magFilter" : 9729,
            "minFilter" : 9987
        }
    ],
    "buffers" : [
        {
            "byteLength" : 278944,
            "uri" : "data:application/octet-stream;base64,"
        }
    ]
}
