<svg xmlns="http://www.w3.org/2000/svg" xmlns:xlink="http://www.w3.org/1999/xlink" width="15.86mm" height="12.897mm" viewBox="0 0 44.957 36.558">
  <defs>
    <linearGradient id="efed555c-c3ce-44c8-9659-8355c2a99864" data-name="Degradado sin nombre 219" y1="8.686" x2="19.02" y2="8.686" gradientUnits="userSpaceOnUse">
      <stop offset="0" stop-color="#bb986c"/>
      <stop offset="0.195" stop-color="#be9a6e"/>
      <stop offset="0.315" stop-color="#c6a275"/>
      <stop offset="0.415" stop-color="#d4af81"/>
      <stop offset="0.5" stop-color="#e8c091"/>
      <stop offset="0.579" stop-color="#d9b284"/>
      <stop offset="0.699" stop-color="#c8a477"/>
      <stop offset="0.831" stop-color="#be9b6f"/>
      <stop offset="1" stop-color="#bb986c"/>
    </linearGradient>
    <linearGradient id="f8a54939-953f-4896-b92e-3b668dc04113" x1="25.965" y1="8.662" x2="44.957" y2="8.662" xlink:href="#efed555c-c3ce-44c8-9659-8355c2a99864"/>
    <linearGradient id="8c8a7308-6bca-4679-893e-9bcdf8105ba4" x1="9.277" y1="20.479" x2="19.199" y2="26.207" xlink:href="#efed555c-c3ce-44c8-9659-8355c2a99864"/>
    <linearGradient id="708c8695-5828-49fb-a50b-10e53a24b0d7" x1="23.334" y1="24.243" x2="32.865" y2="18.74" xlink:href="#efed555c-c3ce-44c8-9659-8355c2a99864"/>
    <linearGradient id="46c9afe6-6750-48f2-b297-4dd3ea1851de" x1="19.097" y1="9.532" x2="25.573" y2="9.532" xlink:href="#efed555c-c3ce-44c8-9659-8355c2a99864"/>
  </defs>
  <title>Gold_Knot</title>
  <g id="7a8feab2-ecc8-4318-9270-362418aac68d" data-name="Capa 2">
    <g id="ef397fa1-a9ce-4882-af2b-31fc55d90b87" data-name="Capa 4">
      <g>
        <path d="M19.02,5.905a14,14,0,0,0-.092,7.063c-.614.283-1.28.612-1.964.9-2.045.865-4.064,1.806-6.156,2.538a14.586,14.586,0,0,1-5.065.949,8.956,8.956,0,0,1-3.326-.707,1.984,1.984,0,0,1-1.235-1.5,10.158,10.158,0,0,1-.288-2.168A38.012,38.012,0,0,0,.282,6.092C.122,5.084.075,4.056.005,3.034A2.334,2.334,0,0,1,1.494.762,9.127,9.127,0,0,1,6.385.087a22.966,22.966,0,0,1,11.188,4.7C18.078,5.163,18.568,5.556,19.02,5.905Z" fill="url(#efed555c-c3ce-44c8-9659-8355c2a99864)"/>
        <path d="M26.034,12.969a14.5,14.5,0,0,0-.069-7.086c.546-.414,1.181-.92,1.84-1.393A23.653,23.653,0,0,1,35.72.622,13.22,13.22,0,0,1,41.4.141a10.041,10.041,0,0,1,2.126.664,2.251,2.251,0,0,1,1.409,2.477c-.239,2.091-.53,4.176-.748,6.269-.1.913-.041,1.841-.1,2.76s-.142,1.835-.286,2.742a2.105,2.105,0,0,1-1.444,1.677,10.3,10.3,0,0,1-6.118.253,37.67,37.67,0,0,1-7.79-2.9Z" fill="url(#f8a54939-953f-4896-b92e-3b668dc04113)"/>
        <path d="M21.249,13.591a64.145,64.145,0,0,0-8.026,22.967c-.174-.154-.292-.244-.4-.351q-3.643-3.8-7.29-7.6a.563.563,0,0,1-.144-.722,38.962,38.962,0,0,1,6.088-10.1c.369-.434.758-.852,1.147-1.268a1.031,1.031,0,0,1,.321-.22c2.05-.929,4.1-1.859,6.157-2.77a1.525,1.525,0,0,1,.66-.057C20.231,13.494,20.694,13.544,21.249,13.591Z" fill="url(#8c8a7308-6bca-4679-893e-9bcdf8105ba4)"/>
        <path d="M22.847,13.54c.525,0,.947.006,1.369,0a1.5,1.5,0,0,0,.647-.063,1.2,1.2,0,0,1,1.19.119c1.444.672,2.9,1.325,4.339,2a1.443,1.443,0,0,1,.49.41,42.826,42.826,0,0,1,5.346,9.187c.249.561.473,1.133.73,1.69.14.306.079.465-.235.609-2.245,1.03-4.482,2.077-6.722,3.118l-2.358,1.1C27.615,25.221,25.646,19.32,22.847,13.54Z" fill="url(#708c8695-5828-49fb-a50b-10e53a24b0d7)"/>
        <path d="M22.38,12.981c-.687,0-1.375.007-2.062,0a.855.855,0,0,1-.969-.848,14.912,14.912,0,0,1-.065-5.062c.135-.786.368-.986,1.172-.987,1.3,0,2.6,0,3.9,0,.644,0,.925.224,1.019.848a16.678,16.678,0,0,1-.024,5.239.831.831,0,0,1-.957.808C23.725,12.988,23.052,12.98,22.38,12.981Z" fill="url(#46c9afe6-6750-48f2-b297-4dd3ea1851de)"/>
      </g>
    </g>
  </g>
</svg>
