<svg xmlns="http://www.w3.org/2000/svg" width="17.684mm" height="17.684mm" viewBox="0 0 50.127 50.127">
  <title>Pay_Button</title>
  <g id="8f60445d-ace0-49a9-82e9-5b1753774d33" data-name="Capa 2">
    <g id="9e9cf1ab-a72a-4004-afee-35e1ecc1a733" data-name="Capa 3">
      <g>
        <circle cx="25.064" cy="25.064" r="23.064" fill="#fdfbfc" stroke="#d7a6b4" stroke-miterlimit="10" stroke-width="4"/>
        <path d="M24.27,42.289a11.679,11.679,0,0,1,.624-2.64l.336-1.2-1.056-.24a15.054,15.054,0,0,1-2.3-.672,1.116,1.116,0,0,1-.816-1.056,2.438,2.438,0,0,1,.288-.96.646.646,0,0,1,.576-.288,3.778,3.778,0,0,1,1.1.216,12.406,12.406,0,0,0,1.632.384A13.25,13.25,0,0,0,26.91,36a17.651,17.651,0,0,0,1.776-.1,4.225,4.225,0,0,0,2.76-1.32,3.439,3.439,0,0,0,.936-2.28,2.61,2.61,0,0,0-.648-1.728,2.676,2.676,0,0,0-1.944-.864l-1.248-.048q-.962,0-2.064.048t-2.256.048q-5.9,0-8.208-3.072a7.028,7.028,0,0,1-1.392-4.224,9.193,9.193,0,0,1,2.256-5.76,12.85,12.85,0,0,1,6.672-4.128,11.079,11.079,0,0,0,1.584-.5,1.247,1.247,0,0,0,.672-.7,6.357,6.357,0,0,0,.312-1.512q.12-1.032.456-2.76a1.259,1.259,0,0,1,.408-.744,1.054,1.054,0,0,1,.7-.264.873.873,0,0,1,.624.288,1.247,1.247,0,0,1,.288.912,14.924,14.924,0,0,1-.336,2.784,4.833,4.833,0,0,0-.144,1.056.755.755,0,0,0,.336.72,7.261,7.261,0,0,0,1.248.48,6.375,6.375,0,0,1,3.456,2.376,5.639,5.639,0,0,1,.96,3.048,5.378,5.378,0,0,1-.672,2.832q-.672,1.105-1.344,1.1a1,1,0,0,1-.7-.288.84.84,0,0,1-.312-.624l.144-.48a6.388,6.388,0,0,0,.672-2.688,3.027,3.027,0,0,0-1.128-2.3,5.107,5.107,0,0,0-3.48-1.008,11.625,11.625,0,0,0-5.232,1.32,10.307,10.307,0,0,0-4.08,3.48,6.373,6.373,0,0,0-1.056,3.312,4.5,4.5,0,0,0,1.248,3.168,5.758,5.758,0,0,0,3.5,1.68q1.1.1,2.688.1l5.376-.048a4.951,4.951,0,0,1,5.04,4.992,5.94,5.94,0,0,1-1.248,3.5,5.634,5.634,0,0,1-2.184,1.824,7.574,7.574,0,0,1-1.944.528,3.8,3.8,0,0,0-1.488.456,2.326,2.326,0,0,0-.912,1.56,9.721,9.721,0,0,1-.672,2.376q-.384.792-.96.792Q24.27,43.249,24.27,42.289Z" fill="#6bafaf"/>
      </g>
    </g>
  </g>
</svg>
