<svg xmlns="http://www.w3.org/2000/svg" xmlns:xlink="http://www.w3.org/1999/xlink" width="13.625mm" height="11.08mm" viewBox="0 0 38.623 31.408">
  <defs>
    <linearGradient id="60ea0016-fcdb-49a7-b521-9fe1f2a9140a" data-name="Degradado sin nombre 230" y1="7.462" x2="16.34" y2="7.462" gradientUnits="userSpaceOnUse">
      <stop offset="0" stop-color="#c3382a"/>
      <stop offset="0.155" stop-color="#c33a2d"/>
      <stop offset="0.251" stop-color="#c44235"/>
      <stop offset="0.33" stop-color="#c54e44"/>
      <stop offset="0.401" stop-color="#c76058"/>
      <stop offset="0.465" stop-color="#c97772"/>
      <stop offset="0.5" stop-color="#ca8784"/>
      <stop offset="0.516" stop-color="#c9817d"/>
      <stop offset="0.597" stop-color="#c7675f"/>
      <stop offset="0.682" stop-color="#c55248"/>
      <stop offset="0.773" stop-color="#c44337"/>
      <stop offset="0.873" stop-color="#c33b2d"/>
      <stop offset="1" stop-color="#c3382a"/>
    </linearGradient>
    <linearGradient id="d37a3843-f9dc-4b3e-8cf2-e7c074db3a70" x1="22.307" y1="7.442" x2="38.623" y2="7.442" xlink:href="#60ea0016-fcdb-49a7-b521-9fe1f2a9140a"/>
    <linearGradient id="4dacda01-c8f6-4bae-9672-b1e60df8c543" x1="7.97" y1="17.594" x2="16.494" y2="22.515" xlink:href="#60ea0016-fcdb-49a7-b521-9fe1f2a9140a"/>
    <linearGradient id="1248190e-3bac-451a-995a-fbea13a47da9" x1="20.047" y1="20.828" x2="28.235" y2="16.1" xlink:href="#60ea0016-fcdb-49a7-b521-9fe1f2a9140a"/>
    <linearGradient id="b1a11a56-8edb-42b4-bb66-ee9974f0063d" x1="16.407" y1="8.189" x2="21.97" y2="8.189" xlink:href="#60ea0016-fcdb-49a7-b521-9fe1f2a9140a"/>
  </defs>
  <title>Red_Knot_1</title>
  <g id="fb650d15-07b8-432d-a9cc-fb7ec177f624" data-name="Capa 2">
    <g id="0909f25d-7d71-4a22-a722-2569cf5353e2" data-name="Capa 4">
      <g>
        <path d="M16.34,5.073a12.038,12.038,0,0,0-.079,6.069c-.527.242-1.1.525-1.687.773-1.757.743-3.492,1.552-5.289,2.181a12.549,12.549,0,0,1-4.351.815A7.677,7.677,0,0,1,2.077,14.3a1.7,1.7,0,0,1-1.061-1.285,8.707,8.707,0,0,1-.248-1.862A32.652,32.652,0,0,0,.242,5.234C.105,4.368.064,3.484,0,2.607A2,2,0,0,1,1.283.655a7.84,7.84,0,0,1,4.2-.58A19.726,19.726,0,0,1,15.1,4.116C15.532,4.436,15.952,4.774,16.34,5.073Z" fill="url(#60ea0016-fcdb-49a7-b521-9fe1f2a9140a)"/>
        <path d="M22.366,11.142a12.449,12.449,0,0,0-.059-6.088c.469-.356,1.015-.79,1.581-1.2a20.316,20.316,0,0,1,6.8-3.323A11.347,11.347,0,0,1,35.569.121,8.577,8.577,0,0,1,37.4.692a1.931,1.931,0,0,1,1.211,2.127c-.2,1.8-.455,3.588-.643,5.386-.082.785-.035,1.582-.087,2.371s-.122,1.577-.245,2.356a1.811,1.811,0,0,1-1.241,1.441,8.84,8.84,0,0,1-5.256.217A32.328,32.328,0,0,1,24.441,12.1Z" fill="url(#d37a3843-f9dc-4b3e-8cf2-e7c074db3a70)"/>
        <path d="M18.256,11.676a55.109,55.109,0,0,0-6.9,19.732c-.149-.132-.251-.21-.339-.3Q7.89,27.842,4.758,24.58a.484.484,0,0,1-.124-.62,33.458,33.458,0,0,1,5.231-8.68c.317-.373.651-.732.985-1.09A.892.892,0,0,1,11.126,14c1.761-.8,3.522-1.6,5.29-2.38a1.283,1.283,0,0,1,.566-.048C17.381,11.593,17.779,11.636,18.256,11.676Z" fill="url(#4dacda01-c8f6-4bae-9672-b1e60df8c543)"/>
        <path d="M19.628,11.633c.451,0,.814.005,1.176,0a1.294,1.294,0,0,0,.556-.055,1.032,1.032,0,0,1,1.022.1c1.241.577,2.489,1.138,3.728,1.719a1.235,1.235,0,0,1,.422.353,36.792,36.792,0,0,1,4.592,7.892c.214.482.406.973.627,1.452.121.263.068.4-.2.523C29.621,24.5,27.7,25.4,25.775,26.3l-2.027.942C23.724,21.668,22.033,16.6,19.628,11.633Z" fill="url(#1248190e-3bac-451a-995a-fbea13a47da9)"/>
        <path d="M19.227,11.152c-.59,0-1.181.006-1.771,0a.735.735,0,0,1-.833-.728,12.8,12.8,0,0,1-.055-4.349c.115-.676.316-.847,1.006-.848,1.118,0,2.236,0,3.354,0,.552,0,.794.193.875.728a14.336,14.336,0,0,1-.021,4.5.715.715,0,0,1-.822.7C20.383,11.158,19.805,11.152,19.227,11.152Z" fill="url(#b1a11a56-8edb-42b4-bb66-ee9974f0063d)"/>
      </g>
    </g>
  </g>
</svg>
