<svg xmlns="http://www.w3.org/2000/svg" xmlns:xlink="http://www.w3.org/1999/xlink" width="15.86mm" height="12.897mm" viewBox="0 0 44.957 36.558">
  <defs>
    <linearGradient id="f0c5a94c-4c46-45ee-842f-e9e1cd517f8c" data-name="Degradado sin nombre 230" y1="8.686" x2="19.02" y2="8.686" gradientUnits="userSpaceOnUse">
      <stop offset="0" stop-color="#c3382a"/>
      <stop offset="0.155" stop-color="#c33a2d"/>
      <stop offset="0.251" stop-color="#c44235"/>
      <stop offset="0.33" stop-color="#c54e44"/>
      <stop offset="0.401" stop-color="#c76058"/>
      <stop offset="0.465" stop-color="#c97772"/>
      <stop offset="0.5" stop-color="#ca8784"/>
      <stop offset="0.516" stop-color="#c9817d"/>
      <stop offset="0.597" stop-color="#c7675f"/>
      <stop offset="0.682" stop-color="#c55248"/>
      <stop offset="0.773" stop-color="#c44337"/>
      <stop offset="0.873" stop-color="#c33b2d"/>
      <stop offset="1" stop-color="#c3382a"/>
    </linearGradient>
    <linearGradient id="56adf7e3-4e0e-4d5c-a797-f181c36cc95c" x1="25.965" y1="8.662" x2="44.957" y2="8.662" xlink:href="#f0c5a94c-4c46-45ee-842f-e9e1cd517f8c"/>
    <linearGradient id="35e9f92d-b3c9-4ea1-b90d-fee13b28a711" x1="9.277" y1="20.479" x2="19.199" y2="26.207" xlink:href="#f0c5a94c-4c46-45ee-842f-e9e1cd517f8c"/>
    <linearGradient id="0f510bd9-0695-4f21-bb17-734ed8369501" x1="23.334" y1="24.243" x2="32.865" y2="18.74" xlink:href="#f0c5a94c-4c46-45ee-842f-e9e1cd517f8c"/>
    <linearGradient id="991f9490-40d1-4bbd-a836-e7f98a25011d" x1="19.097" y1="9.532" x2="25.573" y2="9.532" xlink:href="#f0c5a94c-4c46-45ee-842f-e9e1cd517f8c"/>
  </defs>
  <title>Red_Knot</title>
  <g id="41d31438-51b7-44a4-bd1e-053e80d2453f" data-name="Capa 2">
    <g id="52f6e607-fc5a-47f8-8b89-475a39c8bc79" data-name="Capa 4">
      <g>
        <path d="M19.02,5.905a14,14,0,0,0-.092,7.063c-.614.283-1.28.612-1.964.9-2.045.865-4.064,1.806-6.156,2.538a14.586,14.586,0,0,1-5.065.949,8.956,8.956,0,0,1-3.326-.707,1.984,1.984,0,0,1-1.235-1.5,10.158,10.158,0,0,1-.288-2.168A38.012,38.012,0,0,0,.282,6.092C.122,5.084.075,4.056.005,3.034A2.334,2.334,0,0,1,1.494.762,9.127,9.127,0,0,1,6.385.087a22.966,22.966,0,0,1,11.188,4.7C18.078,5.163,18.568,5.556,19.02,5.905Z" fill="url(#f0c5a94c-4c46-45ee-842f-e9e1cd517f8c)"/>
        <path d="M26.034,12.969a14.5,14.5,0,0,0-.069-7.086c.546-.414,1.181-.92,1.84-1.393A23.653,23.653,0,0,1,35.72.622,13.22,13.22,0,0,1,41.4.141a10.041,10.041,0,0,1,2.126.664,2.251,2.251,0,0,1,1.409,2.477c-.239,2.091-.53,4.176-.748,6.269-.1.913-.041,1.841-.1,2.76s-.142,1.835-.286,2.742a2.105,2.105,0,0,1-1.444,1.677,10.3,10.3,0,0,1-6.118.253,37.67,37.67,0,0,1-7.79-2.9Z" fill="url(#56adf7e3-4e0e-4d5c-a797-f181c36cc95c)"/>
        <path d="M21.249,13.591a64.145,64.145,0,0,0-8.026,22.967c-.174-.154-.292-.244-.4-.351q-3.643-3.8-7.29-7.6a.563.563,0,0,1-.144-.722,38.962,38.962,0,0,1,6.088-10.1c.369-.434.758-.852,1.147-1.268a1.031,1.031,0,0,1,.321-.22c2.05-.929,4.1-1.859,6.157-2.77a1.525,1.525,0,0,1,.66-.057C20.231,13.494,20.694,13.544,21.249,13.591Z" fill="url(#35e9f92d-b3c9-4ea1-b90d-fee13b28a711)"/>
        <path d="M22.847,13.54c.525,0,.947.006,1.369,0a1.5,1.5,0,0,0,.647-.063,1.2,1.2,0,0,1,1.19.119c1.444.672,2.9,1.325,4.339,2a1.443,1.443,0,0,1,.49.41,42.826,42.826,0,0,1,5.346,9.187c.249.561.473,1.133.73,1.69.14.306.079.465-.235.609-2.245,1.03-4.482,2.077-6.722,3.118l-2.358,1.1C27.615,25.221,25.646,19.32,22.847,13.54Z" fill="url(#0f510bd9-0695-4f21-bb17-734ed8369501)"/>
        <path d="M22.38,12.981c-.687,0-1.375.007-2.062,0a.855.855,0,0,1-.969-.848,14.912,14.912,0,0,1-.065-5.062c.135-.786.368-.986,1.172-.987,1.3,0,2.6,0,3.9,0,.644,0,.925.224,1.019.848a16.678,16.678,0,0,1-.024,5.239.831.831,0,0,1-.957.808C23.725,12.988,23.052,12.98,22.38,12.981Z" fill="url(#991f9490-40d1-4bbd-a836-e7f98a25011d)"/>
      </g>
    </g>
  </g>
</svg>
