<svg xmlns="http://www.w3.org/2000/svg" width="17.684mm" height="17.684mm" viewBox="0 0 50.127 50.127">
  <title>Reset_Button</title>
  <g id="38e0950d-631e-425a-8709-ee8277bfb5ac" data-name="Capa 2">
    <g id="8d95662f-30aa-4d72-91a1-e48fddee9e76" data-name="Capa 3">
      <circle cx="25.064" cy="25.064" r="23.064" fill="#fdfbfc" stroke="#d7a6b4" stroke-miterlimit="10" stroke-width="4"/>
      <g>
        <path d="M13.9,26.554c.512,9.512,11.894,15.047,19.054,7.887S34.576,15.9,25.064,15.387c-1.608-.087-1.6,2.414,0,2.5,7.379.4,11.7,9.2,6.119,14.786C25.631,38.225,16.8,33.946,16.4,26.554c-.086-1.6-2.587-1.611-2.5,0Z" fill="#6bafaf"/>
        <path d="M22.258,13.026a10.668,10.668,0,0,1-2.581,3.33l1.514-.2q-.314-.186.259.3l.126.963,0-.022-.873.873c-.6.245-.711-.21-.22.189.316.256.687.451,1.007.706a3.38,3.38,0,0,1,1.087,1.449c.575,1.484,2.993.839,2.411-.665a6.961,6.961,0,0,0-3.88-3.974c-1.643-.614-2.8,1.454-1.182,2.34a1.3,1.3,0,0,0,1.515-.2,12.484,12.484,0,0,0,2.973-3.836c.773-1.412-1.385-2.675-2.159-1.262Z" fill="#6bafaf"/>
      </g>
    </g>
  </g>
</svg>
