{
    "asset" : {
        "generator" : "Khronos glTF Blender I/O v1.8.19",
        "version" : "2.0"
    },
    "scene" : 0,
    "scenes" : [
        {
            "name" : "Scene",
            "nodes" : [
                1
            ]
        }
    ],
    "nodes" : [
        {
            "mesh" : 0,
            "name" : "Caras"
        },
        {
            "children" : [
                0
            ],
            "mesh" : 1,
            "name" : "CandyBox"
        }
    ],
    "animations" : [
        {
            "channels" : [
                {
                    "sampler" : 0,
                    "target" : {
                        "node" : 1,
                        "path" : "weights"
                    }
                },
                {
                    "sampler" : 1,
                    "target" : {
                        "node" : 0,
                        "path" : "weights"
                    }
                }
            ],
            "name" : "CandyBox",
            "samplers" : [
                {
                    "input" : 32,
                    "interpolation" : "LINEAR",
                    "output" : 33
                },
                {
                    "input" : 32,
                    "interpolation" : "LINEAR",
                    "output" : 34
                }
            ]
        }
    ],
    "materials" : [
        {
            "doubleSided" : true,
            "name" : "Caras",
            "pbrMetallicRoughness" : {
                "baseColorFactor" : [
                    0.5,
                    0.5,
                    0.5,
                    1
                ],
                "metallicFactor" : 0,
                "roughnessFactor" : 0.5
            }
        },
        {
            "doubleSided" : true,
            "name" : "CandyBox",
            "normalTexture" : {
                "index" : 0
            },
            "pbrMetallicRoughness" : {
                "baseColorTexture" : {
                    "index" : 1
                },
                "metallicRoughnessTexture" : {
                    "index" : 2
                }
            }
        }
    ],
    "meshes" : [
        {
            "extras" : {
                "targetNames" : [
                    "Caras 2",
                    "Caras 3",
                    "Caras 4",
                    "Caras 6"
                ]
            },
            "name" : "Caras",
            "primitives" : [
                {
                    "attributes" : {
                        "POSITION" : 0,
                        "NORMAL" : 1,
                        "TEXCOORD_0" : 2
                    },
                    "indices" : 3,
                    "material" : 0,
                    "targets" : [
                        {
                            "POSITION" : 4,
                            "NORMAL" : 5
                        },
                        {
                            "POSITION" : 6,
                            "NORMAL" : 7
                        },
                        {
                            "POSITION" : 8,
                            "NORMAL" : 9
                        },
                        {
                            "POSITION" : 10,
                            "NORMAL" : 11
                        }
                    ]
                }
            ],
            "weights" : [
                0,
                1,
                0,
                0
            ]
        },
        {
            "extras" : {
                "targetNames" : [
                    "Borden",
                    "125",
                    "90",
                    "Medio1",
                    "Key 5",
                    "Key 6",
                    "NuevasFront",
                    "NuevasBack"
                ]
            },
            "name" : "CandyBox",
            "primitives" : [
                {
                    "attributes" : {
                        "POSITION" : 12,
                        "NORMAL" : 13,
                        "TEXCOORD_0" : 14
                    },
                    "indices" : 15,
                    "material" : 1,
                    "targets" : [
                        {
                            "POSITION" : 16,
                            "NORMAL" : 17
                        },
                        {
                            "POSITION" : 18,
                            "NORMAL" : 19
                        },
                        {
                            "POSITION" : 20,
                            "NORMAL" : 21
                        },
                        {
                            "POSITION" : 22,
                            "NORMAL" : 23
                        },
                        {
                            "POSITION" : 24,
                            "NORMAL" : 25
                        },
                        {
                            "POSITION" : 26,
                            "NORMAL" : 27
                        },
                        {
                            "POSITION" : 28,
                            "NORMAL" : 29
                        },
                        {
                            "POSITION" : 30,
                            "NORMAL" : 31
                        }
                    ]
                }
            ],
            "weights" : [
                0,
                0,
                1,
                0,
                0,
                0,
                0.005101936869323254,
                0
            ]
        }
    ],
    "textures" : [
        {
            "sampler" : 0,
            "source" : 0
        },
        {
            "sampler" : 0,
            "source" : 1
        },
        {
            "sampler" : 0,
            "source" : 2
        }
    ],
    "images" : [
        {
            "bufferView" : 16,
            "mimeType" : "image/png",
            "name" : "Caja_Normal"
        },
        {
            "bufferView" : 17,
            "mimeType" : "image/png",
            "name" : "Caja_BaseColor"
        },
        {
            "bufferView" : 18,
            "mimeType" : "image/png",
            "name" : "Caja_Metallic-Caja_Roughness"
        }
    ],
    "accessors" : [
        {
            "bufferView" : 0,
            "componentType" : 5126,
            "count" : 60,
            "max" : [
                2.451272964477539,
                3.9087393283843994,
                -1.8050280809402466
            ],
            "min" : [
                -2.451272964477539,
                0.5319687724113464,
                -1.84233820438385
            ],
            "type" : "VEC3"
        },
        {
            "bufferView" : 1,
            "componentType" : 5126,
            "count" : 60,
            "type" : "VEC3"
        },
        {
            "bufferView" : 2,
            "componentType" : 5126,
            "count" : 60,
            "type" : "VEC2"
        },
        {
            "bufferView" : 3,
            "componentType" : 5123,
            "count" : 144,
            "type" : "SCALAR"
        },
        {
            "bufferView" : 4,
            "componentType" : 5126,
            "count" : 60,
            "max" : [
                2.384185791015625e-07,
                0.003882467746734619,
                -0.07804405689239502
            ],
            "min" : [
                -2.384185791015625e-07,
                -0.656348466873169,
                -2.029843807220459
            ],
            "type" : "VEC3"
        },
        {
            "bufferView" : 5,
            "componentType" : 5126,
            "count" : 60,
            "type" : "VEC3"
        },
        {
            "bufferView" : 6,
            "componentType" : 5126,
            "count" : 60,
            "max" : [
                2.384185791015625e-07,
                -0.1351519227027893,
                3.502737045288086
            ],
            "min" : [
                -4.76837158203125e-07,
                -3.5549721717834473,
                0.14934563636779785
            ],
            "type" : "VEC3"
        },
        {
            "bufferView" : 7,
            "componentType" : 5126,
            "count" : 60,
            "type" : "VEC3"
        },
        {
            "bufferView" : 8,
            "componentType" : 5126,
            "count" : 60,
            "max" : [
                0,
                -0.012798011302947998,
                1.4266581535339355
            ],
            "min" : [
                0,
                -0.3262450695037842,
                0.06083333492279053
            ],
            "type" : "VEC3"
        },
        {
            "bufferView" : 9,
            "componentType" : 5126,
            "count" : 60,
            "type" : "VEC3"
        },
        {
            "bufferView" : 10,
            "componentType" : 5126,
            "count" : 60,
            "max" : [
                0,
                -0.04848963022232056,
                2.8627381324768066
            ],
            "min" : [
                0,
                -1.3414413928985596,
                0.11096382141113281
            ],
            "type" : "VEC3"
        },
        {
            "bufferView" : 11,
            "componentType" : 5126,
            "count" : 60,
            "type" : "VEC3"
        },
        {
            "bufferView" : 12,
            "componentType" : 5126,
            "count" : 284,
            "max" : [
                2.6005542278289795,
                4.0583624839782715,
                1.8130319118499756
            ],
            "min" : [
                -2.6005542278289795,
                -0.006757819093763828,
                -1.8368158340454102
            ],
            "type" : "VEC3"
        },
        {
            "bufferView" : 13,
            "componentType" : 5126,
            "count" : 284,
            "type" : "VEC3"
        },
        {
            "bufferView" : 14,
            "componentType" : 5126,
            "count" : 284,
            "type" : "VEC2"
        },
        {
            "bufferView" : 15,
            "componentType" : 5123,
            "count" : 570,
            "type" : "SCALAR"
        },
        {
            "bufferView" : 19,
            "componentType" : 5126,
            "count" : 284,
            "max" : [
                0,
                0,
                0
            ],
            "min" : [
                0,
                0,
                -0.01672053337097168
            ],
            "type" : "VEC3"
        },
        {
            "bufferView" : 20,
            "componentType" : 5126,
            "count" : 284,
            "type" : "VEC3"
        },
        {
            "bufferView" : 21,
            "componentType" : 5126,
            "count" : 284,
            "max" : [
                2.384185791015625e-07,
                0,
                0
            ],
            "min" : [
                -2.384185791015625e-07,
                -0.665203332901001,
                -2.132399797439575
            ],
            "type" : "VEC3"
        },
        {
            "bufferView" : 22,
            "componentType" : 5126,
            "count" : 284,
            "type" : "VEC3"
        },
        {
            "bufferView" : 23,
            "componentType" : 5126,
            "count" : 284,
            "max" : [
                2.384185791015625e-07,
                0,
                3.652101516723633
            ],
            "min" : [
                -2.384185791015625e-07,
                -3.9005234241485596,
                0
            ],
            "type" : "VEC3"
        },
        {
            "bufferView" : 24,
            "componentType" : 5126,
            "count" : 284,
            "type" : "VEC3"
        },
        {
            "bufferView" : 25,
            "componentType" : 5126,
            "count" : 284,
            "max" : [
                0,
                0,
                1.487491488456726
            ],
            "min" : [
                0,
                -0.4114522933959961,
                0
            ],
            "type" : "VEC3"
        },
        {
            "bufferView" : 26,
            "componentType" : 5126,
            "count" : 284,
            "type" : "VEC3"
        },
        {
            "bufferView" : 27,
            "componentType" : 5126,
            "count" : 284,
            "max" : [
                0,
                0.007205963134765625,
                0
            ],
            "min" : [
                0,
                -0.010298728942871094,
                -0.1921217441558838
            ],
            "type" : "VEC3"
        },
        {
            "bufferView" : 28,
            "componentType" : 5126,
            "count" : 284,
            "type" : "VEC3"
        },
        {
            "bufferView" : 29,
            "componentType" : 5126,
            "count" : 284,
            "max" : [
                0,
                0,
                2.8803791999816895
            ],
            "min" : [
                0,
                -1.5892281532287598,
                0
            ],
            "type" : "VEC3"
        },
        {
            "bufferView" : 30,
            "componentType" : 5126,
            "count" : 284,
            "type" : "VEC3"
        },
        {
            "bufferView" : 31,
            "componentType" : 5126,
            "count" : 284,
            "max" : [
                0,
                0,
                3.612095355987549
            ],
            "min" : [
                0,
                -3.4827752113342285,
                0
            ],
            "type" : "VEC3"
        },
        {
            "bufferView" : 32,
            "componentType" : 5126,
            "count" : 284,
            "type" : "VEC3"
        },
        {
            "bufferView" : 33,
            "componentType" : 5126,
            "count" : 284,
            "max" : [
                0,
                0,
                0
            ],
            "min" : [
                0,
                0,
                0
            ],
            "type" : "VEC3"
        },
        {
            "bufferView" : 34,
            "componentType" : 5126,
            "count" : 284,
            "type" : "VEC3"
        },
        {
            "bufferView" : 35,
            "componentType" : 5126,
            "count" : 30,
            "max" : [
                1.25
            ],
            "min" : [
                0.041666666666666664
            ],
            "type" : "SCALAR"
        },
        {
            "bufferView" : 36,
            "componentType" : 5126,
            "count" : 240,
            "type" : "SCALAR"
        },
        {
            "bufferView" : 37,
            "componentType" : 5126,
            "count" : 120,
            "type" : "SCALAR"
        }
    ],
    "bufferViews" : [
        {
            "buffer" : 0,
            "byteLength" : 720,
            "byteOffset" : 0
        },
        {
            "buffer" : 0,
            "byteLength" : 720,
            "byteOffset" : 720
        },
        {
            "buffer" : 0,
            "byteLength" : 480,
            "byteOffset" : 1440
        },
        {
            "buffer" : 0,
            "byteLength" : 288,
            "byteOffset" : 1920
        },
        {
            "buffer" : 0,
            "byteLength" : 720,
            "byteOffset" : 2208
        },
        {
            "buffer" : 0,
            "byteLength" : 720,
            "byteOffset" : 2928
        },
        {
            "buffer" : 0,
            "byteLength" : 720,
            "byteOffset" : 3648
        },
        {
            "buffer" : 0,
            "byteLength" : 720,
            "byteOffset" : 4368
        },
        {
            "buffer" : 0,
            "byteLength" : 720,
            "byteOffset" : 5088
        },
        {
            "buffer" : 0,
            "byteLength" : 720,
            "byteOffset" : 5808
        },
        {
            "buffer" : 0,
            "byteLength" : 720,
            "byteOffset" : 6528
        },
        {
            "buffer" : 0,
            "byteLength" : 720,
            "byteOffset" : 7248
        },
        {
            "buffer" : 0,
            "byteLength" : 3408,
            "byteOffset" : 7968
        },
        {
            "buffer" : 0,
            "byteLength" : 3408,
            "byteOffset" : 11376
        },
        {
            "buffer" : 0,
            "byteLength" : 2272,
            "byteOffset" : 14784
        },
        {
            "buffer" : 0,
            "byteLength" : 1140,
            "byteOffset" : 17056
        },
        {
            "buffer" : 0,
            "byteLength" : 5356,
            "byteOffset" : 18196
        },
        {
            "buffer" : 0,
            "byteLength" : 172985,
            "byteOffset" : 23552
        },
        {
            "buffer" : 0,
            "byteLength" : 21777,
            "byteOffset" : 196540
        },
        {
            "buffer" : 0,
            "byteLength" : 3408,
            "byteOffset" : 218320
        },
        {
            "buffer" : 0,
            "byteLength" : 3408,
            "byteOffset" : 221728
        },
        {
            "buffer" : 0,
            "byteLength" : 3408,
            "byteOffset" : 225136
        },
        {
            "buffer" : 0,
            "byteLength" : 3408,
            "byteOffset" : 228544
        },
        {
            "buffer" : 0,
            "byteLength" : 3408,
            "byteOffset" : 231952
        },
        {
            "buffer" : 0,
            "byteLength" : 3408,
            "byteOffset" : 235360
        },
        {
            "buffer" : 0,
            "byteLength" : 3408,
            "byteOffset" : 238768
        },
        {
            "buffer" : 0,
            "byteLength" : 3408,
            "byteOffset" : 242176
        },
        {
            "buffer" : 0,
            "byteLength" : 3408,
            "byteOffset" : 245584
        },
        {
            "buffer" : 0,
            "byteLength" : 3408,
            "byteOffset" : 248992
        },
        {
            "buffer" : 0,
            "byteLength" : 3408,
            "byteOffset" : 252400
        },
        {
            "buffer" : 0,
            "byteLength" : 3408,
            "byteOffset" : 255808
        },
        {
            "buffer" : 0,
            "byteLength" : 3408,
            "byteOffset" : 259216
        },
        {
            "buffer" : 0,
            "byteLength" : 3408,
            "byteOffset" : 262624
        },
        {
            "buffer" : 0,
            "byteLength" : 3408,
            "byteOffset" : 266032
        },
        {
            "buffer" : 0,
            "byteLength" : 3408,
            "byteOffset" : 269440
        },
        {
            "buffer" : 0,
            "byteLength" : 120,
            "byteOffset" : 272848
        },
        {
            "buffer" : 0,
            "byteLength" : 960,
            "byteOffset" : 272968
        },
        {
            "buffer" : 0,
            "byteLength" : 480,
            "byteOffset" : 273928
        }
    ],
    "samplers" : [
        {
            "magFilter" : 9729,
            "minFilter" : 9987
        }
    ],
    "buffers" : [
        {
            "byteLength" : 274408,
            "uri" : "data:application/octet-stream;base64,"
        }
    ]
}
